<?xml version="1.0" standalone="no"?>
 <!DOCTYPE svg PUBLIC "-//W3C//DTD SVG 1.1//EN"
 "http://www.w3.org/Graphics/SVG/1.1/DTD/svg11.dtd">
<svg
  xmlns:svg="http://www.w3.org/2000/svg"
  xmlns="http://www.w3.org/2000/svg"
  xmlns:xlink="http://www.w3.org/1999/xlink"
  xmlns:inkscape="http://www.inkscape.org/namespaces/inkscape"
  version="1.1"
  width="22.9870mm" height="34.9758mm" viewBox="0.0000 0.0000 22.9870 34.9758">
<title>SVG Image created as sp350_fc_compact.svg date 2026-06-23T10:15:48 </title>
  <desc>Image generated by PCBNEW </desc>
<g style="fill:#000000; fill-opacity:1.0000;stroke:#000000; stroke-opacity:1.0000;
stroke-linecap:round; stroke-linejoin:round;"
 transform="translate(0 0) scale(1 1)">
</g>
<g style="fill:none;
stroke:#C872AB; stroke-width:0.1500; stroke-opacity:1;
stroke-linecap:round; stroke-linejoin:round;">
<path d="M-185.5000 -91.5000
L-77.5000 -91.5000
L-77.5000 -59.5000
L-185.5000 -59.5000
L-185.5000 -91.5000
" />
<path d="M-78.5000 -72.5000
L-75.5000 -72.5000
L-75.5000 -57.5000
L-78.5000 -57.5000
L-78.5000 -72.5000
" />
<path d="M-76.5000 -70.5000
L-77.5000 -70.5000
L-77.5000 -59.5000
L-76.5000 -59.5000
L-76.5000 -70.5000
" />
<path d="M-28.5000 -70.5000
L-28.5000 -72.5000
" />
<text x="-53.5000" y="-70.8500"
textLength="1.4281" font-size="1.7333" lengthAdjust="spacingAndGlyphs"
text-anchor="start" opacity="0" stroke-opacity="0">1</text>
<g class="stroked-text"><desc>1</desc>
<path d="M-52.4108 -70.9064
L-53.1537 -70.9064
" />
<path d="M-52.7823 -70.9064
L-52.7823 -72.2064
" />
<path d="M-52.7823 -72.2064
L-52.9061 -72.0207
" />
<path d="M-52.9061 -72.0207
L-53.0299 -71.8969
" />
<path d="M-53.0299 -71.8969
L-53.1537 -71.8350
" />
</g><path d="M-28.5000 -59.5000
L-28.5000 -57.5000
" />
<text x="-53.5000" y="-57.8500"
textLength="1.4281" font-size="1.7333" lengthAdjust="spacingAndGlyphs"
text-anchor="start" opacity="0" stroke-opacity="0">1</text>
<g class="stroked-text"><desc>1</desc>
<path d="M-52.4108 -57.9064
L-53.1537 -57.9064
" />
<path d="M-52.7823 -57.9064
L-52.7823 -59.2064
" />
<path d="M-52.7823 -59.2064
L-52.9061 -59.0207
" />
<path d="M-52.9061 -59.0207
L-53.0299 -58.8969
" />
<path d="M-53.0299 -58.8969
L-53.1537 -58.8350
" />
</g><path d="M-78.5000 -22.5000
L-76.5000 -22.5000
" />
<text x="-77.5000" y="-46.8500"
textLength="1.3043" font-size="1.7333" lengthAdjust="spacingAndGlyphs"
text-anchor="middle" opacity="0" stroke-opacity="0">A</text>
<g class="stroked-text"><desc>A</desc>
<path d="M-77.8095 -47.2778
L-77.1905 -47.2778
" />
<path d="M-77.9333 -46.9064
L-77.5000 -48.2064
" />
<path d="M-77.5000 -48.2064
L-77.0667 -46.9064
" />
</g><path d="M-75.5000 -22.5000
L-77.5000 -22.5000
" />
<text x="-76.5000" y="-46.8500"
textLength="1.3043" font-size="1.7333" lengthAdjust="spacingAndGlyphs"
text-anchor="middle" opacity="0" stroke-opacity="0">A</text>
<g class="stroked-text"><desc>A</desc>
<path d="M-76.8095 -47.2778
L-76.1905 -47.2778
" />
<path d="M-76.9333 -46.9064
L-76.5000 -48.2064
" />
<path d="M-76.5000 -48.2064
L-76.0667 -46.9064
" />
</g><text x="-162.5000" y="-63.6500"
textLength="7.0071" font-size="2.0000" lengthAdjust="spacingAndGlyphs"
text-anchor="start" opacity="0" stroke-opacity="0">Date: </text>
<g class="stroked-text"><desc>Date: </desc>
<path d="M-162.0442 -63.7139
L-162.0442 -65.2139
" />
<path d="M-162.0442 -65.2139
L-161.6870 -65.2139
" />
<path d="M-161.6870 -65.2139
L-161.4727 -65.1424
" />
<path d="M-161.4727 -65.1424
L-161.3299 -64.9996
" />
<path d="M-161.3299 -64.9996
L-161.2585 -64.8567
" />
<path d="M-161.2585 -64.8567
L-161.1870 -64.5710
" />
<path d="M-161.1870 -64.5710
L-161.1870 -64.3567
" />
<path d="M-161.1870 -64.3567
L-161.2585 -64.0710
" />
<path d="M-161.2585 -64.0710
L-161.3299 -63.9282
" />
<path d="M-161.3299 -63.9282
L-161.4727 -63.7853
" />
<path d="M-161.4727 -63.7853
L-161.6870 -63.7139
" />
<path d="M-161.6870 -63.7139
L-162.0442 -63.7139
" />
<path d="M-159.9013 -63.7139
L-159.9013 -64.4996
" />
<path d="M-159.9013 -64.4996
L-159.9727 -64.6424
" />
<path d="M-159.9727 -64.6424
L-160.1156 -64.7139
" />
<path d="M-160.1156 -64.7139
L-160.4013 -64.7139
" />
<path d="M-160.4013 -64.7139
L-160.5442 -64.6424
" />
<path d="M-159.9013 -63.7853
L-160.0442 -63.7139
" />
<path d="M-160.0442 -63.7139
L-160.4013 -63.7139
" />
<path d="M-160.4013 -63.7139
L-160.5442 -63.7853
" />
<path d="M-160.5442 -63.7853
L-160.6156 -63.9282
" />
<path d="M-160.6156 -63.9282
L-160.6156 -64.0710
" />
<path d="M-160.6156 -64.0710
L-160.5442 -64.2139
" />
<path d="M-160.5442 -64.2139
L-160.4013 -64.2853
" />
<path d="M-160.4013 -64.2853
L-160.0442 -64.2853
" />
<path d="M-160.0442 -64.2853
L-159.9013 -64.3567
" />
<path d="M-159.4013 -64.7139
L-158.8299 -64.7139
" />
<path d="M-159.1870 -65.2139
L-159.1870 -63.9282
" />
<path d="M-159.1870 -63.9282
L-159.1156 -63.7853
" />
<path d="M-159.1156 -63.7853
L-158.9727 -63.7139
" />
<path d="M-158.9727 -63.7139
L-158.8299 -63.7139
" />
<path d="M-157.7585 -63.7853
L-157.9013 -63.7139
" />
<path d="M-157.9013 -63.7139
L-158.1870 -63.7139
" />
<path d="M-158.1870 -63.7139
L-158.3299 -63.7853
" />
<path d="M-158.3299 -63.7853
L-158.4013 -63.9282
" />
<path d="M-158.4013 -63.9282
L-158.4013 -64.4996
" />
<path d="M-158.4013 -64.4996
L-158.3299 -64.6424
" />
<path d="M-158.3299 -64.6424
L-158.1870 -64.7139
" />
<path d="M-158.1870 -64.7139
L-157.9013 -64.7139
" />
<path d="M-157.9013 -64.7139
L-157.7585 -64.6424
" />
<path d="M-157.7585 -64.6424
L-157.6870 -64.4996
" />
<path d="M-157.6870 -64.4996
L-157.6870 -64.3567
" />
<path d="M-157.6870 -64.3567
L-158.4013 -64.2139
" />
<path d="M-157.0442 -63.8567
L-156.9727 -63.7853
" />
<path d="M-156.9727 -63.7853
L-157.0442 -63.7139
" />
<path d="M-157.0442 -63.7139
L-157.1156 -63.7853
" />
<path d="M-157.1156 -63.7853
L-157.0442 -63.8567
" />
<path d="M-157.0442 -63.8567
L-157.0442 -63.7139
" />
<path d="M-157.0442 -64.6424
L-156.9727 -64.5710
" />
<path d="M-156.9727 -64.5710
L-157.0442 -64.4996
" />
<path d="M-157.0442 -64.4996
L-157.1156 -64.5710
" />
<path d="M-157.1156 -64.5710
L-157.0442 -64.6424
" />
<path d="M-157.0442 -64.6424
L-157.0442 -64.4996
" />
</g><path d="M-185.5000 -63.0000
L-77.5000 -63.0000
" />
<text x="-184.5000" y="-60.8500"
textLength="22.2929" font-size="2.0000" lengthAdjust="spacingAndGlyphs"
text-anchor="start" opacity="0" stroke-opacity="0">KiCad E.D.A. 10.0.4</text>
<g class="stroked-text"><desc>KiCad E.D.A. 10.0.4</desc>
<path d="M-184.0442 -60.9139
L-184.0442 -62.4139
" />
<path d="M-183.1870 -60.9139
L-183.8299 -61.7710
" />
<path d="M-183.1870 -62.4139
L-184.0442 -61.5567
" />
<path d="M-182.5442 -60.9139
L-182.5442 -61.9139
" />
<path d="M-182.5442 -62.4139
L-182.6156 -62.3424
" />
<path d="M-182.6156 -62.3424
L-182.5442 -62.2710
" />
<path d="M-182.5442 -62.2710
L-182.4727 -62.3424
" />
<path d="M-182.4727 -62.3424
L-182.5442 -62.4139
" />
<path d="M-182.5442 -62.4139
L-182.5442 -62.2710
" />
<path d="M-180.9727 -61.0567
L-181.0442 -60.9853
" />
<path d="M-181.0442 -60.9853
L-181.2585 -60.9139
" />
<path d="M-181.2585 -60.9139
L-181.4013 -60.9139
" />
<path d="M-181.4013 -60.9139
L-181.6156 -60.9853
" />
<path d="M-181.6156 -60.9853
L-181.7585 -61.1282
" />
<path d="M-181.7585 -61.1282
L-181.8299 -61.2710
" />
<path d="M-181.8299 -61.2710
L-181.9013 -61.5567
" />
<path d="M-181.9013 -61.5567
L-181.9013 -61.7710
" />
<path d="M-181.9013 -61.7710
L-181.8299 -62.0567
" />
<path d="M-181.8299 -62.0567
L-181.7585 -62.1996
" />
<path d="M-181.7585 -62.1996
L-181.6156 -62.3424
" />
<path d="M-181.6156 -62.3424
L-181.4013 -62.4139
" />
<path d="M-181.4013 -62.4139
L-181.2585 -62.4139
" />
<path d="M-181.2585 -62.4139
L-181.0442 -62.3424
" />
<path d="M-181.0442 -62.3424
L-180.9727 -62.2710
" />
<path d="M-179.6870 -60.9139
L-179.6870 -61.6996
" />
<path d="M-179.6870 -61.6996
L-179.7585 -61.8424
" />
<path d="M-179.7585 -61.8424
L-179.9013 -61.9139
" />
<path d="M-179.9013 -61.9139
L-180.1870 -61.9139
" />
<path d="M-180.1870 -61.9139
L-180.3299 -61.8424
" />
<path d="M-179.6870 -60.9853
L-179.8299 -60.9139
" />
<path d="M-179.8299 -60.9139
L-180.1870 -60.9139
" />
<path d="M-180.1870 -60.9139
L-180.3299 -60.9853
" />
<path d="M-180.3299 -60.9853
L-180.4013 -61.1282
" />
<path d="M-180.4013 -61.1282
L-180.4013 -61.2710
" />
<path d="M-180.4013 -61.2710
L-180.3299 -61.4139
" />
<path d="M-180.3299 -61.4139
L-180.1870 -61.4853
" />
<path d="M-180.1870 -61.4853
L-179.8299 -61.4853
" />
<path d="M-179.8299 -61.4853
L-179.6870 -61.5567
" />
<path d="M-178.3299 -60.9139
L-178.3299 -62.4139
" />
<path d="M-178.3299 -60.9853
L-178.4727 -60.9139
" />
<path d="M-178.4727 -60.9139
L-178.7585 -60.9139
" />
<path d="M-178.7585 -60.9139
L-178.9013 -60.9853
" />
<path d="M-178.9013 -60.9853
L-178.9727 -61.0567
" />
<path d="M-178.9727 -61.0567
L-179.0442 -61.1996
" />
<path d="M-179.0442 -61.1996
L-179.0442 -61.6282
" />
<path d="M-179.0442 -61.6282
L-178.9727 -61.7710
" />
<path d="M-178.9727 -61.7710
L-178.9013 -61.8424
" />
<path d="M-178.9013 -61.8424
L-178.7585 -61.9139
" />
<path d="M-178.7585 -61.9139
L-178.4727 -61.9139
" />
<path d="M-178.4727 -61.9139
L-178.3299 -61.8424
" />
<path d="M-176.4727 -61.6996
L-175.9727 -61.6996
" />
<path d="M-175.7585 -60.9139
L-176.4727 -60.9139
" />
<path d="M-176.4727 -60.9139
L-176.4727 -62.4139
" />
<path d="M-176.4727 -62.4139
L-175.7585 -62.4139
" />
<path d="M-175.1156 -61.0567
L-175.0442 -60.9853
" />
<path d="M-175.0442 -60.9853
L-175.1156 -60.9139
" />
<path d="M-175.1156 -60.9139
L-175.1870 -60.9853
" />
<path d="M-175.1870 -60.9853
L-175.1156 -61.0567
" />
<path d="M-175.1156 -61.0567
L-175.1156 -60.9139
" />
<path d="M-174.4013 -60.9139
L-174.4013 -62.4139
" />
<path d="M-174.4013 -62.4139
L-174.0442 -62.4139
" />
<path d="M-174.0442 -62.4139
L-173.8299 -62.3424
" />
<path d="M-173.8299 -62.3424
L-173.6870 -62.1996
" />
<path d="M-173.6870 -62.1996
L-173.6156 -62.0567
" />
<path d="M-173.6156 -62.0567
L-173.5442 -61.7710
" />
<path d="M-173.5442 -61.7710
L-173.5442 -61.5567
" />
<path d="M-173.5442 -61.5567
L-173.6156 -61.2710
" />
<path d="M-173.6156 -61.2710
L-173.6870 -61.1282
" />
<path d="M-173.6870 -61.1282
L-173.8299 -60.9853
" />
<path d="M-173.8299 -60.9853
L-174.0442 -60.9139
" />
<path d="M-174.0442 -60.9139
L-174.4013 -60.9139
" />
<path d="M-172.9013 -61.0567
L-172.8299 -60.9853
" />
<path d="M-172.8299 -60.9853
L-172.9013 -60.9139
" />
<path d="M-172.9013 -60.9139
L-172.9727 -60.9853
" />
<path d="M-172.9727 -60.9853
L-172.9013 -61.0567
" />
<path d="M-172.9013 -61.0567
L-172.9013 -60.9139
" />
<path d="M-172.2585 -61.3424
L-171.5442 -61.3424
" />
<path d="M-172.4013 -60.9139
L-171.9013 -62.4139
" />
<path d="M-171.9013 -62.4139
L-171.4013 -60.9139
" />
<path d="M-170.9013 -61.0567
L-170.8299 -60.9853
" />
<path d="M-170.8299 -60.9853
L-170.9013 -60.9139
" />
<path d="M-170.9013 -60.9139
L-170.9727 -60.9853
" />
<path d="M-170.9727 -60.9853
L-170.9013 -61.0567
" />
<path d="M-170.9013 -61.0567
L-170.9013 -60.9139
" />
<path d="M-168.2585 -60.9139
L-169.1156 -60.9139
" />
<path d="M-168.6870 -60.9139
L-168.6870 -62.4139
" />
<path d="M-168.6870 -62.4139
L-168.8299 -62.1996
" />
<path d="M-168.8299 -62.1996
L-168.9727 -62.0567
" />
<path d="M-168.9727 -62.0567
L-169.1156 -61.9853
" />
<path d="M-167.3299 -62.4139
L-167.1870 -62.4139
" />
<path d="M-167.1870 -62.4139
L-167.0442 -62.3424
" />
<path d="M-167.0442 -62.3424
L-166.9727 -62.2710
" />
<path d="M-166.9727 -62.2710
L-166.9013 -62.1282
" />
<path d="M-166.9013 -62.1282
L-166.8299 -61.8424
" />
<path d="M-166.8299 -61.8424
L-166.8299 -61.4853
" />
<path d="M-166.8299 -61.4853
L-166.9013 -61.1996
" />
<path d="M-166.9013 -61.1996
L-166.9727 -61.0567
" />
<path d="M-166.9727 -61.0567
L-167.0442 -60.9853
" />
<path d="M-167.0442 -60.9853
L-167.1870 -60.9139
" />
<path d="M-167.1870 -60.9139
L-167.3299 -60.9139
" />
<path d="M-167.3299 -60.9139
L-167.4727 -60.9853
" />
<path d="M-167.4727 -60.9853
L-167.5442 -61.0567
" />
<path d="M-167.5442 -61.0567
L-167.6156 -61.1996
" />
<path d="M-167.6156 -61.1996
L-167.6870 -61.4853
" />
<path d="M-167.6870 -61.4853
L-167.6870 -61.8424
" />
<path d="M-167.6870 -61.8424
L-167.6156 -62.1282
" />
<path d="M-167.6156 -62.1282
L-167.5442 -62.2710
" />
<path d="M-167.5442 -62.2710
L-167.4727 -62.3424
" />
<path d="M-167.4727 -62.3424
L-167.3299 -62.4139
" />
<path d="M-166.1870 -61.0567
L-166.1156 -60.9853
" />
<path d="M-166.1156 -60.9853
L-166.1870 -60.9139
" />
<path d="M-166.1870 -60.9139
L-166.2585 -60.9853
" />
<path d="M-166.2585 -60.9853
L-166.1870 -61.0567
" />
<path d="M-166.1870 -61.0567
L-166.1870 -60.9139
" />
<path d="M-165.1870 -62.4139
L-165.0442 -62.4139
" />
<path d="M-165.0442 -62.4139
L-164.9013 -62.3424
" />
<path d="M-164.9013 -62.3424
L-164.8299 -62.2710
" />
<path d="M-164.8299 -62.2710
L-164.7585 -62.1282
" />
<path d="M-164.7585 -62.1282
L-164.6870 -61.8424
" />
<path d="M-164.6870 -61.8424
L-164.6870 -61.4853
" />
<path d="M-164.6870 -61.4853
L-164.7585 -61.1996
" />
<path d="M-164.7585 -61.1996
L-164.8299 -61.0567
" />
<path d="M-164.8299 -61.0567
L-164.9013 -60.9853
" />
<path d="M-164.9013 -60.9853
L-165.0442 -60.9139
" />
<path d="M-165.0442 -60.9139
L-165.1870 -60.9139
" />
<path d="M-165.1870 -60.9139
L-165.3299 -60.9853
" />
<path d="M-165.3299 -60.9853
L-165.4013 -61.0567
" />
<path d="M-165.4013 -61.0567
L-165.4727 -61.1996
" />
<path d="M-165.4727 -61.1996
L-165.5442 -61.4853
" />
<path d="M-165.5442 -61.4853
L-165.5442 -61.8424
" />
<path d="M-165.5442 -61.8424
L-165.4727 -62.1282
" />
<path d="M-165.4727 -62.1282
L-165.4013 -62.2710
" />
<path d="M-165.4013 -62.2710
L-165.3299 -62.3424
" />
<path d="M-165.3299 -62.3424
L-165.1870 -62.4139
" />
<path d="M-164.0442 -61.0567
L-163.9727 -60.9853
" />
<path d="M-163.9727 -60.9853
L-164.0442 -60.9139
" />
<path d="M-164.0442 -60.9139
L-164.1156 -60.9853
" />
<path d="M-164.1156 -60.9853
L-164.0442 -61.0567
" />
<path d="M-164.0442 -61.0567
L-164.0442 -60.9139
" />
<path d="M-162.6870 -61.9139
L-162.6870 -60.9139
" />
<path d="M-163.0442 -62.4853
L-163.4013 -61.4139
" />
<path d="M-163.4013 -61.4139
L-162.4727 -61.4139
" />
</g><path d="M-185.5000 -66.0000
L-77.5000 -66.0000
" />
</g>
<g style="fill:none;
stroke:#C872AB; stroke-width:0.3000; stroke-opacity:1;
stroke-linecap:round; stroke-linejoin:round;">
<text x="-99.5000" y="-63.6500"
textLength="6.3857" font-size="2.0000" lengthAdjust="spacingAndGlyphs"
text-anchor="start" opacity="0" stroke-opacity="0">Rev: </text>
<g class="stroked-text"><desc>Rev: </desc>
<path d="M-98.0883 -63.7217
L-98.5883 -64.4360
" />
<path d="M-98.9455 -63.7217
L-98.9455 -65.2217
" />
<path d="M-98.9455 -65.2217
L-98.3741 -65.2217
" />
<path d="M-98.3741 -65.2217
L-98.2312 -65.1502
" />
<path d="M-98.2312 -65.1502
L-98.1598 -65.0788
" />
<path d="M-98.1598 -65.0788
L-98.0883 -64.9360
" />
<path d="M-98.0883 -64.9360
L-98.0883 -64.7217
" />
<path d="M-98.0883 -64.7217
L-98.1598 -64.5788
" />
<path d="M-98.1598 -64.5788
L-98.2312 -64.5074
" />
<path d="M-98.2312 -64.5074
L-98.3741 -64.4360
" />
<path d="M-98.3741 -64.4360
L-98.9455 -64.4360
" />
<path d="M-96.8741 -63.7931
L-97.0169 -63.7217
" />
<path d="M-97.0169 -63.7217
L-97.3026 -63.7217
" />
<path d="M-97.3026 -63.7217
L-97.4455 -63.7931
" />
<path d="M-97.4455 -63.7931
L-97.5169 -63.9360
" />
<path d="M-97.5169 -63.9360
L-97.5169 -64.5074
" />
<path d="M-97.5169 -64.5074
L-97.4455 -64.6502
" />
<path d="M-97.4455 -64.6502
L-97.3026 -64.7217
" />
<path d="M-97.3026 -64.7217
L-97.0169 -64.7217
" />
<path d="M-97.0169 -64.7217
L-96.8741 -64.6502
" />
<path d="M-96.8741 -64.6502
L-96.8026 -64.5074
" />
<path d="M-96.8026 -64.5074
L-96.8026 -64.3645
" />
<path d="M-96.8026 -64.3645
L-97.5169 -64.2217
" />
<path d="M-96.3026 -64.7217
L-95.9455 -63.7217
" />
<path d="M-95.9455 -63.7217
L-95.5883 -64.7217
" />
<path d="M-95.0169 -63.8645
L-94.9455 -63.7931
" />
<path d="M-94.9455 -63.7931
L-95.0169 -63.7217
" />
<path d="M-95.0169 -63.7217
L-95.0883 -63.7931
" />
<path d="M-95.0883 -63.7931
L-95.0169 -63.8645
" />
<path d="M-95.0169 -63.8645
L-95.0169 -63.7217
" />
<path d="M-95.0169 -64.6502
L-94.9455 -64.5788
" />
<path d="M-94.9455 -64.5788
L-95.0169 -64.5074
" />
<path d="M-95.0169 -64.5074
L-95.0883 -64.5788
" />
<path d="M-95.0883 -64.5788
L-95.0169 -64.6502
" />
<path d="M-95.0169 -64.6502
L-95.0169 -64.5074
" />
</g></g>
<g style="fill:none;
stroke:#C872AB; stroke-width:0.1500; stroke-opacity:1;
stroke-linecap:round; stroke-linejoin:round;">
<text x="-184.5000" y="-63.6500"
textLength="11.6500" font-size="2.0000" lengthAdjust="spacingAndGlyphs"
text-anchor="start" opacity="0" stroke-opacity="0">Size: User</text>
<g class="stroked-text"><desc>Size: User</desc>
<path d="M-184.1156 -63.7853
L-183.9013 -63.7139
" />
<path d="M-183.9013 -63.7139
L-183.5442 -63.7139
" />
<path d="M-183.5442 -63.7139
L-183.4013 -63.7853
" />
<path d="M-183.4013 -63.7853
L-183.3299 -63.8567
" />
<path d="M-183.3299 -63.8567
L-183.2585 -63.9996
" />
<path d="M-183.2585 -63.9996
L-183.2585 -64.1424
" />
<path d="M-183.2585 -64.1424
L-183.3299 -64.2853
" />
<path d="M-183.3299 -64.2853
L-183.4013 -64.3567
" />
<path d="M-183.4013 -64.3567
L-183.5442 -64.4282
" />
<path d="M-183.5442 -64.4282
L-183.8299 -64.4996
" />
<path d="M-183.8299 -64.4996
L-183.9727 -64.5710
" />
<path d="M-183.9727 -64.5710
L-184.0442 -64.6424
" />
<path d="M-184.0442 -64.6424
L-184.1156 -64.7853
" />
<path d="M-184.1156 -64.7853
L-184.1156 -64.9282
" />
<path d="M-184.1156 -64.9282
L-184.0442 -65.0710
" />
<path d="M-184.0442 -65.0710
L-183.9727 -65.1424
" />
<path d="M-183.9727 -65.1424
L-183.8299 -65.2139
" />
<path d="M-183.8299 -65.2139
L-183.4727 -65.2139
" />
<path d="M-183.4727 -65.2139
L-183.2585 -65.1424
" />
<path d="M-182.6156 -63.7139
L-182.6156 -64.7139
" />
<path d="M-182.6156 -65.2139
L-182.6870 -65.1424
" />
<path d="M-182.6870 -65.1424
L-182.6156 -65.0710
" />
<path d="M-182.6156 -65.0710
L-182.5442 -65.1424
" />
<path d="M-182.5442 -65.1424
L-182.6156 -65.2139
" />
<path d="M-182.6156 -65.2139
L-182.6156 -65.0710
" />
<path d="M-182.0442 -64.7139
L-181.2585 -64.7139
" />
<path d="M-181.2585 -64.7139
L-182.0442 -63.7139
" />
<path d="M-182.0442 -63.7139
L-181.2585 -63.7139
" />
<path d="M-180.1156 -63.7853
L-180.2585 -63.7139
" />
<path d="M-180.2585 -63.7139
L-180.5442 -63.7139
" />
<path d="M-180.5442 -63.7139
L-180.6870 -63.7853
" />
<path d="M-180.6870 -63.7853
L-180.7585 -63.9282
" />
<path d="M-180.7585 -63.9282
L-180.7585 -64.4996
" />
<path d="M-180.7585 -64.4996
L-180.6870 -64.6424
" />
<path d="M-180.6870 -64.6424
L-180.5442 -64.7139
" />
<path d="M-180.5442 -64.7139
L-180.2585 -64.7139
" />
<path d="M-180.2585 -64.7139
L-180.1156 -64.6424
" />
<path d="M-180.1156 -64.6424
L-180.0442 -64.4996
" />
<path d="M-180.0442 -64.4996
L-180.0442 -64.3567
" />
<path d="M-180.0442 -64.3567
L-180.7585 -64.2139
" />
<path d="M-179.4013 -63.8567
L-179.3299 -63.7853
" />
<path d="M-179.3299 -63.7853
L-179.4013 -63.7139
" />
<path d="M-179.4013 -63.7139
L-179.4727 -63.7853
" />
<path d="M-179.4727 -63.7853
L-179.4013 -63.8567
" />
<path d="M-179.4013 -63.8567
L-179.4013 -63.7139
" />
<path d="M-179.4013 -64.6424
L-179.3299 -64.5710
" />
<path d="M-179.3299 -64.5710
L-179.4013 -64.4996
" />
<path d="M-179.4013 -64.4996
L-179.4727 -64.5710
" />
<path d="M-179.4727 -64.5710
L-179.4013 -64.6424
" />
<path d="M-179.4013 -64.6424
L-179.4013 -64.4996
" />
<path d="M-177.5442 -65.2139
L-177.5442 -63.9996
" />
<path d="M-177.5442 -63.9996
L-177.4727 -63.8567
" />
<path d="M-177.4727 -63.8567
L-177.4013 -63.7853
" />
<path d="M-177.4013 -63.7853
L-177.2585 -63.7139
" />
<path d="M-177.2585 -63.7139
L-176.9727 -63.7139
" />
<path d="M-176.9727 -63.7139
L-176.8299 -63.7853
" />
<path d="M-176.8299 -63.7853
L-176.7585 -63.8567
" />
<path d="M-176.7585 -63.8567
L-176.6870 -63.9996
" />
<path d="M-176.6870 -63.9996
L-176.6870 -65.2139
" />
<path d="M-176.0442 -63.7853
L-175.9013 -63.7139
" />
<path d="M-175.9013 -63.7139
L-175.6156 -63.7139
" />
<path d="M-175.6156 -63.7139
L-175.4727 -63.7853
" />
<path d="M-175.4727 -63.7853
L-175.4013 -63.9282
" />
<path d="M-175.4013 -63.9282
L-175.4013 -63.9996
" />
<path d="M-175.4013 -63.9996
L-175.4727 -64.1424
" />
<path d="M-175.4727 -64.1424
L-175.6156 -64.2139
" />
<path d="M-175.6156 -64.2139
L-175.8299 -64.2139
" />
<path d="M-175.8299 -64.2139
L-175.9727 -64.2853
" />
<path d="M-175.9727 -64.2853
L-176.0442 -64.4282
" />
<path d="M-176.0442 -64.4282
L-176.0442 -64.4996
" />
<path d="M-176.0442 -64.4996
L-175.9727 -64.6424
" />
<path d="M-175.9727 -64.6424
L-175.8299 -64.7139
" />
<path d="M-175.8299 -64.7139
L-175.6156 -64.7139
" />
<path d="M-175.6156 -64.7139
L-175.4727 -64.6424
" />
<path d="M-174.1870 -63.7853
L-174.3299 -63.7139
" />
<path d="M-174.3299 -63.7139
L-174.6156 -63.7139
" />
<path d="M-174.6156 -63.7139
L-174.7585 -63.7853
" />
<path d="M-174.7585 -63.7853
L-174.8299 -63.9282
" />
<path d="M-174.8299 -63.9282
L-174.8299 -64.4996
" />
<path d="M-174.8299 -64.4996
L-174.7585 -64.6424
" />
<path d="M-174.7585 -64.6424
L-174.6156 -64.7139
" />
<path d="M-174.6156 -64.7139
L-174.3299 -64.7139
" />
<path d="M-174.3299 -64.7139
L-174.1870 -64.6424
" />
<path d="M-174.1870 -64.6424
L-174.1156 -64.4996
" />
<path d="M-174.1156 -64.4996
L-174.1156 -64.3567
" />
<path d="M-174.1156 -64.3567
L-174.8299 -64.2139
" />
<path d="M-173.4727 -63.7139
L-173.4727 -64.7139
" />
<path d="M-173.4727 -64.4282
L-173.4013 -64.5710
" />
<path d="M-173.4013 -64.5710
L-173.3299 -64.6424
" />
<path d="M-173.3299 -64.6424
L-173.1870 -64.7139
" />
<path d="M-173.1870 -64.7139
L-173.0442 -64.7139
" />
</g><text x="-99.5000" y="-60.8500"
textLength="8.5071" font-size="2.0000" lengthAdjust="spacingAndGlyphs"
text-anchor="start" opacity="0" stroke-opacity="0">Id: 1/1</text>
<g class="stroked-text"><desc>Id: 1/1</desc>
<path d="M-99.0442 -60.9139
L-99.0442 -62.4139
" />
<path d="M-97.6870 -60.9139
L-97.6870 -62.4139
" />
<path d="M-97.6870 -60.9853
L-97.8299 -60.9139
" />
<path d="M-97.8299 -60.9139
L-98.1156 -60.9139
" />
<path d="M-98.1156 -60.9139
L-98.2585 -60.9853
" />
<path d="M-98.2585 -60.9853
L-98.3299 -61.0567
" />
<path d="M-98.3299 -61.0567
L-98.4013 -61.1996
" />
<path d="M-98.4013 -61.1996
L-98.4013 -61.6282
" />
<path d="M-98.4013 -61.6282
L-98.3299 -61.7710
" />
<path d="M-98.3299 -61.7710
L-98.2585 -61.8424
" />
<path d="M-98.2585 -61.8424
L-98.1156 -61.9139
" />
<path d="M-98.1156 -61.9139
L-97.8299 -61.9139
" />
<path d="M-97.8299 -61.9139
L-97.6870 -61.8424
" />
<path d="M-96.9727 -61.0567
L-96.9013 -60.9853
" />
<path d="M-96.9013 -60.9853
L-96.9727 -60.9139
" />
<path d="M-96.9727 -60.9139
L-97.0442 -60.9853
" />
<path d="M-97.0442 -60.9853
L-96.9727 -61.0567
" />
<path d="M-96.9727 -61.0567
L-96.9727 -60.9139
" />
<path d="M-96.9727 -61.8424
L-96.9013 -61.7710
" />
<path d="M-96.9013 -61.7710
L-96.9727 -61.6996
" />
<path d="M-96.9727 -61.6996
L-97.0442 -61.7710
" />
<path d="M-97.0442 -61.7710
L-96.9727 -61.8424
" />
<path d="M-96.9727 -61.8424
L-96.9727 -61.6996
" />
<path d="M-94.3299 -60.9139
L-95.1870 -60.9139
" />
<path d="M-94.7585 -60.9139
L-94.7585 -62.4139
" />
<path d="M-94.7585 -62.4139
L-94.9013 -62.1996
" />
<path d="M-94.9013 -62.1996
L-95.0442 -62.0567
" />
<path d="M-95.0442 -62.0567
L-95.1870 -61.9853
" />
<path d="M-92.6156 -62.4853
L-93.9013 -60.5567
" />
<path d="M-91.3299 -60.9139
L-92.1870 -60.9139
" />
<path d="M-91.7585 -60.9139
L-91.7585 -62.4139
" />
<path d="M-91.7585 -62.4139
L-91.9013 -62.1996
" />
<path d="M-91.9013 -62.1996
L-92.0442 -62.0567
" />
<path d="M-92.0442 -62.0567
L-92.1870 -61.9853
" />
</g><path d="M-185.5000 -70.0000
L-77.5000 -70.0000
" />
</g>
<g style="fill:none;
stroke:#C872AB; stroke-width:0.4000; stroke-opacity:1;
stroke-linecap:round; stroke-linejoin:round;">
<text x="-184.5000" y="-67.2000"
textLength="9.6571" font-size="2.6667" lengthAdjust="spacingAndGlyphs"
text-anchor="start" opacity="0" stroke-opacity="0">Title: </text>
<g class="stroked-text"><desc>Title: </desc>
<path d="M-183.8083 -69.2956
L-182.6654 -69.2956
" />
<path d="M-183.4868 -67.2956
L-183.2368 -69.2956
" />
<path d="M-182.2487 -67.2956
L-182.0821 -68.6289
" />
<path d="M-181.9987 -69.2956
L-182.1059 -69.2003
" />
<path d="M-182.1059 -69.2003
L-182.0226 -69.1051
" />
<path d="M-182.0226 -69.1051
L-181.9154 -69.2003
" />
<path d="M-181.9154 -69.2003
L-181.9987 -69.2956
" />
<path d="M-181.9987 -69.2956
L-182.0226 -69.1051
" />
<path d="M-181.4154 -68.6289
L-180.6535 -68.6289
" />
<path d="M-181.0464 -69.2956
L-181.2607 -67.5813
" />
<path d="M-181.2607 -67.5813
L-181.1892 -67.3908
" />
<path d="M-181.1892 -67.3908
L-181.0107 -67.2956
" />
<path d="M-181.0107 -67.2956
L-180.8202 -67.2956
" />
<path d="M-179.8678 -67.2956
L-180.0464 -67.3908
" />
<path d="M-180.0464 -67.3908
L-180.1178 -67.5813
" />
<path d="M-180.1178 -67.5813
L-179.9035 -69.2956
" />
<path d="M-178.3321 -67.3908
L-178.5345 -67.2956
" />
<path d="M-178.5345 -67.2956
L-178.9154 -67.2956
" />
<path d="M-178.9154 -67.2956
L-179.0940 -67.3908
" />
<path d="M-179.0940 -67.3908
L-179.1654 -67.5813
" />
<path d="M-179.1654 -67.5813
L-179.0702 -68.3432
" />
<path d="M-179.0702 -68.3432
L-178.9511 -68.5337
" />
<path d="M-178.9511 -68.5337
L-178.7487 -68.6289
" />
<path d="M-178.7487 -68.6289
L-178.3678 -68.6289
" />
<path d="M-178.3678 -68.6289
L-178.1892 -68.5337
" />
<path d="M-178.1892 -68.5337
L-178.1178 -68.3432
" />
<path d="M-178.1178 -68.3432
L-178.1416 -68.1527
" />
<path d="M-178.1416 -68.1527
L-179.1178 -67.9622
" />
<path d="M-177.3678 -67.4860
L-177.2845 -67.3908
" />
<path d="M-177.2845 -67.3908
L-177.3916 -67.2956
" />
<path d="M-177.3916 -67.2956
L-177.4749 -67.3908
" />
<path d="M-177.4749 -67.3908
L-177.3678 -67.4860
" />
<path d="M-177.3678 -67.4860
L-177.3916 -67.2956
" />
<path d="M-177.2368 -68.5337
L-177.1535 -68.4384
" />
<path d="M-177.1535 -68.4384
L-177.2607 -68.3432
" />
<path d="M-177.2607 -68.3432
L-177.3440 -68.4384
" />
<path d="M-177.3440 -68.4384
L-177.2368 -68.5337
" />
<path d="M-177.2368 -68.5337
L-177.2607 -68.3432
" />
</g></g>
<g style="fill:none;
stroke:#C872AB; stroke-width:0.1500; stroke-opacity:1;
stroke-linecap:round; stroke-linejoin:round;">
<text x="-184.5000" y="-71.0500"
textLength="29.9357" font-size="2.0000" lengthAdjust="spacingAndGlyphs"
text-anchor="start" opacity="0" stroke-opacity="0">File: Drone PCB.kicad_pcb</text>
<g class="stroked-text"><desc>File: Drone PCB.kicad_pcb</desc>
<path d="M-183.5442 -71.8996
L-184.0442 -71.8996
" />
<path d="M-184.0442 -71.1139
L-184.0442 -72.6139
" />
<path d="M-184.0442 -72.6139
L-183.3299 -72.6139
" />
<path d="M-182.7585 -71.1139
L-182.7585 -72.1139
" />
<path d="M-182.7585 -72.6139
L-182.8299 -72.5424
" />
<path d="M-182.8299 -72.5424
L-182.7585 -72.4710
" />
<path d="M-182.7585 -72.4710
L-182.6870 -72.5424
" />
<path d="M-182.6870 -72.5424
L-182.7585 -72.6139
" />
<path d="M-182.7585 -72.6139
L-182.7585 -72.4710
" />
<path d="M-181.8299 -71.1139
L-181.9727 -71.1853
" />
<path d="M-181.9727 -71.1853
L-182.0442 -71.3282
" />
<path d="M-182.0442 -71.3282
L-182.0442 -72.6139
" />
<path d="M-180.6870 -71.1853
L-180.8299 -71.1139
" />
<path d="M-180.8299 -71.1139
L-181.1156 -71.1139
" />
<path d="M-181.1156 -71.1139
L-181.2585 -71.1853
" />
<path d="M-181.2585 -71.1853
L-181.3299 -71.3282
" />
<path d="M-181.3299 -71.3282
L-181.3299 -71.8996
" />
<path d="M-181.3299 -71.8996
L-181.2585 -72.0424
" />
<path d="M-181.2585 -72.0424
L-181.1156 -72.1139
" />
<path d="M-181.1156 -72.1139
L-180.8299 -72.1139
" />
<path d="M-180.8299 -72.1139
L-180.6870 -72.0424
" />
<path d="M-180.6870 -72.0424
L-180.6156 -71.8996
" />
<path d="M-180.6156 -71.8996
L-180.6156 -71.7567
" />
<path d="M-180.6156 -71.7567
L-181.3299 -71.6139
" />
<path d="M-179.9727 -71.2567
L-179.9013 -71.1853
" />
<path d="M-179.9013 -71.1853
L-179.9727 -71.1139
" />
<path d="M-179.9727 -71.1139
L-180.0442 -71.1853
" />
<path d="M-180.0442 -71.1853
L-179.9727 -71.2567
" />
<path d="M-179.9727 -71.2567
L-179.9727 -71.1139
" />
<path d="M-179.9727 -72.0424
L-179.9013 -71.9710
" />
<path d="M-179.9013 -71.9710
L-179.9727 -71.8996
" />
<path d="M-179.9727 -71.8996
L-180.0442 -71.9710
" />
<path d="M-180.0442 -71.9710
L-179.9727 -72.0424
" />
<path d="M-179.9727 -72.0424
L-179.9727 -71.8996
" />
<path d="M-178.1156 -71.1139
L-178.1156 -72.6139
" />
<path d="M-178.1156 -72.6139
L-177.7585 -72.6139
" />
<path d="M-177.7585 -72.6139
L-177.5442 -72.5424
" />
<path d="M-177.5442 -72.5424
L-177.4013 -72.3996
" />
<path d="M-177.4013 -72.3996
L-177.3299 -72.2567
" />
<path d="M-177.3299 -72.2567
L-177.2585 -71.9710
" />
<path d="M-177.2585 -71.9710
L-177.2585 -71.7567
" />
<path d="M-177.2585 -71.7567
L-177.3299 -71.4710
" />
<path d="M-177.3299 -71.4710
L-177.4013 -71.3282
" />
<path d="M-177.4013 -71.3282
L-177.5442 -71.1853
" />
<path d="M-177.5442 -71.1853
L-177.7585 -71.1139
" />
<path d="M-177.7585 -71.1139
L-178.1156 -71.1139
" />
<path d="M-176.6156 -71.1139
L-176.6156 -72.1139
" />
<path d="M-176.6156 -71.8282
L-176.5442 -71.9710
" />
<path d="M-176.5442 -71.9710
L-176.4727 -72.0424
" />
<path d="M-176.4727 -72.0424
L-176.3299 -72.1139
" />
<path d="M-176.3299 -72.1139
L-176.1870 -72.1139
" />
<path d="M-175.4727 -71.1139
L-175.6156 -71.1853
" />
<path d="M-175.6156 -71.1853
L-175.6870 -71.2567
" />
<path d="M-175.6870 -71.2567
L-175.7585 -71.3996
" />
<path d="M-175.7585 -71.3996
L-175.7585 -71.8282
" />
<path d="M-175.7585 -71.8282
L-175.6870 -71.9710
" />
<path d="M-175.6870 -71.9710
L-175.6156 -72.0424
" />
<path d="M-175.6156 -72.0424
L-175.4727 -72.1139
" />
<path d="M-175.4727 -72.1139
L-175.2585 -72.1139
" />
<path d="M-175.2585 -72.1139
L-175.1156 -72.0424
" />
<path d="M-175.1156 -72.0424
L-175.0442 -71.9710
" />
<path d="M-175.0442 -71.9710
L-174.9727 -71.8282
" />
<path d="M-174.9727 -71.8282
L-174.9727 -71.3996
" />
<path d="M-174.9727 -71.3996
L-175.0442 -71.2567
" />
<path d="M-175.0442 -71.2567
L-175.1156 -71.1853
" />
<path d="M-175.1156 -71.1853
L-175.2585 -71.1139
" />
<path d="M-175.2585 -71.1139
L-175.4727 -71.1139
" />
<path d="M-174.3299 -72.1139
L-174.3299 -71.1139
" />
<path d="M-174.3299 -71.9710
L-174.2585 -72.0424
" />
<path d="M-174.2585 -72.0424
L-174.1156 -72.1139
" />
<path d="M-174.1156 -72.1139
L-173.9013 -72.1139
" />
<path d="M-173.9013 -72.1139
L-173.7585 -72.0424
" />
<path d="M-173.7585 -72.0424
L-173.6870 -71.8996
" />
<path d="M-173.6870 -71.8996
L-173.6870 -71.1139
" />
<path d="M-172.4013 -71.1853
L-172.5442 -71.1139
" />
<path d="M-172.5442 -71.1139
L-172.8299 -71.1139
" />
<path d="M-172.8299 -71.1139
L-172.9727 -71.1853
" />
<path d="M-172.9727 -71.1853
L-173.0442 -71.3282
" />
<path d="M-173.0442 -71.3282
L-173.0442 -71.8996
" />
<path d="M-173.0442 -71.8996
L-172.9727 -72.0424
" />
<path d="M-172.9727 -72.0424
L-172.8299 -72.1139
" />
<path d="M-172.8299 -72.1139
L-172.5442 -72.1139
" />
<path d="M-172.5442 -72.1139
L-172.4013 -72.0424
" />
<path d="M-172.4013 -72.0424
L-172.3299 -71.8996
" />
<path d="M-172.3299 -71.8996
L-172.3299 -71.7567
" />
<path d="M-172.3299 -71.7567
L-173.0442 -71.6139
" />
<path d="M-170.5442 -71.1139
L-170.5442 -72.6139
" />
<path d="M-170.5442 -72.6139
L-169.9727 -72.6139
" />
<path d="M-169.9727 -72.6139
L-169.8299 -72.5424
" />
<path d="M-169.8299 -72.5424
L-169.7585 -72.4710
" />
<path d="M-169.7585 -72.4710
L-169.6870 -72.3282
" />
<path d="M-169.6870 -72.3282
L-169.6870 -72.1139
" />
<path d="M-169.6870 -72.1139
L-169.7585 -71.9710
" />
<path d="M-169.7585 -71.9710
L-169.8299 -71.8996
" />
<path d="M-169.8299 -71.8996
L-169.9727 -71.8282
" />
<path d="M-169.9727 -71.8282
L-170.5442 -71.8282
" />
<path d="M-168.1870 -71.2567
L-168.2585 -71.1853
" />
<path d="M-168.2585 -71.1853
L-168.4727 -71.1139
" />
<path d="M-168.4727 -71.1139
L-168.6156 -71.1139
" />
<path d="M-168.6156 -71.1139
L-168.8299 -71.1853
" />
<path d="M-168.8299 -71.1853
L-168.9727 -71.3282
" />
<path d="M-168.9727 -71.3282
L-169.0442 -71.4710
" />
<path d="M-169.0442 -71.4710
L-169.1156 -71.7567
" />
<path d="M-169.1156 -71.7567
L-169.1156 -71.9710
" />
<path d="M-169.1156 -71.9710
L-169.0442 -72.2567
" />
<path d="M-169.0442 -72.2567
L-168.9727 -72.3996
" />
<path d="M-168.9727 -72.3996
L-168.8299 -72.5424
" />
<path d="M-168.8299 -72.5424
L-168.6156 -72.6139
" />
<path d="M-168.6156 -72.6139
L-168.4727 -72.6139
" />
<path d="M-168.4727 -72.6139
L-168.2585 -72.5424
" />
<path d="M-168.2585 -72.5424
L-168.1870 -72.4710
" />
<path d="M-167.0442 -71.8996
L-166.8299 -71.8282
" />
<path d="M-166.8299 -71.8282
L-166.7585 -71.7567
" />
<path d="M-166.7585 -71.7567
L-166.6870 -71.6139
" />
<path d="M-166.6870 -71.6139
L-166.6870 -71.3996
" />
<path d="M-166.6870 -71.3996
L-166.7585 -71.2567
" />
<path d="M-166.7585 -71.2567
L-166.8299 -71.1853
" />
<path d="M-166.8299 -71.1853
L-166.9727 -71.1139
" />
<path d="M-166.9727 -71.1139
L-167.5442 -71.1139
" />
<path d="M-167.5442 -71.1139
L-167.5442 -72.6139
" />
<path d="M-167.5442 -72.6139
L-167.0442 -72.6139
" />
<path d="M-167.0442 -72.6139
L-166.9013 -72.5424
" />
<path d="M-166.9013 -72.5424
L-166.8299 -72.4710
" />
<path d="M-166.8299 -72.4710
L-166.7585 -72.3282
" />
<path d="M-166.7585 -72.3282
L-166.7585 -72.1853
" />
<path d="M-166.7585 -72.1853
L-166.8299 -72.0424
" />
<path d="M-166.8299 -72.0424
L-166.9013 -71.9710
" />
<path d="M-166.9013 -71.9710
L-167.0442 -71.8996
" />
<path d="M-167.0442 -71.8996
L-167.5442 -71.8996
" />
<path d="M-166.0442 -71.2567
L-165.9727 -71.1853
" />
<path d="M-165.9727 -71.1853
L-166.0442 -71.1139
" />
<path d="M-166.0442 -71.1139
L-166.1156 -71.1853
" />
<path d="M-166.1156 -71.1853
L-166.0442 -71.2567
" />
<path d="M-166.0442 -71.2567
L-166.0442 -71.1139
" />
<path d="M-165.3299 -71.1139
L-165.3299 -72.6139
" />
<path d="M-165.1870 -71.6853
L-164.7585 -71.1139
" />
<path d="M-164.7585 -72.1139
L-165.3299 -71.5424
" />
<path d="M-164.1156 -71.1139
L-164.1156 -72.1139
" />
<path d="M-164.1156 -72.6139
L-164.1870 -72.5424
" />
<path d="M-164.1870 -72.5424
L-164.1156 -72.4710
" />
<path d="M-164.1156 -72.4710
L-164.0442 -72.5424
" />
<path d="M-164.0442 -72.5424
L-164.1156 -72.6139
" />
<path d="M-164.1156 -72.6139
L-164.1156 -72.4710
" />
<path d="M-162.7585 -71.1853
L-162.9013 -71.1139
" />
<path d="M-162.9013 -71.1139
L-163.1870 -71.1139
" />
<path d="M-163.1870 -71.1139
L-163.3299 -71.1853
" />
<path d="M-163.3299 -71.1853
L-163.4013 -71.2567
" />
<path d="M-163.4013 -71.2567
L-163.4727 -71.3996
" />
<path d="M-163.4727 -71.3996
L-163.4727 -71.8282
" />
<path d="M-163.4727 -71.8282
L-163.4013 -71.9710
" />
<path d="M-163.4013 -71.9710
L-163.3299 -72.0424
" />
<path d="M-163.3299 -72.0424
L-163.1870 -72.1139
" />
<path d="M-163.1870 -72.1139
L-162.9013 -72.1139
" />
<path d="M-162.9013 -72.1139
L-162.7585 -72.0424
" />
<path d="M-161.4727 -71.1139
L-161.4727 -71.8996
" />
<path d="M-161.4727 -71.8996
L-161.5442 -72.0424
" />
<path d="M-161.5442 -72.0424
L-161.6870 -72.1139
" />
<path d="M-161.6870 -72.1139
L-161.9727 -72.1139
" />
<path d="M-161.9727 -72.1139
L-162.1156 -72.0424
" />
<path d="M-161.4727 -71.1853
L-161.6156 -71.1139
" />
<path d="M-161.6156 -71.1139
L-161.9727 -71.1139
" />
<path d="M-161.9727 -71.1139
L-162.1156 -71.1853
" />
<path d="M-162.1156 -71.1853
L-162.1870 -71.3282
" />
<path d="M-162.1870 -71.3282
L-162.1870 -71.4710
" />
<path d="M-162.1870 -71.4710
L-162.1156 -71.6139
" />
<path d="M-162.1156 -71.6139
L-161.9727 -71.6853
" />
<path d="M-161.9727 -71.6853
L-161.6156 -71.6853
" />
<path d="M-161.6156 -71.6853
L-161.4727 -71.7567
" />
<path d="M-160.1156 -71.1139
L-160.1156 -72.6139
" />
<path d="M-160.1156 -71.1853
L-160.2585 -71.1139
" />
<path d="M-160.2585 -71.1139
L-160.5442 -71.1139
" />
<path d="M-160.5442 -71.1139
L-160.6870 -71.1853
" />
<path d="M-160.6870 -71.1853
L-160.7585 -71.2567
" />
<path d="M-160.7585 -71.2567
L-160.8299 -71.3996
" />
<path d="M-160.8299 -71.3996
L-160.8299 -71.8282
" />
<path d="M-160.8299 -71.8282
L-160.7585 -71.9710
" />
<path d="M-160.7585 -71.9710
L-160.6870 -72.0424
" />
<path d="M-160.6870 -72.0424
L-160.5442 -72.1139
" />
<path d="M-160.5442 -72.1139
L-160.2585 -72.1139
" />
<path d="M-160.2585 -72.1139
L-160.1156 -72.0424
" />
<path d="M-159.7585 -70.9710
L-158.6156 -70.9710
" />
<path d="M-158.2585 -72.1139
L-158.2585 -70.6139
" />
<path d="M-158.2585 -72.0424
L-158.1156 -72.1139
" />
<path d="M-158.1156 -72.1139
L-157.8299 -72.1139
" />
<path d="M-157.8299 -72.1139
L-157.6870 -72.0424
" />
<path d="M-157.6870 -72.0424
L-157.6156 -71.9710
" />
<path d="M-157.6156 -71.9710
L-157.5442 -71.8282
" />
<path d="M-157.5442 -71.8282
L-157.5442 -71.3996
" />
<path d="M-157.5442 -71.3996
L-157.6156 -71.2567
" />
<path d="M-157.6156 -71.2567
L-157.6870 -71.1853
" />
<path d="M-157.6870 -71.1853
L-157.8299 -71.1139
" />
<path d="M-157.8299 -71.1139
L-158.1156 -71.1139
" />
<path d="M-158.1156 -71.1139
L-158.2585 -71.1853
" />
<path d="M-156.2585 -71.1853
L-156.4013 -71.1139
" />
<path d="M-156.4013 -71.1139
L-156.6870 -71.1139
" />
<path d="M-156.6870 -71.1139
L-156.8299 -71.1853
" />
<path d="M-156.8299 -71.1853
L-156.9013 -71.2567
" />
<path d="M-156.9013 -71.2567
L-156.9727 -71.3996
" />
<path d="M-156.9727 -71.3996
L-156.9727 -71.8282
" />
<path d="M-156.9727 -71.8282
L-156.9013 -71.9710
" />
<path d="M-156.9013 -71.9710
L-156.8299 -72.0424
" />
<path d="M-156.8299 -72.0424
L-156.6870 -72.1139
" />
<path d="M-156.6870 -72.1139
L-156.4013 -72.1139
" />
<path d="M-156.4013 -72.1139
L-156.2585 -72.0424
" />
<path d="M-155.6156 -71.1139
L-155.6156 -72.6139
" />
<path d="M-155.6156 -72.0424
L-155.4727 -72.1139
" />
<path d="M-155.4727 -72.1139
L-155.1870 -72.1139
" />
<path d="M-155.1870 -72.1139
L-155.0442 -72.0424
" />
<path d="M-155.0442 -72.0424
L-154.9727 -71.9710
" />
<path d="M-154.9727 -71.9710
L-154.9013 -71.8282
" />
<path d="M-154.9013 -71.8282
L-154.9013 -71.3996
" />
<path d="M-154.9013 -71.3996
L-154.9727 -71.2567
" />
<path d="M-154.9727 -71.2567
L-155.0442 -71.1853
" />
<path d="M-155.0442 -71.1853
L-155.1870 -71.1139
" />
<path d="M-155.1870 -71.1139
L-155.4727 -71.1139
" />
<path d="M-155.4727 -71.1139
L-155.6156 -71.1853
" />
</g><path d="M-185.5000 -76.0000
L-77.5000 -76.0000
" />
<text x="-184.5000" y="-73.7500"
textLength="8.2214" font-size="2.0000" lengthAdjust="spacingAndGlyphs"
text-anchor="start" opacity="0" stroke-opacity="0">Sheet: </text>
<g class="stroked-text"><desc>Sheet: </desc>
<path d="M-184.1156 -73.8853
L-183.9013 -73.8139
" />
<path d="M-183.9013 -73.8139
L-183.5442 -73.8139
" />
<path d="M-183.5442 -73.8139
L-183.4013 -73.8853
" />
<path d="M-183.4013 -73.8853
L-183.3299 -73.9567
" />
<path d="M-183.3299 -73.9567
L-183.2585 -74.0996
" />
<path d="M-183.2585 -74.0996
L-183.2585 -74.2424
" />
<path d="M-183.2585 -74.2424
L-183.3299 -74.3853
" />
<path d="M-183.3299 -74.3853
L-183.4013 -74.4567
" />
<path d="M-183.4013 -74.4567
L-183.5442 -74.5282
" />
<path d="M-183.5442 -74.5282
L-183.8299 -74.5996
" />
<path d="M-183.8299 -74.5996
L-183.9727 -74.6710
" />
<path d="M-183.9727 -74.6710
L-184.0442 -74.7424
" />
<path d="M-184.0442 -74.7424
L-184.1156 -74.8853
" />
<path d="M-184.1156 -74.8853
L-184.1156 -75.0282
" />
<path d="M-184.1156 -75.0282
L-184.0442 -75.1710
" />
<path d="M-184.0442 -75.1710
L-183.9727 -75.2424
" />
<path d="M-183.9727 -75.2424
L-183.8299 -75.3139
" />
<path d="M-183.8299 -75.3139
L-183.4727 -75.3139
" />
<path d="M-183.4727 -75.3139
L-183.2585 -75.2424
" />
<path d="M-182.6156 -73.8139
L-182.6156 -75.3139
" />
<path d="M-181.9727 -73.8139
L-181.9727 -74.5996
" />
<path d="M-181.9727 -74.5996
L-182.0442 -74.7424
" />
<path d="M-182.0442 -74.7424
L-182.1870 -74.8139
" />
<path d="M-182.1870 -74.8139
L-182.4013 -74.8139
" />
<path d="M-182.4013 -74.8139
L-182.5442 -74.7424
" />
<path d="M-182.5442 -74.7424
L-182.6156 -74.6710
" />
<path d="M-180.6870 -73.8853
L-180.8299 -73.8139
" />
<path d="M-180.8299 -73.8139
L-181.1156 -73.8139
" />
<path d="M-181.1156 -73.8139
L-181.2585 -73.8853
" />
<path d="M-181.2585 -73.8853
L-181.3299 -74.0282
" />
<path d="M-181.3299 -74.0282
L-181.3299 -74.5996
" />
<path d="M-181.3299 -74.5996
L-181.2585 -74.7424
" />
<path d="M-181.2585 -74.7424
L-181.1156 -74.8139
" />
<path d="M-181.1156 -74.8139
L-180.8299 -74.8139
" />
<path d="M-180.8299 -74.8139
L-180.6870 -74.7424
" />
<path d="M-180.6870 -74.7424
L-180.6156 -74.5996
" />
<path d="M-180.6156 -74.5996
L-180.6156 -74.4567
" />
<path d="M-180.6156 -74.4567
L-181.3299 -74.3139
" />
<path d="M-179.4013 -73.8853
L-179.5442 -73.8139
" />
<path d="M-179.5442 -73.8139
L-179.8299 -73.8139
" />
<path d="M-179.8299 -73.8139
L-179.9727 -73.8853
" />
<path d="M-179.9727 -73.8853
L-180.0442 -74.0282
" />
<path d="M-180.0442 -74.0282
L-180.0442 -74.5996
" />
<path d="M-180.0442 -74.5996
L-179.9727 -74.7424
" />
<path d="M-179.9727 -74.7424
L-179.8299 -74.8139
" />
<path d="M-179.8299 -74.8139
L-179.5442 -74.8139
" />
<path d="M-179.5442 -74.8139
L-179.4013 -74.7424
" />
<path d="M-179.4013 -74.7424
L-179.3299 -74.5996
" />
<path d="M-179.3299 -74.5996
L-179.3299 -74.4567
" />
<path d="M-179.3299 -74.4567
L-180.0442 -74.3139
" />
<path d="M-178.9013 -74.8139
L-178.3299 -74.8139
" />
<path d="M-178.6870 -75.3139
L-178.6870 -74.0282
" />
<path d="M-178.6870 -74.0282
L-178.6156 -73.8853
" />
<path d="M-178.6156 -73.8853
L-178.4727 -73.8139
" />
<path d="M-178.4727 -73.8139
L-178.3299 -73.8139
" />
<path d="M-177.8299 -73.9567
L-177.7585 -73.8853
" />
<path d="M-177.7585 -73.8853
L-177.8299 -73.8139
" />
<path d="M-177.8299 -73.8139
L-177.9013 -73.8853
" />
<path d="M-177.9013 -73.8853
L-177.8299 -73.9567
" />
<path d="M-177.8299 -73.9567
L-177.8299 -73.8139
" />
<path d="M-177.8299 -74.7424
L-177.7585 -74.6710
" />
<path d="M-177.7585 -74.6710
L-177.8299 -74.5996
" />
<path d="M-177.8299 -74.5996
L-177.9013 -74.6710
" />
<path d="M-177.9013 -74.6710
L-177.8299 -74.7424
" />
<path d="M-177.8299 -74.7424
L-177.8299 -74.5996
" />
</g></g>
<g style="fill:none;
stroke:#C872AB; stroke-width:0.3000; stroke-opacity:1;
stroke-linecap:round; stroke-linejoin:round;">
<text x="-184.5000" y="-76.7500"
textLength="0.9000" font-size="2.0000" lengthAdjust="spacingAndGlyphs"
text-anchor="start" opacity="0" stroke-opacity="0"></text>
<g class="stroked-text"><desc></desc>
</g></g>
<g style="fill:none;
stroke:#C872AB; stroke-width:0.1500; stroke-opacity:1;
stroke-linecap:round; stroke-linejoin:round;">
<text x="-184.5000" y="-79.7500"
textLength="0.4500" font-size="2.0000" lengthAdjust="spacingAndGlyphs"
text-anchor="start" opacity="0" stroke-opacity="0"></text>
<g class="stroked-text"><desc></desc>
</g><text x="-184.5000" y="-82.7500"
textLength="0.4500" font-size="2.0000" lengthAdjust="spacingAndGlyphs"
text-anchor="start" opacity="0" stroke-opacity="0"></text>
<g class="stroked-text"><desc></desc>
</g><text x="-184.5000" y="-85.7500"
textLength="0.4500" font-size="2.0000" lengthAdjust="spacingAndGlyphs"
text-anchor="start" opacity="0" stroke-opacity="0"></text>
<g class="stroked-text"><desc></desc>
</g><text x="-184.5000" y="-88.7500"
textLength="0.4500" font-size="2.0000" lengthAdjust="spacingAndGlyphs"
text-anchor="start" opacity="0" stroke-opacity="0"></text>
<g class="stroked-text"><desc></desc>
</g><path d="M-165.5000 -66.0000
L-165.5000 -63.0000
" />
<path d="M-101.5000 -66.0000
L-101.5000 -59.5000
" />
<path style="fill:#C83434; fill-opacity:1.0000; stroke:none;fill-rule:evenodd;"
d="M 16.6500,13.9500
16.6500,13.0500
17.5500,13.0500
17.5500,13.9500
Z" />
<path style="fill:#C83434; fill-opacity:1.0000; stroke:none;fill-rule:evenodd;"
d="M 7.6000,6.4000
7.6000,5.4000
8.6000,5.4000
8.6000,6.4000
Z" />
<path style="fill:#C83434; fill-opacity:1.0000; stroke:none;fill-rule:evenodd;"
d="M 6.7500,13.9500
6.7500,13.0500
7.6500,13.0500
7.6500,13.9500
Z" />
<path style="fill:#C83434; fill-opacity:1.0000; stroke:none;fill-rule:evenodd;"
d="M 4.8000,4.7000
4.8000,3.7000
5.8000,3.7000
5.8000,4.7000
Z" />
<path style="fill:#C83434; fill-opacity:1.0000; stroke:none;fill-rule:evenodd;"
d="M 7.6000,29.6000
7.6000,28.6000
8.6000,28.6000
8.6000,29.6000
Z" />
<path style="fill:#C83434; fill-opacity:1.0000; stroke:none;fill-rule:evenodd;"
d="M 7.8250,20.4000
7.8364,20.3426
7.8689,20.2939
7.9176,20.2614
7.9750,20.2500
9.1500,20.2500
9.2074,20.2614
9.2561,20.2939
9.2886,20.3426
9.3000,20.4000
9.3000,20.7000
9.2886,20.7574
9.2561,20.8061
9.2074,20.8386
9.1500,20.8500
7.9750,20.8500
7.9176,20.8386
7.8689,20.8061
7.8364,20.7574
7.8250,20.7000
Z" />
<path style="fill:#C83434; fill-opacity:1.0000; stroke:none;fill-rule:evenodd;"
d="M 7.8250,22.3000
7.8364,22.2426
7.8689,22.1939
7.9176,22.1614
7.9750,22.1500
9.1500,22.1500
9.2074,22.1614
9.2561,22.1939
9.2886,22.2426
9.3000,22.3000
9.3000,22.6000
9.2886,22.6574
9.2561,22.7061
9.2074,22.7386
9.1500,22.7500
7.9750,22.7500
7.9176,22.7386
7.8689,22.7061
7.8364,22.6574
7.8250,22.6000
Z" />
<path style="fill:#C83434; fill-opacity:1.0000; stroke:none;fill-rule:evenodd;"
d="M 9.7000,21.3500
9.7114,21.2926
9.7439,21.2439
9.7926,21.2114
9.8500,21.2000
11.0250,21.2000
11.0824,21.2114
11.1311,21.2439
11.1636,21.2926
11.1750,21.3500
11.1750,21.6500
11.1636,21.7074
11.1311,21.7561
11.0824,21.7886
11.0250,21.8000
9.8500,21.8000
9.7926,21.7886
9.7439,21.7561
9.7114,21.7074
9.7000,21.6500
Z" />
<path style="fill:#C83434; fill-opacity:1.0000; stroke:none;fill-rule:evenodd;"
d="M 14.4000,29.6000
14.4000,28.6000
15.4000,28.6000
15.4000,29.6000
Z" />
<path style="fill:#C83434; fill-opacity:1.0000; stroke:none;fill-rule:evenodd;"
d="M 16.7000,4.7000
16.7000,3.7000
17.7000,3.7000
17.7000,4.7000
Z" />
<path style="fill:#C83434; fill-opacity:1.0000; stroke:none;fill-rule:evenodd;"
d="M 16.6500,21.9500
16.6500,21.0500
17.5500,21.0500
17.5500,21.9500
Z" />
<path style="fill:#C83434; fill-opacity:1.0000; stroke:none;fill-rule:evenodd;"
d="M 7.8250,12.4000
7.8364,12.3426
7.8689,12.2939
7.9176,12.2614
7.9750,12.2500
9.1500,12.2500
9.2074,12.2614
9.2561,12.2939
9.2886,12.3426
9.3000,12.4000
9.3000,12.7000
9.2886,12.7574
9.2561,12.8061
9.2074,12.8386
9.1500,12.8500
7.9750,12.8500
7.9176,12.8386
7.8689,12.8061
7.8364,12.7574
7.8250,12.7000
Z" />
<path style="fill:#C83434; fill-opacity:1.0000; stroke:none;fill-rule:evenodd;"
d="M 7.8250,14.3000
7.8364,14.2426
7.8689,14.1939
7.9176,14.1614
7.9750,14.1500
9.1500,14.1500
9.2074,14.1614
9.2561,14.1939
9.2886,14.2426
9.3000,14.3000
9.3000,14.6000
9.2886,14.6574
9.2561,14.7061
9.2074,14.7386
9.1500,14.7500
7.9750,14.7500
7.9176,14.7386
7.8689,14.7061
7.8364,14.6574
7.8250,14.6000
Z" />
<path style="fill:#C83434; fill-opacity:1.0000; stroke:none;fill-rule:evenodd;"
d="M 9.7000,13.3500
9.7114,13.2926
9.7439,13.2439
9.7926,13.2114
9.8500,13.2000
11.0250,13.2000
11.0824,13.2114
11.1311,13.2439
11.1636,13.2926
11.1750,13.3500
11.1750,13.6500
11.1636,13.7074
11.1311,13.7561
11.0824,13.7886
11.0250,13.8000
9.8500,13.8000
9.7926,13.7886
9.7439,13.7561
9.7114,13.7074
9.7000,13.6500
Z" />
<path style="fill:#C83434; fill-opacity:1.0000; stroke:none;fill-rule:evenodd;"
d="M 17.0000,7.0000
17.0000,6.0000
18.0000,6.0000
18.0000,7.0000
Z" />
<path style="fill:#C83434; fill-opacity:1.0000; stroke:none;fill-rule:evenodd;"
d="M 14.4000,6.4000
14.4000,5.4000
15.4000,5.4000
15.4000,6.4000
Z" />
<path style="fill:#C83434; fill-opacity:1.0000; stroke:none;fill-rule:evenodd;"
d="M 15.1750,22.6000
15.1636,22.6574
15.1311,22.7061
15.0824,22.7386
15.0250,22.7500
13.8500,22.7500
13.7926,22.7386
13.7439,22.7061
13.7114,22.6574
13.7000,22.6000
13.7000,22.3000
13.7114,22.2426
13.7439,22.1939
13.7926,22.1614
13.8500,22.1500
15.0250,22.1500
15.0824,22.1614
15.1311,22.1939
15.1636,22.2426
15.1750,22.3000
Z" />
<path style="fill:#C83434; fill-opacity:1.0000; stroke:none;fill-rule:evenodd;"
d="M 15.1750,20.7000
15.1636,20.7574
15.1311,20.8061
15.0824,20.8386
15.0250,20.8500
13.8500,20.8500
13.7926,20.8386
13.7439,20.8061
13.7114,20.7574
13.7000,20.7000
13.7000,20.4000
13.7114,20.3426
13.7439,20.2939
13.7926,20.2614
13.8500,20.2500
15.0250,20.2500
15.0824,20.2614
15.1311,20.2939
15.1636,20.3426
15.1750,20.4000
Z" />
<path style="fill:#C83434; fill-opacity:1.0000; stroke:none;fill-rule:evenodd;"
d="M 13.3000,21.6500
13.2886,21.7074
13.2561,21.7561
13.2074,21.7886
13.1500,21.8000
11.9750,21.8000
11.9176,21.7886
11.8689,21.7561
11.8364,21.7074
11.8250,21.6500
11.8250,21.3500
11.8364,21.2926
11.8689,21.2439
11.9176,21.2114
11.9750,21.2000
13.1500,21.2000
13.2074,21.2114
13.2561,21.2439
13.2886,21.2926
13.3000,21.3500
Z" />
<path style="fill:#C83434; fill-opacity:1.0000; stroke:none;fill-rule:evenodd;"
d="M 15.3500,21.9500
15.3500,21.0500
16.2500,21.0500
16.2500,21.9500
Z" />
<path style="fill:#C83434; fill-opacity:1.0000; stroke:none;fill-rule:evenodd;"
d="M 5.4500,13.9500
5.4500,13.0500
6.3500,13.0500
6.3500,13.9500
Z" />
<path style="fill:#C83434; fill-opacity:1.0000; stroke:none;fill-rule:evenodd;"
d="M 8.0000,33.9000
8.0000,32.7000
10.0000,32.7000
10.0000,33.9000
Z" />
<path style="fill:#C83434; fill-opacity:1.0000; stroke:none;fill-rule:evenodd;"
d="M 5.4500,21.9500
5.4500,21.0500
6.3500,21.0500
6.3500,21.9500
Z" />
<path style="fill:#C83434; fill-opacity:1.0000; stroke:none;fill-rule:evenodd;"
d="M 15.3500,13.9500
15.3500,13.0500
16.2500,13.0500
16.2500,13.9500
Z" />
<path style="fill:#C83434; fill-opacity:1.0000; stroke:none;fill-rule:evenodd;"
d="M 6.7500,21.9500
6.7500,21.0500
7.6500,21.0500
7.6500,21.9500
Z" />
<path style="fill:#C83434; fill-opacity:1.0000; stroke:none;fill-rule:evenodd;"
d="M 15.1750,14.6000
15.1636,14.6574
15.1311,14.7061
15.0824,14.7386
15.0250,14.7500
13.8500,14.7500
13.7926,14.7386
13.7439,14.7061
13.7114,14.6574
13.7000,14.6000
13.7000,14.3000
13.7114,14.2426
13.7439,14.1939
13.7926,14.1614
13.8500,14.1500
15.0250,14.1500
15.0824,14.1614
15.1311,14.1939
15.1636,14.2426
15.1750,14.3000
Z" />
<path style="fill:#C83434; fill-opacity:1.0000; stroke:none;fill-rule:evenodd;"
d="M 15.1750,12.7000
15.1636,12.7574
15.1311,12.8061
15.0824,12.8386
15.0250,12.8500
13.8500,12.8500
13.7926,12.8386
13.7439,12.8061
13.7114,12.7574
13.7000,12.7000
13.7000,12.4000
13.7114,12.3426
13.7439,12.2939
13.7926,12.2614
13.8500,12.2500
15.0250,12.2500
15.0824,12.2614
15.1311,12.2939
15.1636,12.3426
15.1750,12.4000
Z" />
<path style="fill:#C83434; fill-opacity:1.0000; stroke:none;fill-rule:evenodd;"
d="M 13.3000,13.6500
13.2886,13.7074
13.2561,13.7561
13.2074,13.7886
13.1500,13.8000
11.9750,13.8000
11.9176,13.7886
11.8689,13.7561
11.8364,13.7074
11.8250,13.6500
11.8250,13.3500
11.8364,13.2926
11.8689,13.2439
11.9176,13.2114
11.9750,13.2000
13.1500,13.2000
13.2074,13.2114
13.2561,13.2439
13.2886,13.2926
13.3000,13.3500
Z" />
<path style="fill:#C83434; fill-opacity:1.0000; stroke:none;fill-rule:evenodd;"
d="M 5.0000,7.0000
5.0000,6.0000
6.0000,6.0000
6.0000,7.0000
Z" />
<path style="fill:#C83434; fill-opacity:1.0000; stroke:none;fill-rule:evenodd;"
d="M 13.0000,33.9000
13.0000,32.7000
15.0000,32.7000
15.0000,33.9000
Z" />
</g>
<g style="fill:#C83434; fill-opacity:1.0000; stroke:none;">
<circle cx="9.0000" cy="32.5000" r="0.3250" />
<circle cx="17.1000" cy="32.5000" r="0.3250" />
<circle cx="14.9000" cy="15.0000" r="0.3250" />
<circle cx="14.9000" cy="7.0000" r="0.3250" />
<circle cx="8.1000" cy="20.0000" r="0.3250" />
<circle cx="8.1000" cy="28.0000" r="0.3250" />
</g>
<g style="fill:none;
stroke:#C83434; stroke-width:0.3500; stroke-opacity:1;
stroke-linecap:round; stroke-linejoin:round;">
<path d="M9.0000 32.5000
L5.9000 32.5000
" />
<path d="M5.9000 32.5000
L5.9000 13.5000
" />
</g>
<g style="fill:#C83434; fill-opacity:1.0000; stroke:none;">
<circle cx="5.9000" cy="13.5000" r="0.1750" />
<circle cx="17.1000" cy="13.5000" r="0.1750" />
</g>
<g style="fill:none;
stroke:#C83434; stroke-width:0.3500; stroke-opacity:1;
stroke-linecap:round; stroke-linejoin:round;">
<path d="M9.0000 33.3000
L9.0000 32.5000
" />
</g>
<g style="fill:#C83434; fill-opacity:1.0000; stroke:none;">
<circle cx="5.9000" cy="21.5000" r="0.1750" />
<circle cx="17.1000" cy="21.5000" r="0.1750" />
</g>
<g style="fill:none;
stroke:#C83434; stroke-width:0.3500; stroke-opacity:1;
stroke-linecap:round; stroke-linejoin:round;">
<path d="M17.1000 32.5000
L17.1000 13.5000
" />
</g>
<g style="fill:#C83434; fill-opacity:1.0000; stroke:none;">
<circle cx="14.0000" cy="33.3000" r="0.1000" />
</g>
<g style="fill:none;
stroke:#C83434; stroke-width:0.2000; stroke-opacity:1;
stroke-linecap:round; stroke-linejoin:round;">
<path d="M8.5625 14.4500
L11.5000 14.4500
" />
<path d="M14.4375 20.5500
L11.5000 20.5500
" />
<path d="M8.5625 22.4500
L11.5000 22.4500
" />
<path d="M17.2000 4.2000
L11.5000 4.2000
" />
<path d="M14.4375 12.5500
L11.5000 12.5500
" />
<path d="M11.5000 33.3000
L14.0000 33.3000
" />
<path d="M11.5000 4.2000
L11.5000 33.3000
" />
<path d="M8.1000 12.5500
L8.5625 12.5500
" />
<path d="M8.1000 5.9000
L8.1000 12.5500
" />
<path d="M14.9000 5.9000
L14.9000 7.0000
" />
<path d="M14.9000 15.0000
L14.4375 14.4500
" />
<path d="M14.9000 22.4500
L14.4375 22.4500
" />
<path d="M14.9000 29.1000
L14.9000 22.4500
" />
<path d="M8.1000 29.1000
L8.1000 28.0000
" />
<path d="M8.1000 20.0000
L8.5625 20.5500
" />
</g>
<g style="fill:none;
stroke:#C83434; stroke-width:0.3000; stroke-opacity:1;
stroke-linecap:round; stroke-linejoin:round;">
<path d="M7.2000 13.5000
L10.4375 13.5000
" />
<path d="M15.8000 13.5000
L12.5625 13.5000
" />
<path d="M15.8000 21.5000
L12.5625 21.5000
" />
<path d="M7.2000 21.5000
L10.4375 21.5000
" />
</g>
<g style="fill:#4D7FC4; fill-opacity:1.0000; stroke:none;">
<circle cx="9.0000" cy="32.5000" r="0.3250" />
<circle cx="17.1000" cy="32.5000" r="0.3250" />
<circle cx="14.9000" cy="15.0000" r="0.3250" />
<circle cx="14.9000" cy="7.0000" r="0.3250" />
<circle cx="8.1000" cy="20.0000" r="0.3250" />
<circle cx="8.1000" cy="28.0000" r="0.3250" />
</g>
<g style="fill:none;
stroke:#4D7FC4; stroke-width:0.3500; stroke-opacity:1;
stroke-linecap:round; stroke-linejoin:round;">
<path d="M9.0000 32.5000
L17.1000 32.5000
" />
</g>
<g style="fill:none;
stroke:#4D7FC4; stroke-width:0.2000; stroke-opacity:1;
stroke-linecap:round; stroke-linejoin:round;">
<path d="M14.9000 7.0000
L14.9000 15.0000
" />
<path d="M8.1000 28.0000
L8.1000 20.0000
" />
</g>
<g style="fill:none;
stroke:#F2EDA1; stroke-width:0.1200; stroke-opacity:1;
stroke-linecap:round; stroke-linejoin:round;">
<text x="5.5000" y="25.2000"
textLength="1.8762" font-size="1.0667" lengthAdjust="spacingAndGlyphs"
text-anchor="middle" opacity="0" stroke-opacity="0">M4</text>
<g class="stroked-text"><desc>M4</desc>
<path d="M4.8524 25.1639
L4.8524 24.3639
" />
<path d="M4.8524 24.3639
L5.1190 24.9353
" />
<path d="M5.1190 24.9353
L5.3857 24.3639
" />
<path d="M5.3857 24.3639
L5.3857 25.1639
" />
<path d="M6.1095 24.6305
L6.1095 25.1639
" />
<path d="M5.9190 24.3258
L5.7286 24.8972
" />
<path d="M5.7286 24.8972
L6.2238 24.8972
" />
</g><text x="7.5000" y="10.5000"
textLength="1.8762" font-size="1.0667" lengthAdjust="spacingAndGlyphs"
text-anchor="middle" opacity="0" stroke-opacity="0">M1</text>
<g class="stroked-text"><desc>M1</desc>
<path d="M6.8524 10.4639
L6.8524 9.6639
" />
<path d="M6.8524 9.6639
L7.1190 10.2353
" />
<path d="M7.1190 10.2353
L7.3857 9.6639
" />
<path d="M7.3857 9.6639
L7.3857 10.4639
" />
<path d="M8.1857 10.4639
L7.7286 10.4639
" />
<path d="M7.9571 10.4639
L7.9571 9.6639
" />
<path d="M7.9571 9.6639
L7.8810 9.7781
" />
<path d="M7.8810 9.7781
L7.8048 9.8543
" />
<path d="M7.8048 9.8543
L7.7286 9.8924
" />
</g><text x="7.9000" y="31.6000"
textLength="1.9905" font-size="1.0667" lengthAdjust="spacingAndGlyphs"
text-anchor="middle" opacity="0" stroke-opacity="0">B+</text>
<g class="stroked-text"><desc>B+</desc>
<path d="M7.4619 31.1448
L7.5762 31.1829
" />
<path d="M7.5762 31.1829
L7.6143 31.2210
" />
<path d="M7.6143 31.2210
L7.6524 31.2972
" />
<path d="M7.6524 31.2972
L7.6524 31.4115
" />
<path d="M7.6524 31.4115
L7.6143 31.4877
" />
<path d="M7.6143 31.4877
L7.5762 31.5258
" />
<path d="M7.5762 31.5258
L7.5000 31.5639
" />
<path d="M7.5000 31.5639
L7.1952 31.5639
" />
<path d="M7.1952 31.5639
L7.1952 30.7639
" />
<path d="M7.1952 30.7639
L7.4619 30.7639
" />
<path d="M7.4619 30.7639
L7.5381 30.8019
" />
<path d="M7.5381 30.8019
L7.5762 30.8400
" />
<path d="M7.5762 30.8400
L7.6143 30.9162
" />
<path d="M7.6143 30.9162
L7.6143 30.9924
" />
<path d="M7.6143 30.9924
L7.5762 31.0686
" />
<path d="M7.5762 31.0686
L7.5381 31.1067
" />
<path d="M7.5381 31.1067
L7.4619 31.1448
" />
<path d="M7.4619 31.1448
L7.1952 31.1448
" />
<path d="M7.9952 31.2591
L8.6048 31.2591
" />
<path d="M8.3000 31.5639
L8.3000 30.9543
" />
</g><text x="9.3000" y="1.9000"
textLength="4.0476" font-size="1.0667" lengthAdjust="spacingAndGlyphs"
text-anchor="middle" opacity="0" stroke-opacity="0">SP350</text>
<g class="stroked-text"><desc>SP350</desc>
<path d="M7.5286 1.8258
L7.6429 1.8639
" />
<path d="M7.6429 1.8639
L7.8333 1.8639
" />
<path d="M7.8333 1.8639
L7.9095 1.8258
" />
<path d="M7.9095 1.8258
L7.9476 1.7877
" />
<path d="M7.9476 1.7877
L7.9857 1.7115
" />
<path d="M7.9857 1.7115
L7.9857 1.6353
" />
<path d="M7.9857 1.6353
L7.9476 1.5591
" />
<path d="M7.9476 1.5591
L7.9095 1.5210
" />
<path d="M7.9095 1.5210
L7.8333 1.4829
" />
<path d="M7.8333 1.4829
L7.6810 1.4448
" />
<path d="M7.6810 1.4448
L7.6048 1.4067
" />
<path d="M7.6048 1.4067
L7.5667 1.3686
" />
<path d="M7.5667 1.3686
L7.5286 1.2924
" />
<path d="M7.5286 1.2924
L7.5286 1.2162
" />
<path d="M7.5286 1.2162
L7.5667 1.1400
" />
<path d="M7.5667 1.1400
L7.6048 1.1019
" />
<path d="M7.6048 1.1019
L7.6810 1.0639
" />
<path d="M7.6810 1.0639
L7.8714 1.0639
" />
<path d="M7.8714 1.0639
L7.9857 1.1019
" />
<path d="M8.3286 1.8639
L8.3286 1.0639
" />
<path d="M8.3286 1.0639
L8.6333 1.0639
" />
<path d="M8.6333 1.0639
L8.7095 1.1019
" />
<path d="M8.7095 1.1019
L8.7476 1.1400
" />
<path d="M8.7476 1.1400
L8.7857 1.2162
" />
<path d="M8.7857 1.2162
L8.7857 1.3305
" />
<path d="M8.7857 1.3305
L8.7476 1.4067
" />
<path d="M8.7476 1.4067
L8.7095 1.4448
" />
<path d="M8.7095 1.4448
L8.6333 1.4829
" />
<path d="M8.6333 1.4829
L8.3286 1.4829
" />
<path d="M9.0524 1.0639
L9.5476 1.0639
" />
<path d="M9.5476 1.0639
L9.2810 1.3686
" />
<path d="M9.2810 1.3686
L9.3952 1.3686
" />
<path d="M9.3952 1.3686
L9.4714 1.4067
" />
<path d="M9.4714 1.4067
L9.5095 1.4448
" />
<path d="M9.5095 1.4448
L9.5476 1.5210
" />
<path d="M9.5476 1.5210
L9.5476 1.7115
" />
<path d="M9.5476 1.7115
L9.5095 1.7877
" />
<path d="M9.5095 1.7877
L9.4714 1.8258
" />
<path d="M9.4714 1.8258
L9.3952 1.8639
" />
<path d="M9.3952 1.8639
L9.1667 1.8639
" />
<path d="M9.1667 1.8639
L9.0905 1.8258
" />
<path d="M9.0905 1.8258
L9.0524 1.7877
" />
<path d="M10.2714 1.0639
L9.8905 1.0639
" />
<path d="M9.8905 1.0639
L9.8524 1.4448
" />
<path d="M9.8524 1.4448
L9.8905 1.4067
" />
<path d="M9.8905 1.4067
L9.9667 1.3686
" />
<path d="M9.9667 1.3686
L10.1571 1.3686
" />
<path d="M10.1571 1.3686
L10.2333 1.4067
" />
<path d="M10.2333 1.4067
L10.2714 1.4448
" />
<path d="M10.2714 1.4448
L10.3095 1.5210
" />
<path d="M10.3095 1.5210
L10.3095 1.7115
" />
<path d="M10.3095 1.7115
L10.2714 1.7877
" />
<path d="M10.2714 1.7877
L10.2333 1.8258
" />
<path d="M10.2333 1.8258
L10.1571 1.8639
" />
<path d="M10.1571 1.8639
L9.9667 1.8639
" />
<path d="M9.9667 1.8639
L9.8905 1.8258
" />
<path d="M9.8905 1.8258
L9.8524 1.7877
" />
<path d="M10.8048 1.0639
L10.8810 1.0639
" />
<path d="M10.8810 1.0639
L10.9571 1.1019
" />
<path d="M10.9571 1.1019
L10.9952 1.1400
" />
<path d="M10.9952 1.1400
L11.0333 1.2162
" />
<path d="M11.0333 1.2162
L11.0714 1.3686
" />
<path d="M11.0714 1.3686
L11.0714 1.5591
" />
<path d="M11.0714 1.5591
L11.0333 1.7115
" />
<path d="M11.0333 1.7115
L10.9952 1.7877
" />
<path d="M10.9952 1.7877
L10.9571 1.8258
" />
<path d="M10.9571 1.8258
L10.8810 1.8639
" />
<path d="M10.8810 1.8639
L10.8048 1.8639
" />
<path d="M10.8048 1.8639
L10.7286 1.8258
" />
<path d="M10.7286 1.8258
L10.6905 1.7877
" />
<path d="M10.6905 1.7877
L10.6524 1.7115
" />
<path d="M10.6524 1.7115
L10.6143 1.5591
" />
<path d="M10.6143 1.5591
L10.6143 1.3686
" />
<path d="M10.6143 1.3686
L10.6524 1.2162
" />
<path d="M10.6524 1.2162
L10.6905 1.1400
" />
<path d="M10.6905 1.1400
L10.7286 1.1019
" />
<path d="M10.7286 1.1019
L10.8048 1.0639
" />
</g><text x="9.5000" y="8.1000"
textLength="3.0571" font-size="1.0667" lengthAdjust="spacingAndGlyphs"
text-anchor="middle" opacity="0" stroke-opacity="0">CTRL</text>
<g class="stroked-text"><desc>CTRL</desc>
<path d="M8.7190 7.9877
L8.6810 8.0258
" />
<path d="M8.6810 8.0258
L8.5667 8.0639
" />
<path d="M8.5667 8.0639
L8.4905 8.0639
" />
<path d="M8.4905 8.0639
L8.3762 8.0258
" />
<path d="M8.3762 8.0258
L8.3000 7.9496
" />
<path d="M8.3000 7.9496
L8.2619 7.8734
" />
<path d="M8.2619 7.8734
L8.2238 7.7210
" />
<path d="M8.2238 7.7210
L8.2238 7.6067
" />
<path d="M8.2238 7.6067
L8.2619 7.4543
" />
<path d="M8.2619 7.4543
L8.3000 7.3781
" />
<path d="M8.3000 7.3781
L8.3762 7.3019
" />
<path d="M8.3762 7.3019
L8.4905 7.2639
" />
<path d="M8.4905 7.2639
L8.5667 7.2639
" />
<path d="M8.5667 7.2639
L8.6810 7.3019
" />
<path d="M8.6810 7.3019
L8.7190 7.3400
" />
<path d="M8.9476 7.2639
L9.4048 7.2639
" />
<path d="M9.1762 8.0639
L9.1762 7.2639
" />
<path d="M10.1286 8.0639
L9.8619 7.6829
" />
<path d="M9.6714 8.0639
L9.6714 7.2639
" />
<path d="M9.6714 7.2639
L9.9762 7.2639
" />
<path d="M9.9762 7.2639
L10.0524 7.3019
" />
<path d="M10.0524 7.3019
L10.0905 7.3400
" />
<path d="M10.0905 7.3400
L10.1286 7.4162
" />
<path d="M10.1286 7.4162
L10.1286 7.5305
" />
<path d="M10.1286 7.5305
L10.0905 7.6067
" />
<path d="M10.0905 7.6067
L10.0524 7.6448
" />
<path d="M10.0524 7.6448
L9.9762 7.6829
" />
<path d="M9.9762 7.6829
L9.6714 7.6829
" />
<path d="M10.8524 8.0639
L10.4714 8.0639
" />
<path d="M10.4714 8.0639
L10.4714 7.2639
" />
</g><text x="13.1000" y="31.6000"
textLength="1.9905" font-size="1.0667" lengthAdjust="spacingAndGlyphs"
text-anchor="middle" opacity="0" stroke-opacity="0">B-</text>
<g class="stroked-text"><desc>B-</desc>
<path d="M12.6619 31.1448
L12.7762 31.1829
" />
<path d="M12.7762 31.1829
L12.8143 31.2210
" />
<path d="M12.8143 31.2210
L12.8524 31.2972
" />
<path d="M12.8524 31.2972
L12.8524 31.4115
" />
<path d="M12.8524 31.4115
L12.8143 31.4877
" />
<path d="M12.8143 31.4877
L12.7762 31.5258
" />
<path d="M12.7762 31.5258
L12.7000 31.5639
" />
<path d="M12.7000 31.5639
L12.3952 31.5639
" />
<path d="M12.3952 31.5639
L12.3952 30.7639
" />
<path d="M12.3952 30.7639
L12.6619 30.7639
" />
<path d="M12.6619 30.7639
L12.7381 30.8019
" />
<path d="M12.7381 30.8019
L12.7762 30.8400
" />
<path d="M12.7762 30.8400
L12.8143 30.9162
" />
<path d="M12.8143 30.9162
L12.8143 30.9924
" />
<path d="M12.8143 30.9924
L12.7762 31.0686
" />
<path d="M12.7762 31.0686
L12.7381 31.1067
" />
<path d="M12.7381 31.1067
L12.6619 31.1448
" />
<path d="M12.6619 31.1448
L12.3952 31.1448
" />
<path d="M13.1952 31.2591
L13.8048 31.2591
" />
</g><text x="15.2000" y="10.5000"
textLength="1.8762" font-size="1.0667" lengthAdjust="spacingAndGlyphs"
text-anchor="middle" opacity="0" stroke-opacity="0">M2</text>
<g class="stroked-text"><desc>M2</desc>
<path d="M14.5524 10.4639
L14.5524 9.6639
" />
<path d="M14.5524 9.6639
L14.8190 10.2353
" />
<path d="M14.8190 10.2353
L15.0857 9.6639
" />
<path d="M15.0857 9.6639
L15.0857 10.4639
" />
<path d="M15.4286 9.7400
L15.4667 9.7020
" />
<path d="M15.4667 9.7020
L15.5429 9.6639
" />
<path d="M15.5429 9.6639
L15.7333 9.6639
" />
<path d="M15.7333 9.6639
L15.8095 9.7020
" />
<path d="M15.8095 9.7020
L15.8476 9.7400
" />
<path d="M15.8476 9.7400
L15.8857 9.8162
" />
<path d="M15.8857 9.8162
L15.8857 9.8924
" />
<path d="M15.8857 9.8924
L15.8476 10.0067
" />
<path d="M15.8476 10.0067
L15.3905 10.4639
" />
<path d="M15.3905 10.4639
L15.8857 10.4639
" />
</g><text x="15.2000" y="25.2000"
textLength="1.8762" font-size="1.0667" lengthAdjust="spacingAndGlyphs"
text-anchor="middle" opacity="0" stroke-opacity="0">M3</text>
<g class="stroked-text"><desc>M3</desc>
<path d="M14.5524 25.1639
L14.5524 24.3639
" />
<path d="M14.5524 24.3639
L14.8190 24.9353
" />
<path d="M14.8190 24.9353
L15.0857 24.3639
" />
<path d="M15.0857 24.3639
L15.0857 25.1639
" />
<path d="M15.3905 24.3639
L15.8857 24.3639
" />
<path d="M15.8857 24.3639
L15.6190 24.6686
" />
<path d="M15.6190 24.6686
L15.7333 24.6686
" />
<path d="M15.7333 24.6686
L15.8095 24.7067
" />
<path d="M15.8095 24.7067
L15.8476 24.7448
" />
<path d="M15.8476 24.7448
L15.8857 24.8210
" />
<path d="M15.8857 24.8210
L15.8857 25.0115
" />
<path d="M15.8857 25.0115
L15.8476 25.0877
" />
<path d="M15.8476 25.0877
L15.8095 25.1258
" />
<path d="M15.8095 25.1258
L15.7333 25.1639
" />
<path d="M15.7333 25.1639
L15.5048 25.1639
" />
<path d="M15.5048 25.1639
L15.4286 25.1258
" />
<path d="M15.4286 25.1258
L15.3905 25.0877
" />
</g><path d="M8.7400 19.9400
L10.2600 19.9400
" />
<path d="M8.7400 19.9900
L8.7400 19.9400
" />
<path d="M8.7400 21.8900
L8.7400 21.1100
" />
<path d="M8.7400 23.0600
L8.7400 23.0100
" />
<path d="M10.2600 19.9400
L10.2600 20.9400
" />
<path d="M10.2600 22.0600
L10.2600 23.0600
" />
<path d="M10.2600 23.0600
L8.7400 23.0600
" />
<path style="fill:none;
stroke:#F2EDA1; stroke-width:0.1200; stroke-opacity:1;
stroke-linecap:round; stroke-linejoin:round;fill:none"
d="M 8.2000,21.1200
8.4400,21.4500
7.9600,21.4500
Z" />
<path style="fill:#F2EDA1; fill-opacity:1.0000; stroke:none;fill-rule:evenodd;"
d="M 8.4400,21.4500
7.9600,21.4500
8.2000,21.1200
Z" />
</g>
<g style="fill:none;
stroke:#F2EDA1; stroke-width:0.1200; stroke-opacity:1;
stroke-linecap:round; stroke-linejoin:round;">
<path d="M8.7400 11.9400
L10.2600 11.9400
" />
<path d="M8.7400 11.9900
L8.7400 11.9400
" />
<path d="M8.7400 13.8900
L8.7400 13.1100
" />
<path d="M8.7400 15.0600
L8.7400 15.0100
" />
<path d="M10.2600 11.9400
L10.2600 12.9400
" />
<path d="M10.2600 14.0600
L10.2600 15.0600
" />
<path d="M10.2600 15.0600
L8.7400 15.0600
" />
<path style="fill:none;
stroke:#F2EDA1; stroke-width:0.1200; stroke-opacity:1;
stroke-linecap:round; stroke-linejoin:round;fill:none"
d="M 8.2000,13.1200
8.4400,13.4500
7.9600,13.4500
Z" />
<path style="fill:#F2EDA1; fill-opacity:1.0000; stroke:none;fill-rule:evenodd;"
d="M 8.4400,13.4500
7.9600,13.4500
8.2000,13.1200
Z" />
</g>
<g style="fill:none;
stroke:#F2EDA1; stroke-width:0.1200; stroke-opacity:1;
stroke-linecap:round; stroke-linejoin:round;">
<path d="M12.7400 19.9400
L14.2600 19.9400
" />
<path d="M12.7400 20.9400
L12.7400 19.9400
" />
<path d="M12.7400 23.0600
L12.7400 22.0600
" />
<path d="M14.2600 19.9400
L14.2600 19.9900
" />
<path d="M14.2600 21.1100
L14.2600 21.8900
" />
<path d="M14.2600 23.0100
L14.2600 23.0600
" />
<path d="M14.2600 23.0600
L12.7400 23.0600
" />
<path style="fill:none;
stroke:#F2EDA1; stroke-width:0.1200; stroke-opacity:1;
stroke-linecap:round; stroke-linejoin:round;fill:none"
d="M 14.8000,21.8800
14.5600,21.5500
15.0400,21.5500
Z" />
<path style="fill:#F2EDA1; fill-opacity:1.0000; stroke:none;fill-rule:evenodd;"
d="M 14.8000,21.8800
14.5600,21.5500
15.0400,21.5500
Z" />
</g>
<g style="fill:none;
stroke:#F2EDA1; stroke-width:0.1200; stroke-opacity:1;
stroke-linecap:round; stroke-linejoin:round;">
<path d="M12.7400 11.9400
L14.2600 11.9400
" />
<path d="M12.7400 12.9400
L12.7400 11.9400
" />
<path d="M12.7400 15.0600
L12.7400 14.0600
" />
<path d="M14.2600 11.9400
L14.2600 11.9900
" />
<path d="M14.2600 13.1100
L14.2600 13.8900
" />
<path d="M14.2600 15.0100
L14.2600 15.0600
" />
<path d="M14.2600 15.0600
L12.7400 15.0600
" />
<path style="fill:none;
stroke:#F2EDA1; stroke-width:0.1200; stroke-opacity:1;
stroke-linecap:round; stroke-linejoin:round;fill:none"
d="M 14.8000,13.8800
14.5600,13.5500
15.0400,13.5500
Z" />
<path style="fill:#F2EDA1; fill-opacity:1.0000; stroke:none;fill-rule:evenodd;"
d="M 14.8000,13.8800
14.5600,13.5500
15.0400,13.5500
Z" />
</g>
<g style="fill:none;
stroke:#D0D2CD; stroke-width:0.1000; stroke-opacity:1;
stroke-linecap:round; stroke-linejoin:round;">
<path d="M0.0000 29.5000
L4.0000 29.5000
" />
<path d="M0.0000 35.0000
L0.0000 29.5000
" />
<path d="M4.0000 0.0000
L19.0000 0.0000
" />
<path d="M4.0000 8.3500
L4.0000 0.0000
" />
<path d="M4.0000 11.6500 A1.6500 1.6500 0.0 0 0 4.0000 8.3500" />
<path d="M4.0000 29.5000
L4.0000 11.6500
" />
<path d="M19.0000 0.0000
L19.0000 8.3500
" />
<path d="M19.0000 8.3500 A1.6500 1.6500 0.0 0 0 19.0000 11.6500" />
<path d="M19.0000 11.6500
L19.0000 29.5000
" />
<path d="M19.0000 29.5000
L23.0000 29.5000
" />
<path d="M23.0000 29.5000
L23.0000 35.0000
" />
<path d="M23.0000 35.0000
L0.0000 35.0000
" />
</g>
<g style="fill:#D0D2CD; fill-opacity:1.0000; stroke:none;">
<circle cx="2.7500" cy="33.0000" r="1.1000" />
<circle cx="20.2500" cy="33.0000" r="1.1000" />
</g>
<g style="fill:#FFFFFF; fill-opacity:1.0000; stroke:none;">
<circle cx="9.0000" cy="32.5000" r="0.1500" />
<circle cx="17.1000" cy="32.5000" r="0.1500" />
<circle cx="14.9000" cy="15.0000" r="0.1500" />
<circle cx="14.9000" cy="7.0000" r="0.1500" />
<circle cx="8.1000" cy="20.0000" r="0.1500" />
<circle cx="8.1000" cy="28.0000" r="0.1500" />
</g>
<g style="fill:#FFFFFF; fill-opacity:1.0000; stroke:none;">
<circle cx="2.7500" cy="33.0000" r="0.8000" />
</g>
<g style="fill:#FFFFFF; fill-opacity:1.0000; stroke:none;">
<circle cx="20.2500" cy="33.0000" r="0.8000" />
</g>
</svg>
