M48
; DRILL file KiCad 10.0.4 date 2026-06-22T17:27:48
; FORMAT={-:-/ absolute / metric / decimal}
; #@! TF.CreationDate,2026-06-22T17:27:48-07:00
; #@! TF.GenerationSoftware,Kicad,Pcbnew,10.0.4
; #@! TF.FileFunction,MixedPlating,1,2
FMAT,2
METRIC
; #@! TA.AperFunction,Plated,PTH,ComponentDrill
T1C0.200
; #@! TA.AperFunction,Plated,PTH,ComponentDrill
T2C1.000
; #@! TA.AperFunction,NonPlated,NPTH,ComponentDrill
T3C2.200
%
G90
G05
T1
X97.795Y-94.328
X97.795Y-95.852
X98.557Y-93.565
X98.557Y-95.09
X98.557Y-96.615
X99.32Y-94.328
X99.32Y-95.852
X100.082Y-93.565
X100.082Y-95.09
X100.082Y-96.615
X100.845Y-94.328
X100.845Y-95.852
T2
X74.204Y-125.796
X76.0Y-76.0
X76.0Y-124.0
X77.796Y-77.796
X100.0Y-69.46
X100.0Y-72.0
X122.204Y-122.204
X124.0Y-76.0
X124.0Y-124.0
X125.796Y-74.204
X126.0Y-100.0
X128.54Y-100.0
X131.08Y-100.0
X133.62Y-100.0
T3
X73.0Y-73.0
X73.0Y-127.0
X127.0Y-73.0
X127.0Y-127.0
M30
