%TF.GenerationSoftware,KiCad,Pcbnew,10.0.4*%
%TF.CreationDate,2026-06-23T10:15:48-07:00*%
%TF.ProjectId,Drone PCB,44726f6e-6520-4504-9342-2e6b69636164,rev?*%
%TF.SameCoordinates,Original*%
%TF.FileFunction,Legend,Top*%
%TF.FilePolarity,Positive*%
%FSLAX46Y46*%
G04 Gerber Fmt 4.6, Leading zero omitted, Abs format (unit mm)*
G04 Created by KiCad (PCBNEW 10.0.4) date 2026-06-23 10:15:48*
%MOMM*%
%LPD*%
G01*
G04 APERTURE LIST*
%ADD10C,0.120000*%
G04 APERTURE END LIST*
D10*
X93352381Y-107663855D02*
X93352381Y-106863855D01*
X93352381Y-106863855D02*
X93619047Y-107435283D01*
X93619047Y-107435283D02*
X93885714Y-106863855D01*
X93885714Y-106863855D02*
X93885714Y-107663855D01*
X94609524Y-107130521D02*
X94609524Y-107663855D01*
X94419048Y-106825760D02*
X94228571Y-107397188D01*
X94228571Y-107397188D02*
X94723810Y-107397188D01*
X95352381Y-92963855D02*
X95352381Y-92163855D01*
X95352381Y-92163855D02*
X95619047Y-92735283D01*
X95619047Y-92735283D02*
X95885714Y-92163855D01*
X95885714Y-92163855D02*
X95885714Y-92963855D01*
X96685714Y-92963855D02*
X96228571Y-92963855D01*
X96457143Y-92963855D02*
X96457143Y-92163855D01*
X96457143Y-92163855D02*
X96380952Y-92278140D01*
X96380952Y-92278140D02*
X96304762Y-92354331D01*
X96304762Y-92354331D02*
X96228571Y-92392426D01*
X95961904Y-113644807D02*
X96076190Y-113682902D01*
X96076190Y-113682902D02*
X96114285Y-113720998D01*
X96114285Y-113720998D02*
X96152381Y-113797188D01*
X96152381Y-113797188D02*
X96152381Y-113911474D01*
X96152381Y-113911474D02*
X96114285Y-113987664D01*
X96114285Y-113987664D02*
X96076190Y-114025760D01*
X96076190Y-114025760D02*
X96000000Y-114063855D01*
X96000000Y-114063855D02*
X95695238Y-114063855D01*
X95695238Y-114063855D02*
X95695238Y-113263855D01*
X95695238Y-113263855D02*
X95961904Y-113263855D01*
X95961904Y-113263855D02*
X96038095Y-113301950D01*
X96038095Y-113301950D02*
X96076190Y-113340045D01*
X96076190Y-113340045D02*
X96114285Y-113416236D01*
X96114285Y-113416236D02*
X96114285Y-113492426D01*
X96114285Y-113492426D02*
X96076190Y-113568617D01*
X96076190Y-113568617D02*
X96038095Y-113606712D01*
X96038095Y-113606712D02*
X95961904Y-113644807D01*
X95961904Y-113644807D02*
X95695238Y-113644807D01*
X96495238Y-113759093D02*
X97104762Y-113759093D01*
X96800000Y-114063855D02*
X96800000Y-113454331D01*
X96028570Y-84325760D02*
X96142856Y-84363855D01*
X96142856Y-84363855D02*
X96333332Y-84363855D01*
X96333332Y-84363855D02*
X96409523Y-84325760D01*
X96409523Y-84325760D02*
X96447618Y-84287664D01*
X96447618Y-84287664D02*
X96485713Y-84211474D01*
X96485713Y-84211474D02*
X96485713Y-84135283D01*
X96485713Y-84135283D02*
X96447618Y-84059093D01*
X96447618Y-84059093D02*
X96409523Y-84020998D01*
X96409523Y-84020998D02*
X96333332Y-83982902D01*
X96333332Y-83982902D02*
X96180951Y-83944807D01*
X96180951Y-83944807D02*
X96104761Y-83906712D01*
X96104761Y-83906712D02*
X96066666Y-83868617D01*
X96066666Y-83868617D02*
X96028570Y-83792426D01*
X96028570Y-83792426D02*
X96028570Y-83716236D01*
X96028570Y-83716236D02*
X96066666Y-83640045D01*
X96066666Y-83640045D02*
X96104761Y-83601950D01*
X96104761Y-83601950D02*
X96180951Y-83563855D01*
X96180951Y-83563855D02*
X96371428Y-83563855D01*
X96371428Y-83563855D02*
X96485713Y-83601950D01*
X96828571Y-84363855D02*
X96828571Y-83563855D01*
X96828571Y-83563855D02*
X97133333Y-83563855D01*
X97133333Y-83563855D02*
X97209523Y-83601950D01*
X97209523Y-83601950D02*
X97247618Y-83640045D01*
X97247618Y-83640045D02*
X97285714Y-83716236D01*
X97285714Y-83716236D02*
X97285714Y-83830521D01*
X97285714Y-83830521D02*
X97247618Y-83906712D01*
X97247618Y-83906712D02*
X97209523Y-83944807D01*
X97209523Y-83944807D02*
X97133333Y-83982902D01*
X97133333Y-83982902D02*
X96828571Y-83982902D01*
X97552380Y-83563855D02*
X98047618Y-83563855D01*
X98047618Y-83563855D02*
X97780952Y-83868617D01*
X97780952Y-83868617D02*
X97895237Y-83868617D01*
X97895237Y-83868617D02*
X97971428Y-83906712D01*
X97971428Y-83906712D02*
X98009523Y-83944807D01*
X98009523Y-83944807D02*
X98047618Y-84020998D01*
X98047618Y-84020998D02*
X98047618Y-84211474D01*
X98047618Y-84211474D02*
X98009523Y-84287664D01*
X98009523Y-84287664D02*
X97971428Y-84325760D01*
X97971428Y-84325760D02*
X97895237Y-84363855D01*
X97895237Y-84363855D02*
X97666666Y-84363855D01*
X97666666Y-84363855D02*
X97590475Y-84325760D01*
X97590475Y-84325760D02*
X97552380Y-84287664D01*
X98771428Y-83563855D02*
X98390476Y-83563855D01*
X98390476Y-83563855D02*
X98352380Y-83944807D01*
X98352380Y-83944807D02*
X98390476Y-83906712D01*
X98390476Y-83906712D02*
X98466666Y-83868617D01*
X98466666Y-83868617D02*
X98657142Y-83868617D01*
X98657142Y-83868617D02*
X98733333Y-83906712D01*
X98733333Y-83906712D02*
X98771428Y-83944807D01*
X98771428Y-83944807D02*
X98809523Y-84020998D01*
X98809523Y-84020998D02*
X98809523Y-84211474D01*
X98809523Y-84211474D02*
X98771428Y-84287664D01*
X98771428Y-84287664D02*
X98733333Y-84325760D01*
X98733333Y-84325760D02*
X98657142Y-84363855D01*
X98657142Y-84363855D02*
X98466666Y-84363855D01*
X98466666Y-84363855D02*
X98390476Y-84325760D01*
X98390476Y-84325760D02*
X98352380Y-84287664D01*
X99304762Y-83563855D02*
X99380952Y-83563855D01*
X99380952Y-83563855D02*
X99457143Y-83601950D01*
X99457143Y-83601950D02*
X99495238Y-83640045D01*
X99495238Y-83640045D02*
X99533333Y-83716236D01*
X99533333Y-83716236D02*
X99571428Y-83868617D01*
X99571428Y-83868617D02*
X99571428Y-84059093D01*
X99571428Y-84059093D02*
X99533333Y-84211474D01*
X99533333Y-84211474D02*
X99495238Y-84287664D01*
X99495238Y-84287664D02*
X99457143Y-84325760D01*
X99457143Y-84325760D02*
X99380952Y-84363855D01*
X99380952Y-84363855D02*
X99304762Y-84363855D01*
X99304762Y-84363855D02*
X99228571Y-84325760D01*
X99228571Y-84325760D02*
X99190476Y-84287664D01*
X99190476Y-84287664D02*
X99152381Y-84211474D01*
X99152381Y-84211474D02*
X99114285Y-84059093D01*
X99114285Y-84059093D02*
X99114285Y-83868617D01*
X99114285Y-83868617D02*
X99152381Y-83716236D01*
X99152381Y-83716236D02*
X99190476Y-83640045D01*
X99190476Y-83640045D02*
X99228571Y-83601950D01*
X99228571Y-83601950D02*
X99304762Y-83563855D01*
X97219048Y-90487664D02*
X97180952Y-90525760D01*
X97180952Y-90525760D02*
X97066667Y-90563855D01*
X97066667Y-90563855D02*
X96990476Y-90563855D01*
X96990476Y-90563855D02*
X96876190Y-90525760D01*
X96876190Y-90525760D02*
X96800000Y-90449569D01*
X96800000Y-90449569D02*
X96761905Y-90373379D01*
X96761905Y-90373379D02*
X96723809Y-90220998D01*
X96723809Y-90220998D02*
X96723809Y-90106712D01*
X96723809Y-90106712D02*
X96761905Y-89954331D01*
X96761905Y-89954331D02*
X96800000Y-89878140D01*
X96800000Y-89878140D02*
X96876190Y-89801950D01*
X96876190Y-89801950D02*
X96990476Y-89763855D01*
X96990476Y-89763855D02*
X97066667Y-89763855D01*
X97066667Y-89763855D02*
X97180952Y-89801950D01*
X97180952Y-89801950D02*
X97219048Y-89840045D01*
X97447619Y-89763855D02*
X97904762Y-89763855D01*
X97676190Y-90563855D02*
X97676190Y-89763855D01*
X98628572Y-90563855D02*
X98361905Y-90182902D01*
X98171429Y-90563855D02*
X98171429Y-89763855D01*
X98171429Y-89763855D02*
X98476191Y-89763855D01*
X98476191Y-89763855D02*
X98552381Y-89801950D01*
X98552381Y-89801950D02*
X98590476Y-89840045D01*
X98590476Y-89840045D02*
X98628572Y-89916236D01*
X98628572Y-89916236D02*
X98628572Y-90030521D01*
X98628572Y-90030521D02*
X98590476Y-90106712D01*
X98590476Y-90106712D02*
X98552381Y-90144807D01*
X98552381Y-90144807D02*
X98476191Y-90182902D01*
X98476191Y-90182902D02*
X98171429Y-90182902D01*
X99352381Y-90563855D02*
X98971429Y-90563855D01*
X98971429Y-90563855D02*
X98971429Y-89763855D01*
X101161904Y-113644807D02*
X101276190Y-113682902D01*
X101276190Y-113682902D02*
X101314285Y-113720998D01*
X101314285Y-113720998D02*
X101352381Y-113797188D01*
X101352381Y-113797188D02*
X101352381Y-113911474D01*
X101352381Y-113911474D02*
X101314285Y-113987664D01*
X101314285Y-113987664D02*
X101276190Y-114025760D01*
X101276190Y-114025760D02*
X101200000Y-114063855D01*
X101200000Y-114063855D02*
X100895238Y-114063855D01*
X100895238Y-114063855D02*
X100895238Y-113263855D01*
X100895238Y-113263855D02*
X101161904Y-113263855D01*
X101161904Y-113263855D02*
X101238095Y-113301950D01*
X101238095Y-113301950D02*
X101276190Y-113340045D01*
X101276190Y-113340045D02*
X101314285Y-113416236D01*
X101314285Y-113416236D02*
X101314285Y-113492426D01*
X101314285Y-113492426D02*
X101276190Y-113568617D01*
X101276190Y-113568617D02*
X101238095Y-113606712D01*
X101238095Y-113606712D02*
X101161904Y-113644807D01*
X101161904Y-113644807D02*
X100895238Y-113644807D01*
X101695238Y-113759093D02*
X102304762Y-113759093D01*
X103052381Y-92963855D02*
X103052381Y-92163855D01*
X103052381Y-92163855D02*
X103319047Y-92735283D01*
X103319047Y-92735283D02*
X103585714Y-92163855D01*
X103585714Y-92163855D02*
X103585714Y-92963855D01*
X103928571Y-92240045D02*
X103966667Y-92201950D01*
X103966667Y-92201950D02*
X104042857Y-92163855D01*
X104042857Y-92163855D02*
X104233333Y-92163855D01*
X104233333Y-92163855D02*
X104309524Y-92201950D01*
X104309524Y-92201950D02*
X104347619Y-92240045D01*
X104347619Y-92240045D02*
X104385714Y-92316236D01*
X104385714Y-92316236D02*
X104385714Y-92392426D01*
X104385714Y-92392426D02*
X104347619Y-92506712D01*
X104347619Y-92506712D02*
X103890476Y-92963855D01*
X103890476Y-92963855D02*
X104385714Y-92963855D01*
X103052381Y-107663855D02*
X103052381Y-106863855D01*
X103052381Y-106863855D02*
X103319047Y-107435283D01*
X103319047Y-107435283D02*
X103585714Y-106863855D01*
X103585714Y-106863855D02*
X103585714Y-107663855D01*
X103890476Y-106863855D02*
X104385714Y-106863855D01*
X104385714Y-106863855D02*
X104119048Y-107168617D01*
X104119048Y-107168617D02*
X104233333Y-107168617D01*
X104233333Y-107168617D02*
X104309524Y-107206712D01*
X104309524Y-107206712D02*
X104347619Y-107244807D01*
X104347619Y-107244807D02*
X104385714Y-107320998D01*
X104385714Y-107320998D02*
X104385714Y-107511474D01*
X104385714Y-107511474D02*
X104347619Y-107587664D01*
X104347619Y-107587664D02*
X104309524Y-107625760D01*
X104309524Y-107625760D02*
X104233333Y-107663855D01*
X104233333Y-107663855D02*
X104004762Y-107663855D01*
X104004762Y-107663855D02*
X103928571Y-107625760D01*
X103928571Y-107625760D02*
X103890476Y-107587664D01*
%TO.C,Q4*%
X97240000Y-102440000D02*
X98760000Y-102440000D01*
X97240000Y-102490000D02*
X97240000Y-102440000D01*
X97240000Y-104390000D02*
X97240000Y-103610000D01*
X97240000Y-105560000D02*
X97240000Y-105510000D01*
X98760000Y-102440000D02*
X98760000Y-103440000D01*
X98760000Y-104560000D02*
X98760000Y-105560000D01*
X98760000Y-105560000D02*
X97240000Y-105560000D01*
X96700000Y-103620000D02*
X96940000Y-103950000D01*
X96460000Y-103950000D01*
X96700000Y-103620000D01*
G36*
X96940000Y-103950000D02*
G01*
X96460000Y-103950000D01*
X96700000Y-103620000D01*
X96940000Y-103950000D01*
G37*
%TO.C,Q1*%
X97240000Y-94440000D02*
X98760000Y-94440000D01*
X97240000Y-94490000D02*
X97240000Y-94440000D01*
X97240000Y-96390000D02*
X97240000Y-95610000D01*
X97240000Y-97560000D02*
X97240000Y-97510000D01*
X98760000Y-94440000D02*
X98760000Y-95440000D01*
X98760000Y-96560000D02*
X98760000Y-97560000D01*
X98760000Y-97560000D02*
X97240000Y-97560000D01*
X96700000Y-95620000D02*
X96940000Y-95950000D01*
X96460000Y-95950000D01*
X96700000Y-95620000D01*
G36*
X96940000Y-95950000D02*
G01*
X96460000Y-95950000D01*
X96700000Y-95620000D01*
X96940000Y-95950000D01*
G37*
%TO.C,Q3*%
X101240000Y-102440000D02*
X102760000Y-102440000D01*
X101240000Y-103440000D02*
X101240000Y-102440000D01*
X101240000Y-105560000D02*
X101240000Y-104560000D01*
X102760000Y-102440000D02*
X102760000Y-102490000D01*
X102760000Y-103610000D02*
X102760000Y-104390000D01*
X102760000Y-105510000D02*
X102760000Y-105560000D01*
X102760000Y-105560000D02*
X101240000Y-105560000D01*
X103300000Y-104380000D02*
X103060000Y-104050000D01*
X103540000Y-104050000D01*
X103300000Y-104380000D01*
G36*
X103300000Y-104380000D02*
G01*
X103060000Y-104050000D01*
X103540000Y-104050000D01*
X103300000Y-104380000D01*
G37*
%TO.C,Q2*%
X101240000Y-94440000D02*
X102760000Y-94440000D01*
X101240000Y-95440000D02*
X101240000Y-94440000D01*
X101240000Y-97560000D02*
X101240000Y-96560000D01*
X102760000Y-94440000D02*
X102760000Y-94490000D01*
X102760000Y-95610000D02*
X102760000Y-96390000D01*
X102760000Y-97510000D02*
X102760000Y-97560000D01*
X102760000Y-97560000D02*
X101240000Y-97560000D01*
X103300000Y-96380000D02*
X103060000Y-96050000D01*
X103540000Y-96050000D01*
X103300000Y-96380000D01*
G36*
X103300000Y-96380000D02*
G01*
X103060000Y-96050000D01*
X103540000Y-96050000D01*
X103300000Y-96380000D01*
G37*
%TD*%
M02*
