%TF.GenerationSoftware,KiCad,Pcbnew,10.0.4*%
%TF.CreationDate,2026-06-23T10:56:01-07:00*%
%TF.ProjectId,Turret Control PCB,54757272-6574-4204-936f-6e74726f6c20,rev?*%
%TF.SameCoordinates,Original*%
%TF.FileFunction,Legend,Top*%
%TF.FilePolarity,Positive*%
%FSLAX46Y46*%
G04 Gerber Fmt 4.6, Leading zero omitted, Abs format (unit mm)*
G04 Created by KiCad (PCBNEW 10.0.4) date 2026-06-23 10:56:01*
%MOMM*%
%LPD*%
G01*
G04 APERTURE LIST*
%ADD10C,0.150000*%
%ADD11C,0.120000*%
G04 APERTURE END LIST*
D10*
X38028572Y-68362295D02*
X38028572Y-67562295D01*
X38028572Y-67562295D02*
X38333334Y-67562295D01*
X38333334Y-67562295D02*
X38409524Y-67600390D01*
X38409524Y-67600390D02*
X38447619Y-67638485D01*
X38447619Y-67638485D02*
X38485715Y-67714676D01*
X38485715Y-67714676D02*
X38485715Y-67828961D01*
X38485715Y-67828961D02*
X38447619Y-67905152D01*
X38447619Y-67905152D02*
X38409524Y-67943247D01*
X38409524Y-67943247D02*
X38333334Y-67981342D01*
X38333334Y-67981342D02*
X38028572Y-67981342D01*
X38790476Y-68133723D02*
X39171429Y-68133723D01*
X38714286Y-68362295D02*
X38980953Y-67562295D01*
X38980953Y-67562295D02*
X39247619Y-68362295D01*
X39514286Y-68362295D02*
X39514286Y-67562295D01*
X39514286Y-67562295D02*
X39971429Y-68362295D01*
X39971429Y-68362295D02*
X39971429Y-67562295D01*
X37952381Y-79562295D02*
X38409524Y-79562295D01*
X38180952Y-80362295D02*
X38180952Y-79562295D01*
X38676191Y-80362295D02*
X38676191Y-79562295D01*
X39438095Y-80362295D02*
X39057143Y-80362295D01*
X39057143Y-80362295D02*
X39057143Y-79562295D01*
X39590476Y-79562295D02*
X40047619Y-79562295D01*
X39819047Y-80362295D02*
X39819047Y-79562295D01*
X38009523Y-92133723D02*
X38390476Y-92133723D01*
X37933333Y-92362295D02*
X38200000Y-91562295D01*
X38200000Y-91562295D02*
X38466666Y-92362295D01*
X38733333Y-91562295D02*
X38733333Y-92209914D01*
X38733333Y-92209914D02*
X38771428Y-92286104D01*
X38771428Y-92286104D02*
X38809523Y-92324200D01*
X38809523Y-92324200D02*
X38885714Y-92362295D01*
X38885714Y-92362295D02*
X39038095Y-92362295D01*
X39038095Y-92362295D02*
X39114285Y-92324200D01*
X39114285Y-92324200D02*
X39152380Y-92286104D01*
X39152380Y-92286104D02*
X39190476Y-92209914D01*
X39190476Y-92209914D02*
X39190476Y-91562295D01*
X39495237Y-91562295D02*
X40028571Y-92362295D01*
X40028571Y-91562295D02*
X39495237Y-92362295D01*
X36647618Y-111324200D02*
X36761904Y-111362295D01*
X36761904Y-111362295D02*
X36952380Y-111362295D01*
X36952380Y-111362295D02*
X37028571Y-111324200D01*
X37028571Y-111324200D02*
X37066666Y-111286104D01*
X37066666Y-111286104D02*
X37104761Y-111209914D01*
X37104761Y-111209914D02*
X37104761Y-111133723D01*
X37104761Y-111133723D02*
X37066666Y-111057533D01*
X37066666Y-111057533D02*
X37028571Y-111019438D01*
X37028571Y-111019438D02*
X36952380Y-110981342D01*
X36952380Y-110981342D02*
X36799999Y-110943247D01*
X36799999Y-110943247D02*
X36723809Y-110905152D01*
X36723809Y-110905152D02*
X36685714Y-110867057D01*
X36685714Y-110867057D02*
X36647618Y-110790866D01*
X36647618Y-110790866D02*
X36647618Y-110714676D01*
X36647618Y-110714676D02*
X36685714Y-110638485D01*
X36685714Y-110638485D02*
X36723809Y-110600390D01*
X36723809Y-110600390D02*
X36799999Y-110562295D01*
X36799999Y-110562295D02*
X36990476Y-110562295D01*
X36990476Y-110562295D02*
X37104761Y-110600390D01*
X37447619Y-110943247D02*
X37714285Y-110943247D01*
X37828571Y-111362295D02*
X37447619Y-111362295D01*
X37447619Y-111362295D02*
X37447619Y-110562295D01*
X37447619Y-110562295D02*
X37828571Y-110562295D01*
X38628572Y-111362295D02*
X38361905Y-110981342D01*
X38171429Y-111362295D02*
X38171429Y-110562295D01*
X38171429Y-110562295D02*
X38476191Y-110562295D01*
X38476191Y-110562295D02*
X38552381Y-110600390D01*
X38552381Y-110600390D02*
X38590476Y-110638485D01*
X38590476Y-110638485D02*
X38628572Y-110714676D01*
X38628572Y-110714676D02*
X38628572Y-110828961D01*
X38628572Y-110828961D02*
X38590476Y-110905152D01*
X38590476Y-110905152D02*
X38552381Y-110943247D01*
X38552381Y-110943247D02*
X38476191Y-110981342D01*
X38476191Y-110981342D02*
X38171429Y-110981342D01*
X38857143Y-110562295D02*
X39123810Y-111362295D01*
X39123810Y-111362295D02*
X39390476Y-110562295D01*
X39809524Y-110562295D02*
X39961905Y-110562295D01*
X39961905Y-110562295D02*
X40038095Y-110600390D01*
X40038095Y-110600390D02*
X40114286Y-110676580D01*
X40114286Y-110676580D02*
X40152381Y-110828961D01*
X40152381Y-110828961D02*
X40152381Y-111095628D01*
X40152381Y-111095628D02*
X40114286Y-111248009D01*
X40114286Y-111248009D02*
X40038095Y-111324200D01*
X40038095Y-111324200D02*
X39961905Y-111362295D01*
X39961905Y-111362295D02*
X39809524Y-111362295D01*
X39809524Y-111362295D02*
X39733333Y-111324200D01*
X39733333Y-111324200D02*
X39657143Y-111248009D01*
X39657143Y-111248009D02*
X39619047Y-111095628D01*
X39619047Y-111095628D02*
X39619047Y-110828961D01*
X39619047Y-110828961D02*
X39657143Y-110676580D01*
X39657143Y-110676580D02*
X39733333Y-110600390D01*
X39733333Y-110600390D02*
X39809524Y-110562295D01*
X41219047Y-110905152D02*
X41142857Y-110867057D01*
X41142857Y-110867057D02*
X41104762Y-110828961D01*
X41104762Y-110828961D02*
X41066666Y-110752771D01*
X41066666Y-110752771D02*
X41066666Y-110714676D01*
X41066666Y-110714676D02*
X41104762Y-110638485D01*
X41104762Y-110638485D02*
X41142857Y-110600390D01*
X41142857Y-110600390D02*
X41219047Y-110562295D01*
X41219047Y-110562295D02*
X41371428Y-110562295D01*
X41371428Y-110562295D02*
X41447619Y-110600390D01*
X41447619Y-110600390D02*
X41485714Y-110638485D01*
X41485714Y-110638485D02*
X41523809Y-110714676D01*
X41523809Y-110714676D02*
X41523809Y-110752771D01*
X41523809Y-110752771D02*
X41485714Y-110828961D01*
X41485714Y-110828961D02*
X41447619Y-110867057D01*
X41447619Y-110867057D02*
X41371428Y-110905152D01*
X41371428Y-110905152D02*
X41219047Y-110905152D01*
X41219047Y-110905152D02*
X41142857Y-110943247D01*
X41142857Y-110943247D02*
X41104762Y-110981342D01*
X41104762Y-110981342D02*
X41066666Y-111057533D01*
X41066666Y-111057533D02*
X41066666Y-111209914D01*
X41066666Y-111209914D02*
X41104762Y-111286104D01*
X41104762Y-111286104D02*
X41142857Y-111324200D01*
X41142857Y-111324200D02*
X41219047Y-111362295D01*
X41219047Y-111362295D02*
X41371428Y-111362295D01*
X41371428Y-111362295D02*
X41447619Y-111324200D01*
X41447619Y-111324200D02*
X41485714Y-111286104D01*
X41485714Y-111286104D02*
X41523809Y-111209914D01*
X41523809Y-111209914D02*
X41523809Y-111057533D01*
X41523809Y-111057533D02*
X41485714Y-110981342D01*
X41485714Y-110981342D02*
X41447619Y-110943247D01*
X41447619Y-110943247D02*
X41371428Y-110905152D01*
X41866667Y-111286104D02*
X41904762Y-111324200D01*
X41904762Y-111324200D02*
X41866667Y-111362295D01*
X41866667Y-111362295D02*
X41828571Y-111324200D01*
X41828571Y-111324200D02*
X41866667Y-111286104D01*
X41866667Y-111286104D02*
X41866667Y-111362295D01*
X42590476Y-110828961D02*
X42590476Y-111362295D01*
X42400000Y-110524200D02*
X42209523Y-111095628D01*
X42209523Y-111095628D02*
X42704762Y-111095628D01*
X42895238Y-110562295D02*
X43161905Y-111362295D01*
X43161905Y-111362295D02*
X43428571Y-110562295D01*
X48495237Y-61600390D02*
X48419047Y-61562295D01*
X48419047Y-61562295D02*
X48304761Y-61562295D01*
X48304761Y-61562295D02*
X48190475Y-61600390D01*
X48190475Y-61600390D02*
X48114285Y-61676580D01*
X48114285Y-61676580D02*
X48076190Y-61752771D01*
X48076190Y-61752771D02*
X48038094Y-61905152D01*
X48038094Y-61905152D02*
X48038094Y-62019438D01*
X48038094Y-62019438D02*
X48076190Y-62171819D01*
X48076190Y-62171819D02*
X48114285Y-62248009D01*
X48114285Y-62248009D02*
X48190475Y-62324200D01*
X48190475Y-62324200D02*
X48304761Y-62362295D01*
X48304761Y-62362295D02*
X48380952Y-62362295D01*
X48380952Y-62362295D02*
X48495237Y-62324200D01*
X48495237Y-62324200D02*
X48533333Y-62286104D01*
X48533333Y-62286104D02*
X48533333Y-62019438D01*
X48533333Y-62019438D02*
X48380952Y-62019438D01*
X49599999Y-61905152D02*
X49523809Y-61867057D01*
X49523809Y-61867057D02*
X49485714Y-61828961D01*
X49485714Y-61828961D02*
X49447618Y-61752771D01*
X49447618Y-61752771D02*
X49447618Y-61714676D01*
X49447618Y-61714676D02*
X49485714Y-61638485D01*
X49485714Y-61638485D02*
X49523809Y-61600390D01*
X49523809Y-61600390D02*
X49599999Y-61562295D01*
X49599999Y-61562295D02*
X49752380Y-61562295D01*
X49752380Y-61562295D02*
X49828571Y-61600390D01*
X49828571Y-61600390D02*
X49866666Y-61638485D01*
X49866666Y-61638485D02*
X49904761Y-61714676D01*
X49904761Y-61714676D02*
X49904761Y-61752771D01*
X49904761Y-61752771D02*
X49866666Y-61828961D01*
X49866666Y-61828961D02*
X49828571Y-61867057D01*
X49828571Y-61867057D02*
X49752380Y-61905152D01*
X49752380Y-61905152D02*
X49599999Y-61905152D01*
X49599999Y-61905152D02*
X49523809Y-61943247D01*
X49523809Y-61943247D02*
X49485714Y-61981342D01*
X49485714Y-61981342D02*
X49447618Y-62057533D01*
X49447618Y-62057533D02*
X49447618Y-62209914D01*
X49447618Y-62209914D02*
X49485714Y-62286104D01*
X49485714Y-62286104D02*
X49523809Y-62324200D01*
X49523809Y-62324200D02*
X49599999Y-62362295D01*
X49599999Y-62362295D02*
X49752380Y-62362295D01*
X49752380Y-62362295D02*
X49828571Y-62324200D01*
X49828571Y-62324200D02*
X49866666Y-62286104D01*
X49866666Y-62286104D02*
X49904761Y-62209914D01*
X49904761Y-62209914D02*
X49904761Y-62057533D01*
X49904761Y-62057533D02*
X49866666Y-61981342D01*
X49866666Y-61981342D02*
X49828571Y-61943247D01*
X49828571Y-61943247D02*
X49752380Y-61905152D01*
X50133333Y-61562295D02*
X50400000Y-62362295D01*
X50400000Y-62362295D02*
X50666666Y-61562295D01*
X51504761Y-62324200D02*
X51619047Y-62362295D01*
X51619047Y-62362295D02*
X51809523Y-62362295D01*
X51809523Y-62362295D02*
X51885714Y-62324200D01*
X51885714Y-62324200D02*
X51923809Y-62286104D01*
X51923809Y-62286104D02*
X51961904Y-62209914D01*
X51961904Y-62209914D02*
X51961904Y-62133723D01*
X51961904Y-62133723D02*
X51923809Y-62057533D01*
X51923809Y-62057533D02*
X51885714Y-62019438D01*
X51885714Y-62019438D02*
X51809523Y-61981342D01*
X51809523Y-61981342D02*
X51657142Y-61943247D01*
X51657142Y-61943247D02*
X51580952Y-61905152D01*
X51580952Y-61905152D02*
X51542857Y-61867057D01*
X51542857Y-61867057D02*
X51504761Y-61790866D01*
X51504761Y-61790866D02*
X51504761Y-61714676D01*
X51504761Y-61714676D02*
X51542857Y-61638485D01*
X51542857Y-61638485D02*
X51580952Y-61600390D01*
X51580952Y-61600390D02*
X51657142Y-61562295D01*
X51657142Y-61562295D02*
X51847619Y-61562295D01*
X51847619Y-61562295D02*
X51961904Y-61600390D01*
X55304761Y-42562295D02*
X55761904Y-42562295D01*
X55533332Y-43362295D02*
X55533332Y-42562295D01*
X55952380Y-42562295D02*
X56485714Y-43362295D01*
X56485714Y-42562295D02*
X55952380Y-43362295D01*
X57857143Y-43362295D02*
X57590476Y-42981342D01*
X57400000Y-43362295D02*
X57400000Y-42562295D01*
X57400000Y-42562295D02*
X57704762Y-42562295D01*
X57704762Y-42562295D02*
X57780952Y-42600390D01*
X57780952Y-42600390D02*
X57819047Y-42638485D01*
X57819047Y-42638485D02*
X57857143Y-42714676D01*
X57857143Y-42714676D02*
X57857143Y-42828961D01*
X57857143Y-42828961D02*
X57819047Y-42905152D01*
X57819047Y-42905152D02*
X57780952Y-42943247D01*
X57780952Y-42943247D02*
X57704762Y-42981342D01*
X57704762Y-42981342D02*
X57400000Y-42981342D01*
X58123809Y-42562295D02*
X58657143Y-43362295D01*
X58657143Y-42562295D02*
X58123809Y-43362295D01*
X101085713Y-127362295D02*
X100628570Y-127362295D01*
X100857142Y-127362295D02*
X100857142Y-126562295D01*
X100857142Y-126562295D02*
X100780951Y-126676580D01*
X100780951Y-126676580D02*
X100704761Y-126752771D01*
X100704761Y-126752771D02*
X100628570Y-126790866D01*
X101390475Y-126638485D02*
X101428571Y-126600390D01*
X101428571Y-126600390D02*
X101504761Y-126562295D01*
X101504761Y-126562295D02*
X101695237Y-126562295D01*
X101695237Y-126562295D02*
X101771428Y-126600390D01*
X101771428Y-126600390D02*
X101809523Y-126638485D01*
X101809523Y-126638485D02*
X101847618Y-126714676D01*
X101847618Y-126714676D02*
X101847618Y-126790866D01*
X101847618Y-126790866D02*
X101809523Y-126905152D01*
X101809523Y-126905152D02*
X101352380Y-127362295D01*
X101352380Y-127362295D02*
X101847618Y-127362295D01*
X102076190Y-126562295D02*
X102342857Y-127362295D01*
X102342857Y-127362295D02*
X102609523Y-126562295D01*
X103371428Y-126828961D02*
X103676190Y-126828961D01*
X103485714Y-126562295D02*
X103485714Y-127248009D01*
X103485714Y-127248009D02*
X103523809Y-127324200D01*
X103523809Y-127324200D02*
X103599999Y-127362295D01*
X103599999Y-127362295D02*
X103676190Y-127362295D01*
X104057142Y-127362295D02*
X103980952Y-127324200D01*
X103980952Y-127324200D02*
X103942857Y-127286104D01*
X103942857Y-127286104D02*
X103904761Y-127209914D01*
X103904761Y-127209914D02*
X103904761Y-126981342D01*
X103904761Y-126981342D02*
X103942857Y-126905152D01*
X103942857Y-126905152D02*
X103980952Y-126867057D01*
X103980952Y-126867057D02*
X104057142Y-126828961D01*
X104057142Y-126828961D02*
X104171428Y-126828961D01*
X104171428Y-126828961D02*
X104247619Y-126867057D01*
X104247619Y-126867057D02*
X104285714Y-126905152D01*
X104285714Y-126905152D02*
X104323809Y-126981342D01*
X104323809Y-126981342D02*
X104323809Y-127209914D01*
X104323809Y-127209914D02*
X104285714Y-127286104D01*
X104285714Y-127286104D02*
X104247619Y-127324200D01*
X104247619Y-127324200D02*
X104171428Y-127362295D01*
X104171428Y-127362295D02*
X104057142Y-127362295D01*
X105390476Y-126905152D02*
X105314286Y-126867057D01*
X105314286Y-126867057D02*
X105276191Y-126828961D01*
X105276191Y-126828961D02*
X105238095Y-126752771D01*
X105238095Y-126752771D02*
X105238095Y-126714676D01*
X105238095Y-126714676D02*
X105276191Y-126638485D01*
X105276191Y-126638485D02*
X105314286Y-126600390D01*
X105314286Y-126600390D02*
X105390476Y-126562295D01*
X105390476Y-126562295D02*
X105542857Y-126562295D01*
X105542857Y-126562295D02*
X105619048Y-126600390D01*
X105619048Y-126600390D02*
X105657143Y-126638485D01*
X105657143Y-126638485D02*
X105695238Y-126714676D01*
X105695238Y-126714676D02*
X105695238Y-126752771D01*
X105695238Y-126752771D02*
X105657143Y-126828961D01*
X105657143Y-126828961D02*
X105619048Y-126867057D01*
X105619048Y-126867057D02*
X105542857Y-126905152D01*
X105542857Y-126905152D02*
X105390476Y-126905152D01*
X105390476Y-126905152D02*
X105314286Y-126943247D01*
X105314286Y-126943247D02*
X105276191Y-126981342D01*
X105276191Y-126981342D02*
X105238095Y-127057533D01*
X105238095Y-127057533D02*
X105238095Y-127209914D01*
X105238095Y-127209914D02*
X105276191Y-127286104D01*
X105276191Y-127286104D02*
X105314286Y-127324200D01*
X105314286Y-127324200D02*
X105390476Y-127362295D01*
X105390476Y-127362295D02*
X105542857Y-127362295D01*
X105542857Y-127362295D02*
X105619048Y-127324200D01*
X105619048Y-127324200D02*
X105657143Y-127286104D01*
X105657143Y-127286104D02*
X105695238Y-127209914D01*
X105695238Y-127209914D02*
X105695238Y-127057533D01*
X105695238Y-127057533D02*
X105657143Y-126981342D01*
X105657143Y-126981342D02*
X105619048Y-126943247D01*
X105619048Y-126943247D02*
X105542857Y-126905152D01*
X106038096Y-127286104D02*
X106076191Y-127324200D01*
X106076191Y-127324200D02*
X106038096Y-127362295D01*
X106038096Y-127362295D02*
X106000000Y-127324200D01*
X106000000Y-127324200D02*
X106038096Y-127286104D01*
X106038096Y-127286104D02*
X106038096Y-127362295D01*
X106761905Y-126828961D02*
X106761905Y-127362295D01*
X106571429Y-126524200D02*
X106380952Y-127095628D01*
X106380952Y-127095628D02*
X106876191Y-127095628D01*
X107066667Y-126562295D02*
X107333334Y-127362295D01*
X107333334Y-127362295D02*
X107600000Y-126562295D01*
X108742857Y-126943247D02*
X108857143Y-126981342D01*
X108857143Y-126981342D02*
X108895238Y-127019438D01*
X108895238Y-127019438D02*
X108933334Y-127095628D01*
X108933334Y-127095628D02*
X108933334Y-127209914D01*
X108933334Y-127209914D02*
X108895238Y-127286104D01*
X108895238Y-127286104D02*
X108857143Y-127324200D01*
X108857143Y-127324200D02*
X108780953Y-127362295D01*
X108780953Y-127362295D02*
X108476191Y-127362295D01*
X108476191Y-127362295D02*
X108476191Y-126562295D01*
X108476191Y-126562295D02*
X108742857Y-126562295D01*
X108742857Y-126562295D02*
X108819048Y-126600390D01*
X108819048Y-126600390D02*
X108857143Y-126638485D01*
X108857143Y-126638485D02*
X108895238Y-126714676D01*
X108895238Y-126714676D02*
X108895238Y-126790866D01*
X108895238Y-126790866D02*
X108857143Y-126867057D01*
X108857143Y-126867057D02*
X108819048Y-126905152D01*
X108819048Y-126905152D02*
X108742857Y-126943247D01*
X108742857Y-126943247D02*
X108476191Y-126943247D01*
X109276191Y-126562295D02*
X109276191Y-127209914D01*
X109276191Y-127209914D02*
X109314286Y-127286104D01*
X109314286Y-127286104D02*
X109352381Y-127324200D01*
X109352381Y-127324200D02*
X109428572Y-127362295D01*
X109428572Y-127362295D02*
X109580953Y-127362295D01*
X109580953Y-127362295D02*
X109657143Y-127324200D01*
X109657143Y-127324200D02*
X109695238Y-127286104D01*
X109695238Y-127286104D02*
X109733334Y-127209914D01*
X109733334Y-127209914D02*
X109733334Y-126562295D01*
X110571429Y-127286104D02*
X110533333Y-127324200D01*
X110533333Y-127324200D02*
X110419048Y-127362295D01*
X110419048Y-127362295D02*
X110342857Y-127362295D01*
X110342857Y-127362295D02*
X110228571Y-127324200D01*
X110228571Y-127324200D02*
X110152381Y-127248009D01*
X110152381Y-127248009D02*
X110114286Y-127171819D01*
X110114286Y-127171819D02*
X110076190Y-127019438D01*
X110076190Y-127019438D02*
X110076190Y-126905152D01*
X110076190Y-126905152D02*
X110114286Y-126752771D01*
X110114286Y-126752771D02*
X110152381Y-126676580D01*
X110152381Y-126676580D02*
X110228571Y-126600390D01*
X110228571Y-126600390D02*
X110342857Y-126562295D01*
X110342857Y-126562295D02*
X110419048Y-126562295D01*
X110419048Y-126562295D02*
X110533333Y-126600390D01*
X110533333Y-126600390D02*
X110571429Y-126638485D01*
X110914286Y-127362295D02*
X110914286Y-126562295D01*
X111371429Y-127362295D02*
X111028571Y-126905152D01*
X111371429Y-126562295D02*
X110914286Y-127019438D01*
X105628572Y-113562295D02*
X105895239Y-114362295D01*
X105895239Y-114362295D02*
X106161905Y-113562295D01*
X106428572Y-114362295D02*
X106428572Y-113562295D01*
X106809524Y-114362295D02*
X106809524Y-113562295D01*
X106809524Y-113562295D02*
X107266667Y-114362295D01*
X107266667Y-114362295D02*
X107266667Y-113562295D01*
X108676190Y-113600390D02*
X108600000Y-113562295D01*
X108600000Y-113562295D02*
X108485714Y-113562295D01*
X108485714Y-113562295D02*
X108371428Y-113600390D01*
X108371428Y-113600390D02*
X108295238Y-113676580D01*
X108295238Y-113676580D02*
X108257143Y-113752771D01*
X108257143Y-113752771D02*
X108219047Y-113905152D01*
X108219047Y-113905152D02*
X108219047Y-114019438D01*
X108219047Y-114019438D02*
X108257143Y-114171819D01*
X108257143Y-114171819D02*
X108295238Y-114248009D01*
X108295238Y-114248009D02*
X108371428Y-114324200D01*
X108371428Y-114324200D02*
X108485714Y-114362295D01*
X108485714Y-114362295D02*
X108561905Y-114362295D01*
X108561905Y-114362295D02*
X108676190Y-114324200D01*
X108676190Y-114324200D02*
X108714286Y-114286104D01*
X108714286Y-114286104D02*
X108714286Y-114019438D01*
X108714286Y-114019438D02*
X108561905Y-114019438D01*
X109057143Y-114362295D02*
X109057143Y-113562295D01*
X109057143Y-113562295D02*
X109514286Y-114362295D01*
X109514286Y-114362295D02*
X109514286Y-113562295D01*
X109895238Y-114362295D02*
X109895238Y-113562295D01*
X109895238Y-113562295D02*
X110085714Y-113562295D01*
X110085714Y-113562295D02*
X110200000Y-113600390D01*
X110200000Y-113600390D02*
X110276190Y-113676580D01*
X110276190Y-113676580D02*
X110314285Y-113752771D01*
X110314285Y-113752771D02*
X110352381Y-113905152D01*
X110352381Y-113905152D02*
X110352381Y-114019438D01*
X110352381Y-114019438D02*
X110314285Y-114171819D01*
X110314285Y-114171819D02*
X110276190Y-114248009D01*
X110276190Y-114248009D02*
X110200000Y-114324200D01*
X110200000Y-114324200D02*
X110085714Y-114362295D01*
X110085714Y-114362295D02*
X109895238Y-114362295D01*
X111457143Y-113562295D02*
X111609524Y-113562295D01*
X111609524Y-113562295D02*
X111685714Y-113600390D01*
X111685714Y-113600390D02*
X111761905Y-113676580D01*
X111761905Y-113676580D02*
X111800000Y-113828961D01*
X111800000Y-113828961D02*
X111800000Y-114095628D01*
X111800000Y-114095628D02*
X111761905Y-114248009D01*
X111761905Y-114248009D02*
X111685714Y-114324200D01*
X111685714Y-114324200D02*
X111609524Y-114362295D01*
X111609524Y-114362295D02*
X111457143Y-114362295D01*
X111457143Y-114362295D02*
X111380952Y-114324200D01*
X111380952Y-114324200D02*
X111304762Y-114248009D01*
X111304762Y-114248009D02*
X111266666Y-114095628D01*
X111266666Y-114095628D02*
X111266666Y-113828961D01*
X111266666Y-113828961D02*
X111304762Y-113676580D01*
X111304762Y-113676580D02*
X111380952Y-113600390D01*
X111380952Y-113600390D02*
X111457143Y-113562295D01*
X112142857Y-113562295D02*
X112142857Y-114209914D01*
X112142857Y-114209914D02*
X112180952Y-114286104D01*
X112180952Y-114286104D02*
X112219047Y-114324200D01*
X112219047Y-114324200D02*
X112295238Y-114362295D01*
X112295238Y-114362295D02*
X112447619Y-114362295D01*
X112447619Y-114362295D02*
X112523809Y-114324200D01*
X112523809Y-114324200D02*
X112561904Y-114286104D01*
X112561904Y-114286104D02*
X112600000Y-114209914D01*
X112600000Y-114209914D02*
X112600000Y-113562295D01*
X112866666Y-113562295D02*
X113323809Y-113562295D01*
X113095237Y-114362295D02*
X113095237Y-113562295D01*
X114619047Y-113600390D02*
X114542857Y-113562295D01*
X114542857Y-113562295D02*
X114428571Y-113562295D01*
X114428571Y-113562295D02*
X114314285Y-113600390D01*
X114314285Y-113600390D02*
X114238095Y-113676580D01*
X114238095Y-113676580D02*
X114200000Y-113752771D01*
X114200000Y-113752771D02*
X114161904Y-113905152D01*
X114161904Y-113905152D02*
X114161904Y-114019438D01*
X114161904Y-114019438D02*
X114200000Y-114171819D01*
X114200000Y-114171819D02*
X114238095Y-114248009D01*
X114238095Y-114248009D02*
X114314285Y-114324200D01*
X114314285Y-114324200D02*
X114428571Y-114362295D01*
X114428571Y-114362295D02*
X114504762Y-114362295D01*
X114504762Y-114362295D02*
X114619047Y-114324200D01*
X114619047Y-114324200D02*
X114657143Y-114286104D01*
X114657143Y-114286104D02*
X114657143Y-114019438D01*
X114657143Y-114019438D02*
X114504762Y-114019438D01*
X115000000Y-114362295D02*
X115000000Y-113562295D01*
X115000000Y-113562295D02*
X115457143Y-114362295D01*
X115457143Y-114362295D02*
X115457143Y-113562295D01*
X115838095Y-114362295D02*
X115838095Y-113562295D01*
X115838095Y-113562295D02*
X116028571Y-113562295D01*
X116028571Y-113562295D02*
X116142857Y-113600390D01*
X116142857Y-113600390D02*
X116219047Y-113676580D01*
X116219047Y-113676580D02*
X116257142Y-113752771D01*
X116257142Y-113752771D02*
X116295238Y-113905152D01*
X116295238Y-113905152D02*
X116295238Y-114019438D01*
X116295238Y-114019438D02*
X116257142Y-114171819D01*
X116257142Y-114171819D02*
X116219047Y-114248009D01*
X116219047Y-114248009D02*
X116142857Y-114324200D01*
X116142857Y-114324200D02*
X116028571Y-114362295D01*
X116028571Y-114362295D02*
X115838095Y-114362295D01*
X127333331Y-52286104D02*
X127295235Y-52324200D01*
X127295235Y-52324200D02*
X127180950Y-52362295D01*
X127180950Y-52362295D02*
X127104759Y-52362295D01*
X127104759Y-52362295D02*
X126990473Y-52324200D01*
X126990473Y-52324200D02*
X126914283Y-52248009D01*
X126914283Y-52248009D02*
X126876188Y-52171819D01*
X126876188Y-52171819D02*
X126838092Y-52019438D01*
X126838092Y-52019438D02*
X126838092Y-51905152D01*
X126838092Y-51905152D02*
X126876188Y-51752771D01*
X126876188Y-51752771D02*
X126914283Y-51676580D01*
X126914283Y-51676580D02*
X126990473Y-51600390D01*
X126990473Y-51600390D02*
X127104759Y-51562295D01*
X127104759Y-51562295D02*
X127180950Y-51562295D01*
X127180950Y-51562295D02*
X127295235Y-51600390D01*
X127295235Y-51600390D02*
X127333331Y-51638485D01*
X128019045Y-52362295D02*
X128019045Y-51943247D01*
X128019045Y-51943247D02*
X127980950Y-51867057D01*
X127980950Y-51867057D02*
X127904759Y-51828961D01*
X127904759Y-51828961D02*
X127752378Y-51828961D01*
X127752378Y-51828961D02*
X127676188Y-51867057D01*
X128019045Y-52324200D02*
X127942854Y-52362295D01*
X127942854Y-52362295D02*
X127752378Y-52362295D01*
X127752378Y-52362295D02*
X127676188Y-52324200D01*
X127676188Y-52324200D02*
X127638092Y-52248009D01*
X127638092Y-52248009D02*
X127638092Y-52171819D01*
X127638092Y-52171819D02*
X127676188Y-52095628D01*
X127676188Y-52095628D02*
X127752378Y-52057533D01*
X127752378Y-52057533D02*
X127942854Y-52057533D01*
X127942854Y-52057533D02*
X128019045Y-52019438D01*
X128399998Y-52362295D02*
X128399998Y-51828961D01*
X128399998Y-51905152D02*
X128438093Y-51867057D01*
X128438093Y-51867057D02*
X128514283Y-51828961D01*
X128514283Y-51828961D02*
X128628569Y-51828961D01*
X128628569Y-51828961D02*
X128704760Y-51867057D01*
X128704760Y-51867057D02*
X128742855Y-51943247D01*
X128742855Y-51943247D02*
X128742855Y-52362295D01*
X128742855Y-51943247D02*
X128780950Y-51867057D01*
X128780950Y-51867057D02*
X128857141Y-51828961D01*
X128857141Y-51828961D02*
X128971426Y-51828961D01*
X128971426Y-51828961D02*
X129047617Y-51867057D01*
X129047617Y-51867057D02*
X129085712Y-51943247D01*
X129085712Y-51943247D02*
X129085712Y-52362295D01*
X129771427Y-52324200D02*
X129695236Y-52362295D01*
X129695236Y-52362295D02*
X129542855Y-52362295D01*
X129542855Y-52362295D02*
X129466665Y-52324200D01*
X129466665Y-52324200D02*
X129428569Y-52248009D01*
X129428569Y-52248009D02*
X129428569Y-51943247D01*
X129428569Y-51943247D02*
X129466665Y-51867057D01*
X129466665Y-51867057D02*
X129542855Y-51828961D01*
X129542855Y-51828961D02*
X129695236Y-51828961D01*
X129695236Y-51828961D02*
X129771427Y-51867057D01*
X129771427Y-51867057D02*
X129809522Y-51943247D01*
X129809522Y-51943247D02*
X129809522Y-52019438D01*
X129809522Y-52019438D02*
X129428569Y-52095628D01*
X130152379Y-52362295D02*
X130152379Y-51828961D01*
X130152379Y-51981342D02*
X130190474Y-51905152D01*
X130190474Y-51905152D02*
X130228569Y-51867057D01*
X130228569Y-51867057D02*
X130304760Y-51828961D01*
X130304760Y-51828961D02*
X130380950Y-51828961D01*
X130990474Y-52362295D02*
X130990474Y-51943247D01*
X130990474Y-51943247D02*
X130952379Y-51867057D01*
X130952379Y-51867057D02*
X130876188Y-51828961D01*
X130876188Y-51828961D02*
X130723807Y-51828961D01*
X130723807Y-51828961D02*
X130647617Y-51867057D01*
X130990474Y-52324200D02*
X130914283Y-52362295D01*
X130914283Y-52362295D02*
X130723807Y-52362295D01*
X130723807Y-52362295D02*
X130647617Y-52324200D01*
X130647617Y-52324200D02*
X130609521Y-52248009D01*
X130609521Y-52248009D02*
X130609521Y-52171819D01*
X130609521Y-52171819D02*
X130647617Y-52095628D01*
X130647617Y-52095628D02*
X130723807Y-52057533D01*
X130723807Y-52057533D02*
X130914283Y-52057533D01*
X130914283Y-52057533D02*
X130990474Y-52019438D01*
X132323808Y-52324200D02*
X132247617Y-52362295D01*
X132247617Y-52362295D02*
X132095236Y-52362295D01*
X132095236Y-52362295D02*
X132019046Y-52324200D01*
X132019046Y-52324200D02*
X131980951Y-52286104D01*
X131980951Y-52286104D02*
X131942855Y-52209914D01*
X131942855Y-52209914D02*
X131942855Y-51981342D01*
X131942855Y-51981342D02*
X131980951Y-51905152D01*
X131980951Y-51905152D02*
X132019046Y-51867057D01*
X132019046Y-51867057D02*
X132095236Y-51828961D01*
X132095236Y-51828961D02*
X132247617Y-51828961D01*
X132247617Y-51828961D02*
X132323808Y-51867057D01*
X133009522Y-52362295D02*
X133009522Y-51943247D01*
X133009522Y-51943247D02*
X132971427Y-51867057D01*
X132971427Y-51867057D02*
X132895236Y-51828961D01*
X132895236Y-51828961D02*
X132742855Y-51828961D01*
X132742855Y-51828961D02*
X132666665Y-51867057D01*
X133009522Y-52324200D02*
X132933331Y-52362295D01*
X132933331Y-52362295D02*
X132742855Y-52362295D01*
X132742855Y-52362295D02*
X132666665Y-52324200D01*
X132666665Y-52324200D02*
X132628569Y-52248009D01*
X132628569Y-52248009D02*
X132628569Y-52171819D01*
X132628569Y-52171819D02*
X132666665Y-52095628D01*
X132666665Y-52095628D02*
X132742855Y-52057533D01*
X132742855Y-52057533D02*
X132933331Y-52057533D01*
X132933331Y-52057533D02*
X133009522Y-52019438D01*
X133390475Y-52362295D02*
X133390475Y-51562295D01*
X133390475Y-51867057D02*
X133466665Y-51828961D01*
X133466665Y-51828961D02*
X133619046Y-51828961D01*
X133619046Y-51828961D02*
X133695237Y-51867057D01*
X133695237Y-51867057D02*
X133733332Y-51905152D01*
X133733332Y-51905152D02*
X133771427Y-51981342D01*
X133771427Y-51981342D02*
X133771427Y-52209914D01*
X133771427Y-52209914D02*
X133733332Y-52286104D01*
X133733332Y-52286104D02*
X133695237Y-52324200D01*
X133695237Y-52324200D02*
X133619046Y-52362295D01*
X133619046Y-52362295D02*
X133466665Y-52362295D01*
X133466665Y-52362295D02*
X133390475Y-52324200D01*
X134228570Y-52362295D02*
X134152380Y-52324200D01*
X134152380Y-52324200D02*
X134114285Y-52248009D01*
X134114285Y-52248009D02*
X134114285Y-51562295D01*
X134838095Y-52324200D02*
X134761904Y-52362295D01*
X134761904Y-52362295D02*
X134609523Y-52362295D01*
X134609523Y-52362295D02*
X134533333Y-52324200D01*
X134533333Y-52324200D02*
X134495237Y-52248009D01*
X134495237Y-52248009D02*
X134495237Y-51943247D01*
X134495237Y-51943247D02*
X134533333Y-51867057D01*
X134533333Y-51867057D02*
X134609523Y-51828961D01*
X134609523Y-51828961D02*
X134761904Y-51828961D01*
X134761904Y-51828961D02*
X134838095Y-51867057D01*
X134838095Y-51867057D02*
X134876190Y-51943247D01*
X134876190Y-51943247D02*
X134876190Y-52019438D01*
X134876190Y-52019438D02*
X134495237Y-52095628D01*
X135828571Y-51828961D02*
X135828571Y-52628961D01*
X135828571Y-51867057D02*
X135904761Y-51828961D01*
X135904761Y-51828961D02*
X136057142Y-51828961D01*
X136057142Y-51828961D02*
X136133333Y-51867057D01*
X136133333Y-51867057D02*
X136171428Y-51905152D01*
X136171428Y-51905152D02*
X136209523Y-51981342D01*
X136209523Y-51981342D02*
X136209523Y-52209914D01*
X136209523Y-52209914D02*
X136171428Y-52286104D01*
X136171428Y-52286104D02*
X136133333Y-52324200D01*
X136133333Y-52324200D02*
X136057142Y-52362295D01*
X136057142Y-52362295D02*
X135904761Y-52362295D01*
X135904761Y-52362295D02*
X135828571Y-52324200D01*
X136895238Y-52362295D02*
X136895238Y-51943247D01*
X136895238Y-51943247D02*
X136857143Y-51867057D01*
X136857143Y-51867057D02*
X136780952Y-51828961D01*
X136780952Y-51828961D02*
X136628571Y-51828961D01*
X136628571Y-51828961D02*
X136552381Y-51867057D01*
X136895238Y-52324200D02*
X136819047Y-52362295D01*
X136819047Y-52362295D02*
X136628571Y-52362295D01*
X136628571Y-52362295D02*
X136552381Y-52324200D01*
X136552381Y-52324200D02*
X136514285Y-52248009D01*
X136514285Y-52248009D02*
X136514285Y-52171819D01*
X136514285Y-52171819D02*
X136552381Y-52095628D01*
X136552381Y-52095628D02*
X136628571Y-52057533D01*
X136628571Y-52057533D02*
X136819047Y-52057533D01*
X136819047Y-52057533D02*
X136895238Y-52019438D01*
X137276191Y-52362295D02*
X137276191Y-51828961D01*
X137276191Y-51981342D02*
X137314286Y-51905152D01*
X137314286Y-51905152D02*
X137352381Y-51867057D01*
X137352381Y-51867057D02*
X137428572Y-51828961D01*
X137428572Y-51828961D02*
X137504762Y-51828961D01*
X137771429Y-52362295D02*
X137771429Y-51562295D01*
X137847619Y-52057533D02*
X138076191Y-52362295D01*
X138076191Y-51828961D02*
X137771429Y-52133723D01*
X139142857Y-52362295D02*
X139066667Y-52324200D01*
X139066667Y-52324200D02*
X139028572Y-52286104D01*
X139028572Y-52286104D02*
X138990476Y-52209914D01*
X138990476Y-52209914D02*
X138990476Y-51981342D01*
X138990476Y-51981342D02*
X139028572Y-51905152D01*
X139028572Y-51905152D02*
X139066667Y-51867057D01*
X139066667Y-51867057D02*
X139142857Y-51828961D01*
X139142857Y-51828961D02*
X139257143Y-51828961D01*
X139257143Y-51828961D02*
X139333334Y-51867057D01*
X139333334Y-51867057D02*
X139371429Y-51905152D01*
X139371429Y-51905152D02*
X139409524Y-51981342D01*
X139409524Y-51981342D02*
X139409524Y-52209914D01*
X139409524Y-52209914D02*
X139371429Y-52286104D01*
X139371429Y-52286104D02*
X139333334Y-52324200D01*
X139333334Y-52324200D02*
X139257143Y-52362295D01*
X139257143Y-52362295D02*
X139142857Y-52362295D01*
X139752382Y-51828961D02*
X139752382Y-52362295D01*
X139752382Y-51905152D02*
X139790477Y-51867057D01*
X139790477Y-51867057D02*
X139866667Y-51828961D01*
X139866667Y-51828961D02*
X139980953Y-51828961D01*
X139980953Y-51828961D02*
X140057144Y-51867057D01*
X140057144Y-51867057D02*
X140095239Y-51943247D01*
X140095239Y-51943247D02*
X140095239Y-52362295D01*
X140590477Y-52362295D02*
X140514287Y-52324200D01*
X140514287Y-52324200D02*
X140476192Y-52248009D01*
X140476192Y-52248009D02*
X140476192Y-51562295D01*
X140819049Y-51828961D02*
X141009525Y-52362295D01*
X141200002Y-51828961D02*
X141009525Y-52362295D01*
X141009525Y-52362295D02*
X140933335Y-52552771D01*
X140933335Y-52552771D02*
X140895240Y-52590866D01*
X140895240Y-52590866D02*
X140819049Y-52628961D01*
X173928571Y-80133723D02*
X174309524Y-80133723D01*
X173852381Y-80362295D02*
X174119048Y-79562295D01*
X174119048Y-79562295D02*
X174385714Y-80362295D01*
X174614285Y-79638485D02*
X174652381Y-79600390D01*
X174652381Y-79600390D02*
X174728571Y-79562295D01*
X174728571Y-79562295D02*
X174919047Y-79562295D01*
X174919047Y-79562295D02*
X174995238Y-79600390D01*
X174995238Y-79600390D02*
X175033333Y-79638485D01*
X175033333Y-79638485D02*
X175071428Y-79714676D01*
X175071428Y-79714676D02*
X175071428Y-79790866D01*
X175071428Y-79790866D02*
X175033333Y-79905152D01*
X175033333Y-79905152D02*
X174576190Y-80362295D01*
X174576190Y-80362295D02*
X175071428Y-80362295D01*
X173928571Y-85133723D02*
X174309524Y-85133723D01*
X173852381Y-85362295D02*
X174119048Y-84562295D01*
X174119048Y-84562295D02*
X174385714Y-85362295D01*
X175071428Y-85362295D02*
X174614285Y-85362295D01*
X174842857Y-85362295D02*
X174842857Y-84562295D01*
X174842857Y-84562295D02*
X174766666Y-84676580D01*
X174766666Y-84676580D02*
X174690476Y-84752771D01*
X174690476Y-84752771D02*
X174614285Y-84790866D01*
X174176190Y-89943247D02*
X174290476Y-89981342D01*
X174290476Y-89981342D02*
X174328571Y-90019438D01*
X174328571Y-90019438D02*
X174366667Y-90095628D01*
X174366667Y-90095628D02*
X174366667Y-90209914D01*
X174366667Y-90209914D02*
X174328571Y-90286104D01*
X174328571Y-90286104D02*
X174290476Y-90324200D01*
X174290476Y-90324200D02*
X174214286Y-90362295D01*
X174214286Y-90362295D02*
X173909524Y-90362295D01*
X173909524Y-90362295D02*
X173909524Y-89562295D01*
X173909524Y-89562295D02*
X174176190Y-89562295D01*
X174176190Y-89562295D02*
X174252381Y-89600390D01*
X174252381Y-89600390D02*
X174290476Y-89638485D01*
X174290476Y-89638485D02*
X174328571Y-89714676D01*
X174328571Y-89714676D02*
X174328571Y-89790866D01*
X174328571Y-89790866D02*
X174290476Y-89867057D01*
X174290476Y-89867057D02*
X174252381Y-89905152D01*
X174252381Y-89905152D02*
X174176190Y-89943247D01*
X174176190Y-89943247D02*
X173909524Y-89943247D01*
X175128571Y-90362295D02*
X174671428Y-90362295D01*
X174900000Y-90362295D02*
X174900000Y-89562295D01*
X174900000Y-89562295D02*
X174823809Y-89676580D01*
X174823809Y-89676580D02*
X174747619Y-89752771D01*
X174747619Y-89752771D02*
X174671428Y-89790866D01*
X174176190Y-94943247D02*
X174290476Y-94981342D01*
X174290476Y-94981342D02*
X174328571Y-95019438D01*
X174328571Y-95019438D02*
X174366667Y-95095628D01*
X174366667Y-95095628D02*
X174366667Y-95209914D01*
X174366667Y-95209914D02*
X174328571Y-95286104D01*
X174328571Y-95286104D02*
X174290476Y-95324200D01*
X174290476Y-95324200D02*
X174214286Y-95362295D01*
X174214286Y-95362295D02*
X173909524Y-95362295D01*
X173909524Y-95362295D02*
X173909524Y-94562295D01*
X173909524Y-94562295D02*
X174176190Y-94562295D01*
X174176190Y-94562295D02*
X174252381Y-94600390D01*
X174252381Y-94600390D02*
X174290476Y-94638485D01*
X174290476Y-94638485D02*
X174328571Y-94714676D01*
X174328571Y-94714676D02*
X174328571Y-94790866D01*
X174328571Y-94790866D02*
X174290476Y-94867057D01*
X174290476Y-94867057D02*
X174252381Y-94905152D01*
X174252381Y-94905152D02*
X174176190Y-94943247D01*
X174176190Y-94943247D02*
X173909524Y-94943247D01*
X174671428Y-94638485D02*
X174709524Y-94600390D01*
X174709524Y-94600390D02*
X174785714Y-94562295D01*
X174785714Y-94562295D02*
X174976190Y-94562295D01*
X174976190Y-94562295D02*
X175052381Y-94600390D01*
X175052381Y-94600390D02*
X175090476Y-94638485D01*
X175090476Y-94638485D02*
X175128571Y-94714676D01*
X175128571Y-94714676D02*
X175128571Y-94790866D01*
X175128571Y-94790866D02*
X175090476Y-94905152D01*
X175090476Y-94905152D02*
X174633333Y-95362295D01*
X174633333Y-95362295D02*
X175128571Y-95362295D01*
X70435713Y-45508557D02*
X70435713Y-46237128D01*
X70435713Y-46237128D02*
X70478570Y-46322842D01*
X70478570Y-46322842D02*
X70521428Y-46365700D01*
X70521428Y-46365700D02*
X70607142Y-46408557D01*
X70607142Y-46408557D02*
X70778570Y-46408557D01*
X70778570Y-46408557D02*
X70864285Y-46365700D01*
X70864285Y-46365700D02*
X70907142Y-46322842D01*
X70907142Y-46322842D02*
X70949999Y-46237128D01*
X70949999Y-46237128D02*
X70949999Y-45508557D01*
X71335713Y-46365700D02*
X71464285Y-46408557D01*
X71464285Y-46408557D02*
X71678570Y-46408557D01*
X71678570Y-46408557D02*
X71764285Y-46365700D01*
X71764285Y-46365700D02*
X71807142Y-46322842D01*
X71807142Y-46322842D02*
X71849999Y-46237128D01*
X71849999Y-46237128D02*
X71849999Y-46151414D01*
X71849999Y-46151414D02*
X71807142Y-46065700D01*
X71807142Y-46065700D02*
X71764285Y-46022842D01*
X71764285Y-46022842D02*
X71678570Y-45979985D01*
X71678570Y-45979985D02*
X71507142Y-45937128D01*
X71507142Y-45937128D02*
X71421427Y-45894271D01*
X71421427Y-45894271D02*
X71378570Y-45851414D01*
X71378570Y-45851414D02*
X71335713Y-45765700D01*
X71335713Y-45765700D02*
X71335713Y-45679985D01*
X71335713Y-45679985D02*
X71378570Y-45594271D01*
X71378570Y-45594271D02*
X71421427Y-45551414D01*
X71421427Y-45551414D02*
X71507142Y-45508557D01*
X71507142Y-45508557D02*
X71721427Y-45508557D01*
X71721427Y-45508557D02*
X71849999Y-45551414D01*
X72535713Y-45937128D02*
X72664285Y-45979985D01*
X72664285Y-45979985D02*
X72707142Y-46022842D01*
X72707142Y-46022842D02*
X72749999Y-46108557D01*
X72749999Y-46108557D02*
X72749999Y-46237128D01*
X72749999Y-46237128D02*
X72707142Y-46322842D01*
X72707142Y-46322842D02*
X72664285Y-46365700D01*
X72664285Y-46365700D02*
X72578570Y-46408557D01*
X72578570Y-46408557D02*
X72235713Y-46408557D01*
X72235713Y-46408557D02*
X72235713Y-45508557D01*
X72235713Y-45508557D02*
X72535713Y-45508557D01*
X72535713Y-45508557D02*
X72621428Y-45551414D01*
X72621428Y-45551414D02*
X72664285Y-45594271D01*
X72664285Y-45594271D02*
X72707142Y-45679985D01*
X72707142Y-45679985D02*
X72707142Y-45765700D01*
X72707142Y-45765700D02*
X72664285Y-45851414D01*
X72664285Y-45851414D02*
X72621428Y-45894271D01*
X72621428Y-45894271D02*
X72535713Y-45937128D01*
X72535713Y-45937128D02*
X72235713Y-45937128D01*
X73692856Y-45808557D02*
X74035713Y-45808557D01*
X73821427Y-45508557D02*
X73821427Y-46279985D01*
X73821427Y-46279985D02*
X73864284Y-46365700D01*
X73864284Y-46365700D02*
X73949999Y-46408557D01*
X73949999Y-46408557D02*
X74035713Y-46408557D01*
X74464285Y-46408557D02*
X74378570Y-46365700D01*
X74378570Y-46365700D02*
X74335713Y-46322842D01*
X74335713Y-46322842D02*
X74292856Y-46237128D01*
X74292856Y-46237128D02*
X74292856Y-45979985D01*
X74292856Y-45979985D02*
X74335713Y-45894271D01*
X74335713Y-45894271D02*
X74378570Y-45851414D01*
X74378570Y-45851414D02*
X74464285Y-45808557D01*
X74464285Y-45808557D02*
X74592856Y-45808557D01*
X74592856Y-45808557D02*
X74678570Y-45851414D01*
X74678570Y-45851414D02*
X74721428Y-45894271D01*
X74721428Y-45894271D02*
X74764285Y-45979985D01*
X74764285Y-45979985D02*
X74764285Y-46237128D01*
X74764285Y-46237128D02*
X74721428Y-46322842D01*
X74721428Y-46322842D02*
X74678570Y-46365700D01*
X74678570Y-46365700D02*
X74592856Y-46408557D01*
X74592856Y-46408557D02*
X74464285Y-46408557D01*
X75964285Y-46408557D02*
X75878570Y-46365700D01*
X75878570Y-46365700D02*
X75835713Y-46279985D01*
X75835713Y-46279985D02*
X75835713Y-45508557D01*
X76692857Y-46408557D02*
X76692857Y-45937128D01*
X76692857Y-45937128D02*
X76649999Y-45851414D01*
X76649999Y-45851414D02*
X76564285Y-45808557D01*
X76564285Y-45808557D02*
X76392857Y-45808557D01*
X76392857Y-45808557D02*
X76307142Y-45851414D01*
X76692857Y-46365700D02*
X76607142Y-46408557D01*
X76607142Y-46408557D02*
X76392857Y-46408557D01*
X76392857Y-46408557D02*
X76307142Y-46365700D01*
X76307142Y-46365700D02*
X76264285Y-46279985D01*
X76264285Y-46279985D02*
X76264285Y-46194271D01*
X76264285Y-46194271D02*
X76307142Y-46108557D01*
X76307142Y-46108557D02*
X76392857Y-46065700D01*
X76392857Y-46065700D02*
X76607142Y-46065700D01*
X76607142Y-46065700D02*
X76692857Y-46022842D01*
X77121428Y-45808557D02*
X77121428Y-46708557D01*
X77121428Y-45851414D02*
X77207143Y-45808557D01*
X77207143Y-45808557D02*
X77378571Y-45808557D01*
X77378571Y-45808557D02*
X77464285Y-45851414D01*
X77464285Y-45851414D02*
X77507143Y-45894271D01*
X77507143Y-45894271D02*
X77550000Y-45979985D01*
X77550000Y-45979985D02*
X77550000Y-46237128D01*
X77550000Y-46237128D02*
X77507143Y-46322842D01*
X77507143Y-46322842D02*
X77464285Y-46365700D01*
X77464285Y-46365700D02*
X77378571Y-46408557D01*
X77378571Y-46408557D02*
X77207143Y-46408557D01*
X77207143Y-46408557D02*
X77121428Y-46365700D01*
X77807143Y-45808557D02*
X78150000Y-45808557D01*
X77935714Y-45508557D02*
X77935714Y-46279985D01*
X77935714Y-46279985D02*
X77978571Y-46365700D01*
X77978571Y-46365700D02*
X78064286Y-46408557D01*
X78064286Y-46408557D02*
X78150000Y-46408557D01*
X78578572Y-46408557D02*
X78492857Y-46365700D01*
X78492857Y-46365700D02*
X78450000Y-46322842D01*
X78450000Y-46322842D02*
X78407143Y-46237128D01*
X78407143Y-46237128D02*
X78407143Y-45979985D01*
X78407143Y-45979985D02*
X78450000Y-45894271D01*
X78450000Y-45894271D02*
X78492857Y-45851414D01*
X78492857Y-45851414D02*
X78578572Y-45808557D01*
X78578572Y-45808557D02*
X78707143Y-45808557D01*
X78707143Y-45808557D02*
X78792857Y-45851414D01*
X78792857Y-45851414D02*
X78835715Y-45894271D01*
X78835715Y-45894271D02*
X78878572Y-45979985D01*
X78878572Y-45979985D02*
X78878572Y-46237128D01*
X78878572Y-46237128D02*
X78835715Y-46322842D01*
X78835715Y-46322842D02*
X78792857Y-46365700D01*
X78792857Y-46365700D02*
X78707143Y-46408557D01*
X78707143Y-46408557D02*
X78578572Y-46408557D01*
X79264286Y-45808557D02*
X79264286Y-46708557D01*
X79264286Y-45851414D02*
X79350001Y-45808557D01*
X79350001Y-45808557D02*
X79521429Y-45808557D01*
X79521429Y-45808557D02*
X79607143Y-45851414D01*
X79607143Y-45851414D02*
X79650001Y-45894271D01*
X79650001Y-45894271D02*
X79692858Y-45979985D01*
X79692858Y-45979985D02*
X79692858Y-46237128D01*
X79692858Y-46237128D02*
X79650001Y-46322842D01*
X79650001Y-46322842D02*
X79607143Y-46365700D01*
X79607143Y-46365700D02*
X79521429Y-46408557D01*
X79521429Y-46408557D02*
X79350001Y-46408557D01*
X79350001Y-46408557D02*
X79264286Y-46365700D01*
X80892858Y-46408557D02*
X80807143Y-46365700D01*
X80807143Y-46365700D02*
X80764286Y-46322842D01*
X80764286Y-46322842D02*
X80721429Y-46237128D01*
X80721429Y-46237128D02*
X80721429Y-45979985D01*
X80721429Y-45979985D02*
X80764286Y-45894271D01*
X80764286Y-45894271D02*
X80807143Y-45851414D01*
X80807143Y-45851414D02*
X80892858Y-45808557D01*
X80892858Y-45808557D02*
X81021429Y-45808557D01*
X81021429Y-45808557D02*
X81107143Y-45851414D01*
X81107143Y-45851414D02*
X81150001Y-45894271D01*
X81150001Y-45894271D02*
X81192858Y-45979985D01*
X81192858Y-45979985D02*
X81192858Y-46237128D01*
X81192858Y-46237128D02*
X81150001Y-46322842D01*
X81150001Y-46322842D02*
X81107143Y-46365700D01*
X81107143Y-46365700D02*
X81021429Y-46408557D01*
X81021429Y-46408557D02*
X80892858Y-46408557D01*
X81578572Y-45808557D02*
X81578572Y-46408557D01*
X81578572Y-45894271D02*
X81621429Y-45851414D01*
X81621429Y-45851414D02*
X81707144Y-45808557D01*
X81707144Y-45808557D02*
X81835715Y-45808557D01*
X81835715Y-45808557D02*
X81921429Y-45851414D01*
X81921429Y-45851414D02*
X81964287Y-45937128D01*
X81964287Y-45937128D02*
X81964287Y-46408557D01*
X83078572Y-46408557D02*
X83078572Y-45508557D01*
X83078572Y-45508557D02*
X83421429Y-45508557D01*
X83421429Y-45508557D02*
X83507144Y-45551414D01*
X83507144Y-45551414D02*
X83550001Y-45594271D01*
X83550001Y-45594271D02*
X83592858Y-45679985D01*
X83592858Y-45679985D02*
X83592858Y-45808557D01*
X83592858Y-45808557D02*
X83550001Y-45894271D01*
X83550001Y-45894271D02*
X83507144Y-45937128D01*
X83507144Y-45937128D02*
X83421429Y-45979985D01*
X83421429Y-45979985D02*
X83078572Y-45979985D01*
X83978572Y-46408557D02*
X83978572Y-45808557D01*
X83978572Y-45508557D02*
X83935715Y-45551414D01*
X83935715Y-45551414D02*
X83978572Y-45594271D01*
X83978572Y-45594271D02*
X84021429Y-45551414D01*
X84021429Y-45551414D02*
X83978572Y-45508557D01*
X83978572Y-45508557D02*
X83978572Y-45594271D01*
X84792858Y-46365700D02*
X84707143Y-46408557D01*
X84707143Y-46408557D02*
X84535715Y-46408557D01*
X84535715Y-46408557D02*
X84450000Y-46365700D01*
X84450000Y-46365700D02*
X84407143Y-46322842D01*
X84407143Y-46322842D02*
X84364286Y-46237128D01*
X84364286Y-46237128D02*
X84364286Y-45979985D01*
X84364286Y-45979985D02*
X84407143Y-45894271D01*
X84407143Y-45894271D02*
X84450000Y-45851414D01*
X84450000Y-45851414D02*
X84535715Y-45808557D01*
X84535715Y-45808557D02*
X84707143Y-45808557D01*
X84707143Y-45808557D02*
X84792858Y-45851414D01*
X85307144Y-46408557D02*
X85221429Y-46365700D01*
X85221429Y-46365700D02*
X85178572Y-46322842D01*
X85178572Y-46322842D02*
X85135715Y-46237128D01*
X85135715Y-46237128D02*
X85135715Y-45979985D01*
X85135715Y-45979985D02*
X85178572Y-45894271D01*
X85178572Y-45894271D02*
X85221429Y-45851414D01*
X85221429Y-45851414D02*
X85307144Y-45808557D01*
X85307144Y-45808557D02*
X85435715Y-45808557D01*
X85435715Y-45808557D02*
X85521429Y-45851414D01*
X85521429Y-45851414D02*
X85564287Y-45894271D01*
X85564287Y-45894271D02*
X85607144Y-45979985D01*
X85607144Y-45979985D02*
X85607144Y-46237128D01*
X85607144Y-46237128D02*
X85564287Y-46322842D01*
X85564287Y-46322842D02*
X85521429Y-46365700D01*
X85521429Y-46365700D02*
X85435715Y-46408557D01*
X85435715Y-46408557D02*
X85307144Y-46408557D01*
X147657142Y-56065700D02*
X148342857Y-56065700D01*
X147999999Y-56408557D02*
X147999999Y-55722842D01*
X153657142Y-56065700D02*
X154342857Y-56065700D01*
X69066665Y-41239866D02*
X69866665Y-41239866D01*
X69466665Y-42639866D02*
X69466665Y-41239866D01*
X70333332Y-41239866D02*
X70333332Y-42373200D01*
X70333332Y-42373200D02*
X70399999Y-42506533D01*
X70399999Y-42506533D02*
X70466665Y-42573200D01*
X70466665Y-42573200D02*
X70599999Y-42639866D01*
X70599999Y-42639866D02*
X70866665Y-42639866D01*
X70866665Y-42639866D02*
X70999999Y-42573200D01*
X70999999Y-42573200D02*
X71066665Y-42506533D01*
X71066665Y-42506533D02*
X71133332Y-42373200D01*
X71133332Y-42373200D02*
X71133332Y-41239866D01*
X72599999Y-42639866D02*
X72133332Y-41973200D01*
X71799999Y-42639866D02*
X71799999Y-41239866D01*
X71799999Y-41239866D02*
X72333332Y-41239866D01*
X72333332Y-41239866D02*
X72466666Y-41306533D01*
X72466666Y-41306533D02*
X72533332Y-41373200D01*
X72533332Y-41373200D02*
X72599999Y-41506533D01*
X72599999Y-41506533D02*
X72599999Y-41706533D01*
X72599999Y-41706533D02*
X72533332Y-41839866D01*
X72533332Y-41839866D02*
X72466666Y-41906533D01*
X72466666Y-41906533D02*
X72333332Y-41973200D01*
X72333332Y-41973200D02*
X71799999Y-41973200D01*
X73999999Y-42639866D02*
X73533332Y-41973200D01*
X73199999Y-42639866D02*
X73199999Y-41239866D01*
X73199999Y-41239866D02*
X73733332Y-41239866D01*
X73733332Y-41239866D02*
X73866666Y-41306533D01*
X73866666Y-41306533D02*
X73933332Y-41373200D01*
X73933332Y-41373200D02*
X73999999Y-41506533D01*
X73999999Y-41506533D02*
X73999999Y-41706533D01*
X73999999Y-41706533D02*
X73933332Y-41839866D01*
X73933332Y-41839866D02*
X73866666Y-41906533D01*
X73866666Y-41906533D02*
X73733332Y-41973200D01*
X73733332Y-41973200D02*
X73199999Y-41973200D01*
X74599999Y-41906533D02*
X75066666Y-41906533D01*
X75266666Y-42639866D02*
X74599999Y-42639866D01*
X74599999Y-42639866D02*
X74599999Y-41239866D01*
X74599999Y-41239866D02*
X75266666Y-41239866D01*
X75666666Y-41239866D02*
X76466666Y-41239866D01*
X76066666Y-42639866D02*
X76066666Y-41239866D01*
X78800000Y-42506533D02*
X78733333Y-42573200D01*
X78733333Y-42573200D02*
X78533333Y-42639866D01*
X78533333Y-42639866D02*
X78400000Y-42639866D01*
X78400000Y-42639866D02*
X78200000Y-42573200D01*
X78200000Y-42573200D02*
X78066667Y-42439866D01*
X78066667Y-42439866D02*
X78000000Y-42306533D01*
X78000000Y-42306533D02*
X77933333Y-42039866D01*
X77933333Y-42039866D02*
X77933333Y-41839866D01*
X77933333Y-41839866D02*
X78000000Y-41573200D01*
X78000000Y-41573200D02*
X78066667Y-41439866D01*
X78066667Y-41439866D02*
X78200000Y-41306533D01*
X78200000Y-41306533D02*
X78400000Y-41239866D01*
X78400000Y-41239866D02*
X78533333Y-41239866D01*
X78533333Y-41239866D02*
X78733333Y-41306533D01*
X78733333Y-41306533D02*
X78800000Y-41373200D01*
X79666667Y-41239866D02*
X79933333Y-41239866D01*
X79933333Y-41239866D02*
X80066667Y-41306533D01*
X80066667Y-41306533D02*
X80200000Y-41439866D01*
X80200000Y-41439866D02*
X80266667Y-41706533D01*
X80266667Y-41706533D02*
X80266667Y-42173200D01*
X80266667Y-42173200D02*
X80200000Y-42439866D01*
X80200000Y-42439866D02*
X80066667Y-42573200D01*
X80066667Y-42573200D02*
X79933333Y-42639866D01*
X79933333Y-42639866D02*
X79666667Y-42639866D01*
X79666667Y-42639866D02*
X79533333Y-42573200D01*
X79533333Y-42573200D02*
X79400000Y-42439866D01*
X79400000Y-42439866D02*
X79333333Y-42173200D01*
X79333333Y-42173200D02*
X79333333Y-41706533D01*
X79333333Y-41706533D02*
X79400000Y-41439866D01*
X79400000Y-41439866D02*
X79533333Y-41306533D01*
X79533333Y-41306533D02*
X79666667Y-41239866D01*
X80866667Y-42639866D02*
X80866667Y-41239866D01*
X80866667Y-41239866D02*
X81666667Y-42639866D01*
X81666667Y-42639866D02*
X81666667Y-41239866D01*
X82133334Y-41239866D02*
X82933334Y-41239866D01*
X82533334Y-42639866D02*
X82533334Y-41239866D01*
X84200001Y-42639866D02*
X83733334Y-41973200D01*
X83400001Y-42639866D02*
X83400001Y-41239866D01*
X83400001Y-41239866D02*
X83933334Y-41239866D01*
X83933334Y-41239866D02*
X84066668Y-41306533D01*
X84066668Y-41306533D02*
X84133334Y-41373200D01*
X84133334Y-41373200D02*
X84200001Y-41506533D01*
X84200001Y-41506533D02*
X84200001Y-41706533D01*
X84200001Y-41706533D02*
X84133334Y-41839866D01*
X84133334Y-41839866D02*
X84066668Y-41906533D01*
X84066668Y-41906533D02*
X83933334Y-41973200D01*
X83933334Y-41973200D02*
X83400001Y-41973200D01*
X85066668Y-41239866D02*
X85333334Y-41239866D01*
X85333334Y-41239866D02*
X85466668Y-41306533D01*
X85466668Y-41306533D02*
X85600001Y-41439866D01*
X85600001Y-41439866D02*
X85666668Y-41706533D01*
X85666668Y-41706533D02*
X85666668Y-42173200D01*
X85666668Y-42173200D02*
X85600001Y-42439866D01*
X85600001Y-42439866D02*
X85466668Y-42573200D01*
X85466668Y-42573200D02*
X85333334Y-42639866D01*
X85333334Y-42639866D02*
X85066668Y-42639866D01*
X85066668Y-42639866D02*
X84933334Y-42573200D01*
X84933334Y-42573200D02*
X84800001Y-42439866D01*
X84800001Y-42439866D02*
X84733334Y-42173200D01*
X84733334Y-42173200D02*
X84733334Y-41706533D01*
X84733334Y-41706533D02*
X84800001Y-41439866D01*
X84800001Y-41439866D02*
X84933334Y-41306533D01*
X84933334Y-41306533D02*
X85066668Y-41239866D01*
X86933335Y-42639866D02*
X86266668Y-42639866D01*
X86266668Y-42639866D02*
X86266668Y-41239866D01*
X42074819Y-92333333D02*
X42789104Y-92333333D01*
X42789104Y-92333333D02*
X42931961Y-92380952D01*
X42931961Y-92380952D02*
X43027200Y-92476190D01*
X43027200Y-92476190D02*
X43074819Y-92619047D01*
X43074819Y-92619047D02*
X43074819Y-92714285D01*
X42074819Y-91428571D02*
X42074819Y-91619047D01*
X42074819Y-91619047D02*
X42122438Y-91714285D01*
X42122438Y-91714285D02*
X42170057Y-91761904D01*
X42170057Y-91761904D02*
X42312914Y-91857142D01*
X42312914Y-91857142D02*
X42503390Y-91904761D01*
X42503390Y-91904761D02*
X42884342Y-91904761D01*
X42884342Y-91904761D02*
X42979580Y-91857142D01*
X42979580Y-91857142D02*
X43027200Y-91809523D01*
X43027200Y-91809523D02*
X43074819Y-91714285D01*
X43074819Y-91714285D02*
X43074819Y-91523809D01*
X43074819Y-91523809D02*
X43027200Y-91428571D01*
X43027200Y-91428571D02*
X42979580Y-91380952D01*
X42979580Y-91380952D02*
X42884342Y-91333333D01*
X42884342Y-91333333D02*
X42646247Y-91333333D01*
X42646247Y-91333333D02*
X42551009Y-91380952D01*
X42551009Y-91380952D02*
X42503390Y-91428571D01*
X42503390Y-91428571D02*
X42455771Y-91523809D01*
X42455771Y-91523809D02*
X42455771Y-91714285D01*
X42455771Y-91714285D02*
X42503390Y-91809523D01*
X42503390Y-91809523D02*
X42551009Y-91857142D01*
X42551009Y-91857142D02*
X42646247Y-91904761D01*
X42074819Y-68333333D02*
X42789104Y-68333333D01*
X42789104Y-68333333D02*
X42931961Y-68380952D01*
X42931961Y-68380952D02*
X43027200Y-68476190D01*
X43027200Y-68476190D02*
X43074819Y-68619047D01*
X43074819Y-68619047D02*
X43074819Y-68714285D01*
X42408152Y-67428571D02*
X43074819Y-67428571D01*
X42027200Y-67666666D02*
X42741485Y-67904761D01*
X42741485Y-67904761D02*
X42741485Y-67285714D01*
X149666666Y-36374819D02*
X149666666Y-37089104D01*
X149666666Y-37089104D02*
X149619047Y-37231961D01*
X149619047Y-37231961D02*
X149523809Y-37327200D01*
X149523809Y-37327200D02*
X149380952Y-37374819D01*
X149380952Y-37374819D02*
X149285714Y-37374819D01*
X150285714Y-36803390D02*
X150190476Y-36755771D01*
X150190476Y-36755771D02*
X150142857Y-36708152D01*
X150142857Y-36708152D02*
X150095238Y-36612914D01*
X150095238Y-36612914D02*
X150095238Y-36565295D01*
X150095238Y-36565295D02*
X150142857Y-36470057D01*
X150142857Y-36470057D02*
X150190476Y-36422438D01*
X150190476Y-36422438D02*
X150285714Y-36374819D01*
X150285714Y-36374819D02*
X150476190Y-36374819D01*
X150476190Y-36374819D02*
X150571428Y-36422438D01*
X150571428Y-36422438D02*
X150619047Y-36470057D01*
X150619047Y-36470057D02*
X150666666Y-36565295D01*
X150666666Y-36565295D02*
X150666666Y-36612914D01*
X150666666Y-36612914D02*
X150619047Y-36708152D01*
X150619047Y-36708152D02*
X150571428Y-36755771D01*
X150571428Y-36755771D02*
X150476190Y-36803390D01*
X150476190Y-36803390D02*
X150285714Y-36803390D01*
X150285714Y-36803390D02*
X150190476Y-36851009D01*
X150190476Y-36851009D02*
X150142857Y-36898628D01*
X150142857Y-36898628D02*
X150095238Y-36993866D01*
X150095238Y-36993866D02*
X150095238Y-37184342D01*
X150095238Y-37184342D02*
X150142857Y-37279580D01*
X150142857Y-37279580D02*
X150190476Y-37327200D01*
X150190476Y-37327200D02*
X150285714Y-37374819D01*
X150285714Y-37374819D02*
X150476190Y-37374819D01*
X150476190Y-37374819D02*
X150571428Y-37327200D01*
X150571428Y-37327200D02*
X150619047Y-37279580D01*
X150619047Y-37279580D02*
X150666666Y-37184342D01*
X150666666Y-37184342D02*
X150666666Y-36993866D01*
X150666666Y-36993866D02*
X150619047Y-36898628D01*
X150619047Y-36898628D02*
X150571428Y-36851009D01*
X150571428Y-36851009D02*
X150476190Y-36803390D01*
X152166666Y-53134819D02*
X152166666Y-53849104D01*
X152166666Y-53849104D02*
X152119047Y-53991961D01*
X152119047Y-53991961D02*
X152023809Y-54087200D01*
X152023809Y-54087200D02*
X151880952Y-54134819D01*
X151880952Y-54134819D02*
X151785714Y-54134819D01*
X152595238Y-53230057D02*
X152642857Y-53182438D01*
X152642857Y-53182438D02*
X152738095Y-53134819D01*
X152738095Y-53134819D02*
X152976190Y-53134819D01*
X152976190Y-53134819D02*
X153071428Y-53182438D01*
X153071428Y-53182438D02*
X153119047Y-53230057D01*
X153119047Y-53230057D02*
X153166666Y-53325295D01*
X153166666Y-53325295D02*
X153166666Y-53420533D01*
X153166666Y-53420533D02*
X153119047Y-53563390D01*
X153119047Y-53563390D02*
X152547619Y-54134819D01*
X152547619Y-54134819D02*
X153166666Y-54134819D01*
X130588095Y-61914819D02*
X130588095Y-62724342D01*
X130588095Y-62724342D02*
X130635714Y-62819580D01*
X130635714Y-62819580D02*
X130683333Y-62867200D01*
X130683333Y-62867200D02*
X130778571Y-62914819D01*
X130778571Y-62914819D02*
X130969047Y-62914819D01*
X130969047Y-62914819D02*
X131064285Y-62867200D01*
X131064285Y-62867200D02*
X131111904Y-62819580D01*
X131111904Y-62819580D02*
X131159523Y-62724342D01*
X131159523Y-62724342D02*
X131159523Y-61914819D01*
X131588095Y-62010057D02*
X131635714Y-61962438D01*
X131635714Y-61962438D02*
X131730952Y-61914819D01*
X131730952Y-61914819D02*
X131969047Y-61914819D01*
X131969047Y-61914819D02*
X132064285Y-61962438D01*
X132064285Y-61962438D02*
X132111904Y-62010057D01*
X132111904Y-62010057D02*
X132159523Y-62105295D01*
X132159523Y-62105295D02*
X132159523Y-62200533D01*
X132159523Y-62200533D02*
X132111904Y-62343390D01*
X132111904Y-62343390D02*
X131540476Y-62914819D01*
X131540476Y-62914819D02*
X132159523Y-62914819D01*
X168583333Y-54759580D02*
X168535714Y-54807200D01*
X168535714Y-54807200D02*
X168392857Y-54854819D01*
X168392857Y-54854819D02*
X168297619Y-54854819D01*
X168297619Y-54854819D02*
X168154762Y-54807200D01*
X168154762Y-54807200D02*
X168059524Y-54711961D01*
X168059524Y-54711961D02*
X168011905Y-54616723D01*
X168011905Y-54616723D02*
X167964286Y-54426247D01*
X167964286Y-54426247D02*
X167964286Y-54283390D01*
X167964286Y-54283390D02*
X168011905Y-54092914D01*
X168011905Y-54092914D02*
X168059524Y-53997676D01*
X168059524Y-53997676D02*
X168154762Y-53902438D01*
X168154762Y-53902438D02*
X168297619Y-53854819D01*
X168297619Y-53854819D02*
X168392857Y-53854819D01*
X168392857Y-53854819D02*
X168535714Y-53902438D01*
X168535714Y-53902438D02*
X168583333Y-53950057D01*
X169535714Y-54854819D02*
X168964286Y-54854819D01*
X169250000Y-54854819D02*
X169250000Y-53854819D01*
X169250000Y-53854819D02*
X169154762Y-53997676D01*
X169154762Y-53997676D02*
X169059524Y-54092914D01*
X169059524Y-54092914D02*
X168964286Y-54140533D01*
X47166666Y-97134819D02*
X47166666Y-97849104D01*
X47166666Y-97849104D02*
X47119047Y-97991961D01*
X47119047Y-97991961D02*
X47023809Y-98087200D01*
X47023809Y-98087200D02*
X46880952Y-98134819D01*
X46880952Y-98134819D02*
X46785714Y-98134819D01*
X47547619Y-97134819D02*
X48166666Y-97134819D01*
X48166666Y-97134819D02*
X47833333Y-97515771D01*
X47833333Y-97515771D02*
X47976190Y-97515771D01*
X47976190Y-97515771D02*
X48071428Y-97563390D01*
X48071428Y-97563390D02*
X48119047Y-97611009D01*
X48119047Y-97611009D02*
X48166666Y-97706247D01*
X48166666Y-97706247D02*
X48166666Y-97944342D01*
X48166666Y-97944342D02*
X48119047Y-98039580D01*
X48119047Y-98039580D02*
X48071428Y-98087200D01*
X48071428Y-98087200D02*
X47976190Y-98134819D01*
X47976190Y-98134819D02*
X47690476Y-98134819D01*
X47690476Y-98134819D02*
X47595238Y-98087200D01*
X47595238Y-98087200D02*
X47547619Y-98039580D01*
X42074819Y-80333333D02*
X42789104Y-80333333D01*
X42789104Y-80333333D02*
X42931961Y-80380952D01*
X42931961Y-80380952D02*
X43027200Y-80476190D01*
X43027200Y-80476190D02*
X43074819Y-80619047D01*
X43074819Y-80619047D02*
X43074819Y-80714285D01*
X42074819Y-79380952D02*
X42074819Y-79857142D01*
X42074819Y-79857142D02*
X42551009Y-79904761D01*
X42551009Y-79904761D02*
X42503390Y-79857142D01*
X42503390Y-79857142D02*
X42455771Y-79761904D01*
X42455771Y-79761904D02*
X42455771Y-79523809D01*
X42455771Y-79523809D02*
X42503390Y-79428571D01*
X42503390Y-79428571D02*
X42551009Y-79380952D01*
X42551009Y-79380952D02*
X42646247Y-79333333D01*
X42646247Y-79333333D02*
X42884342Y-79333333D01*
X42884342Y-79333333D02*
X42979580Y-79380952D01*
X42979580Y-79380952D02*
X43027200Y-79428571D01*
X43027200Y-79428571D02*
X43074819Y-79523809D01*
X43074819Y-79523809D02*
X43074819Y-79761904D01*
X43074819Y-79761904D02*
X43027200Y-79857142D01*
X43027200Y-79857142D02*
X42979580Y-79904761D01*
X171774819Y-87833333D02*
X172489104Y-87833333D01*
X172489104Y-87833333D02*
X172631961Y-87880952D01*
X172631961Y-87880952D02*
X172727200Y-87976190D01*
X172727200Y-87976190D02*
X172774819Y-88119047D01*
X172774819Y-88119047D02*
X172774819Y-88214285D01*
X172774819Y-86833333D02*
X172774819Y-87404761D01*
X172774819Y-87119047D02*
X171774819Y-87119047D01*
X171774819Y-87119047D02*
X171917676Y-87214285D01*
X171917676Y-87214285D02*
X172012914Y-87309523D01*
X172012914Y-87309523D02*
X172060533Y-87404761D01*
X90974279Y-108349819D02*
X90974279Y-109159342D01*
X90974279Y-109159342D02*
X91021898Y-109254580D01*
X91021898Y-109254580D02*
X91069517Y-109302200D01*
X91069517Y-109302200D02*
X91164755Y-109349819D01*
X91164755Y-109349819D02*
X91355231Y-109349819D01*
X91355231Y-109349819D02*
X91450469Y-109302200D01*
X91450469Y-109302200D02*
X91498088Y-109254580D01*
X91498088Y-109254580D02*
X91545707Y-109159342D01*
X91545707Y-109159342D02*
X91545707Y-108349819D01*
X92545707Y-109349819D02*
X91974279Y-109349819D01*
X92259993Y-109349819D02*
X92259993Y-108349819D01*
X92259993Y-108349819D02*
X92164755Y-108492676D01*
X92164755Y-108492676D02*
X92069517Y-108587914D01*
X92069517Y-108587914D02*
X91974279Y-108635533D01*
X51074819Y-48333333D02*
X51789104Y-48333333D01*
X51789104Y-48333333D02*
X51931961Y-48380952D01*
X51931961Y-48380952D02*
X52027200Y-48476190D01*
X52027200Y-48476190D02*
X52074819Y-48619047D01*
X52074819Y-48619047D02*
X52074819Y-48714285D01*
X51074819Y-47952380D02*
X51074819Y-47285714D01*
X51074819Y-47285714D02*
X52074819Y-47714285D01*
X113074819Y-118761904D02*
X113884342Y-118761904D01*
X113884342Y-118761904D02*
X113979580Y-118714285D01*
X113979580Y-118714285D02*
X114027200Y-118666666D01*
X114027200Y-118666666D02*
X114074819Y-118571428D01*
X114074819Y-118571428D02*
X114074819Y-118380952D01*
X114074819Y-118380952D02*
X114027200Y-118285714D01*
X114027200Y-118285714D02*
X113979580Y-118238095D01*
X113979580Y-118238095D02*
X113884342Y-118190476D01*
X113884342Y-118190476D02*
X113074819Y-118190476D01*
X113074819Y-117809523D02*
X113074819Y-117190476D01*
X113074819Y-117190476D02*
X113455771Y-117523809D01*
X113455771Y-117523809D02*
X113455771Y-117380952D01*
X113455771Y-117380952D02*
X113503390Y-117285714D01*
X113503390Y-117285714D02*
X113551009Y-117238095D01*
X113551009Y-117238095D02*
X113646247Y-117190476D01*
X113646247Y-117190476D02*
X113884342Y-117190476D01*
X113884342Y-117190476D02*
X113979580Y-117238095D01*
X113979580Y-117238095D02*
X114027200Y-117285714D01*
X114027200Y-117285714D02*
X114074819Y-117380952D01*
X114074819Y-117380952D02*
X114074819Y-117666666D01*
X114074819Y-117666666D02*
X114027200Y-117761904D01*
X114027200Y-117761904D02*
X113979580Y-117809523D01*
%TO.C,J6*%
D11*
X43620000Y-93380000D02*
X43620000Y-92000000D01*
X45000000Y-93380000D02*
X43620000Y-93380000D01*
X46270000Y-90620000D02*
X51460000Y-90620000D01*
X46270000Y-93380000D02*
X46270000Y-90620000D01*
X46270000Y-93380000D02*
X51460000Y-93380000D01*
X51460000Y-93380000D02*
X51460000Y-90620000D01*
%TO.C,J4*%
X43620000Y-69380000D02*
X43620000Y-68000000D01*
X45000000Y-69380000D02*
X43620000Y-69380000D01*
X46270000Y-66620000D02*
X51460000Y-66620000D01*
X46270000Y-69380000D02*
X46270000Y-66620000D01*
X46270000Y-69380000D02*
X51460000Y-69380000D01*
X51460000Y-69380000D02*
X51460000Y-66620000D01*
%TO.C,J8*%
X137570000Y-38350000D02*
X137570000Y-45650000D01*
X137570000Y-38350000D02*
X148020000Y-38350000D01*
X137570000Y-45650000D02*
X148020000Y-45650000D01*
X149500000Y-46030000D02*
X150500000Y-46030000D01*
X150520000Y-38350000D02*
X155020000Y-38350000D01*
X150520000Y-45650000D02*
X155020000Y-45650000D01*
X157070000Y-40500000D02*
X157070000Y-43500000D01*
%TO.C,J2*%
X147380000Y-54680000D02*
X157620000Y-54680000D01*
X147380000Y-57700000D02*
X157620000Y-57700000D01*
X147380000Y-62600000D02*
X157620000Y-62600000D01*
X147380000Y-64100000D02*
X157620000Y-64100000D01*
X147380000Y-64720000D02*
X147380000Y-54680000D01*
X149700000Y-64720000D02*
X147380000Y-64720000D01*
X157620000Y-54680000D02*
X157620000Y-64720000D01*
X157620000Y-64720000D02*
X150300000Y-64720000D01*
X150000000Y-64720000D02*
X150440000Y-65330000D01*
X149560000Y-65330000D01*
X150000000Y-64720000D01*
G36*
X150440000Y-65330000D02*
G01*
X149560000Y-65330000D01*
X150000000Y-64720000D01*
X150440000Y-65330000D01*
G37*
%TO.C,U2*%
X123600000Y-63600000D02*
X123600000Y-65000000D01*
X123600000Y-66270000D02*
X123600000Y-84180000D01*
X123600000Y-84180000D02*
X139100000Y-84180000D01*
X125000000Y-63600000D02*
X123600000Y-63600000D01*
X126270000Y-63600000D02*
X126270000Y-66270000D01*
X126270000Y-66270000D02*
X123600000Y-66270000D01*
X126270000Y-66270000D02*
X126270000Y-84180000D01*
X136430000Y-63600000D02*
X136430000Y-84180000D01*
X139100000Y-63600000D02*
X126270000Y-63600000D01*
X139100000Y-84180000D02*
X139100000Y-63600000D01*
%TO.C,C1*%
X165510000Y-50402000D02*
X165510000Y-49598000D01*
X165550000Y-50633000D02*
X165550000Y-49367000D01*
X165590000Y-50801000D02*
X165590000Y-49199000D01*
X165630000Y-50939000D02*
X165630000Y-49061000D01*
X165670000Y-51058000D02*
X165670000Y-48942000D01*
X165710000Y-51165000D02*
X165710000Y-48835000D01*
X165750000Y-51261000D02*
X165750000Y-48739000D01*
X165790000Y-51350000D02*
X165790000Y-48650000D01*
X165830000Y-51432000D02*
X165830000Y-48568000D01*
X165870000Y-51509000D02*
X165870000Y-48491000D01*
X165910000Y-51581000D02*
X165910000Y-48419000D01*
X165950000Y-51649000D02*
X165950000Y-48351000D01*
X165990000Y-51714000D02*
X165990000Y-48286000D01*
X166030000Y-51775000D02*
X166030000Y-48225000D01*
X166070000Y-51834000D02*
X166070000Y-48166000D01*
X166110000Y-51890000D02*
X166110000Y-48110000D01*
X166150000Y-51943000D02*
X166150000Y-48057000D01*
X166190000Y-51995000D02*
X166190000Y-48005000D01*
X166230000Y-52044000D02*
X166230000Y-47956000D01*
X166270000Y-52091000D02*
X166270000Y-47909000D01*
X166310000Y-52137000D02*
X166310000Y-47863000D01*
X166350000Y-52181000D02*
X166350000Y-47819000D01*
X166390000Y-52223000D02*
X166390000Y-47777000D01*
X166430000Y-52264000D02*
X166430000Y-47736000D01*
X166470000Y-48960000D02*
X166470000Y-47696000D01*
X166470000Y-52304000D02*
X166470000Y-51040000D01*
X166510000Y-48960000D02*
X166510000Y-47658000D01*
X166510000Y-52342000D02*
X166510000Y-51040000D01*
X166550000Y-48960000D02*
X166550000Y-47621000D01*
X166550000Y-52379000D02*
X166550000Y-51040000D01*
X166590000Y-48960000D02*
X166590000Y-47585000D01*
X166590000Y-52415000D02*
X166590000Y-51040000D01*
X166630000Y-48960000D02*
X166630000Y-47550000D01*
X166630000Y-52450000D02*
X166630000Y-51040000D01*
X166670000Y-48960000D02*
X166670000Y-47517000D01*
X166670000Y-52483000D02*
X166670000Y-51040000D01*
X166710000Y-48960000D02*
X166710000Y-47484000D01*
X166710000Y-52516000D02*
X166710000Y-51040000D01*
X166750000Y-48960000D02*
X166750000Y-47453000D01*
X166750000Y-52547000D02*
X166750000Y-51040000D01*
X166790000Y-48960000D02*
X166790000Y-47423000D01*
X166790000Y-52577000D02*
X166790000Y-51040000D01*
X166830000Y-48960000D02*
X166830000Y-47393000D01*
X166830000Y-52607000D02*
X166830000Y-51040000D01*
X166870000Y-48960000D02*
X166870000Y-47364000D01*
X166870000Y-52636000D02*
X166870000Y-51040000D01*
X166910000Y-48960000D02*
X166910000Y-47337000D01*
X166910000Y-52663000D02*
X166910000Y-51040000D01*
X166950000Y-48960000D02*
X166950000Y-47310000D01*
X166950000Y-52690000D02*
X166950000Y-51040000D01*
X166990000Y-48960000D02*
X166990000Y-47284000D01*
X166990000Y-52716000D02*
X166990000Y-51040000D01*
X167030000Y-48960000D02*
X167030000Y-47259000D01*
X167030000Y-52741000D02*
X167030000Y-51040000D01*
X167070000Y-48960000D02*
X167070000Y-47235000D01*
X167070000Y-52765000D02*
X167070000Y-51040000D01*
X167110000Y-48960000D02*
X167110000Y-47211000D01*
X167110000Y-52789000D02*
X167110000Y-51040000D01*
X167150000Y-48960000D02*
X167150000Y-47188000D01*
X167150000Y-52812000D02*
X167150000Y-51040000D01*
X167190000Y-48960000D02*
X167190000Y-47166000D01*
X167190000Y-52834000D02*
X167190000Y-51040000D01*
X167230000Y-48960000D02*
X167230000Y-47145000D01*
X167230000Y-52855000D02*
X167230000Y-51040000D01*
X167270000Y-48960000D02*
X167270000Y-47124000D01*
X167270000Y-52876000D02*
X167270000Y-51040000D01*
X167310000Y-48960000D02*
X167310000Y-47104000D01*
X167310000Y-52896000D02*
X167310000Y-51040000D01*
X167350000Y-48960000D02*
X167350000Y-47085000D01*
X167350000Y-52915000D02*
X167350000Y-51040000D01*
X167390000Y-48960000D02*
X167390000Y-47066000D01*
X167390000Y-52934000D02*
X167390000Y-51040000D01*
X167430000Y-48960000D02*
X167430000Y-47048000D01*
X167430000Y-52952000D02*
X167430000Y-51040000D01*
X167470000Y-48960000D02*
X167470000Y-47031000D01*
X167470000Y-52969000D02*
X167470000Y-51040000D01*
X167510000Y-48960000D02*
X167510000Y-47014000D01*
X167510000Y-52986000D02*
X167510000Y-51040000D01*
X167550000Y-48960000D02*
X167550000Y-46998000D01*
X167550000Y-53002000D02*
X167550000Y-51040000D01*
X167590000Y-48960000D02*
X167590000Y-46983000D01*
X167590000Y-53017000D02*
X167590000Y-51040000D01*
X167630000Y-48960000D02*
X167630000Y-46968000D01*
X167630000Y-53032000D02*
X167630000Y-51040000D01*
X167670000Y-48960000D02*
X167670000Y-46953000D01*
X167670000Y-53047000D02*
X167670000Y-51040000D01*
X167710000Y-48960000D02*
X167710000Y-46940000D01*
X167710000Y-53060000D02*
X167710000Y-51040000D01*
X167750000Y-48960000D02*
X167750000Y-46927000D01*
X167750000Y-53073000D02*
X167750000Y-51040000D01*
X167790000Y-48960000D02*
X167790000Y-46914000D01*
X167790000Y-53086000D02*
X167790000Y-51040000D01*
X167830000Y-48960000D02*
X167830000Y-46902000D01*
X167830000Y-53098000D02*
X167830000Y-51040000D01*
X167870000Y-48960000D02*
X167870000Y-46891000D01*
X167870000Y-53109000D02*
X167870000Y-51040000D01*
X167910000Y-48960000D02*
X167910000Y-46880000D01*
X167910000Y-53120000D02*
X167910000Y-51040000D01*
X167950000Y-48960000D02*
X167950000Y-46869000D01*
X167950000Y-53131000D02*
X167950000Y-51040000D01*
X167990000Y-48960000D02*
X167990000Y-46860000D01*
X167990000Y-53140000D02*
X167990000Y-51040000D01*
X168030000Y-48960000D02*
X168030000Y-46850000D01*
X168030000Y-53150000D02*
X168030000Y-51040000D01*
X168070000Y-48960000D02*
X168070000Y-46841000D01*
X168070000Y-53159000D02*
X168070000Y-51040000D01*
X168110000Y-48960000D02*
X168110000Y-46833000D01*
X168110000Y-53167000D02*
X168110000Y-51040000D01*
X168150000Y-48960000D02*
X168150000Y-46826000D01*
X168150000Y-53174000D02*
X168150000Y-51040000D01*
X168190000Y-48960000D02*
X168190000Y-46818000D01*
X168190000Y-53182000D02*
X168190000Y-51040000D01*
X168230000Y-48960000D02*
X168230000Y-46812000D01*
X168230000Y-53188000D02*
X168230000Y-51040000D01*
X168270000Y-48960000D02*
X168270000Y-46805000D01*
X168270000Y-53195000D02*
X168270000Y-51040000D01*
X168310000Y-48960000D02*
X168310000Y-46800000D01*
X168310000Y-53200000D02*
X168310000Y-51040000D01*
X168350000Y-48960000D02*
X168350000Y-46795000D01*
X168350000Y-53205000D02*
X168350000Y-51040000D01*
X168390000Y-48960000D02*
X168390000Y-46790000D01*
X168390000Y-53210000D02*
X168390000Y-51040000D01*
X168430000Y-48960000D02*
X168430000Y-46786000D01*
X168430000Y-53214000D02*
X168430000Y-51040000D01*
X168470000Y-48960000D02*
X168470000Y-46782000D01*
X168470000Y-53218000D02*
X168470000Y-51040000D01*
X168510000Y-48960000D02*
X168510000Y-46779000D01*
X168510000Y-53221000D02*
X168510000Y-51040000D01*
X168550000Y-53224000D02*
X168550000Y-46776000D01*
X168590000Y-53226000D02*
X168590000Y-46774000D01*
X168630000Y-53228000D02*
X168630000Y-46772000D01*
X168670000Y-53229000D02*
X168670000Y-46771000D01*
X168710000Y-53230000D02*
X168710000Y-46770000D01*
X168750000Y-53230000D02*
X168750000Y-46770000D01*
X171935241Y-52154000D02*
X171935241Y-51524000D01*
X172250241Y-51839000D02*
X171620241Y-51839000D01*
X172020000Y-50000000D02*
G75*
G02*
X165480000Y-50000000I-3270000J0D01*
G01*
X165480000Y-50000000D02*
G75*
G02*
X172020000Y-50000000I3270000J0D01*
G01*
%TO.C,J3*%
X42380000Y-98680000D02*
X52620000Y-98680000D01*
X42380000Y-101700000D02*
X52620000Y-101700000D01*
X42380000Y-106600000D02*
X52620000Y-106600000D01*
X42380000Y-108100000D02*
X52620000Y-108100000D01*
X42380000Y-108720000D02*
X42380000Y-98680000D01*
X44700000Y-108720000D02*
X42380000Y-108720000D01*
X52620000Y-98680000D02*
X52620000Y-108720000D01*
X52620000Y-108720000D02*
X45300000Y-108720000D01*
X45000000Y-108720000D02*
X45440000Y-109330000D01*
X44560000Y-109330000D01*
X45000000Y-108720000D01*
G36*
X45440000Y-109330000D02*
G01*
X44560000Y-109330000D01*
X45000000Y-108720000D01*
X45440000Y-109330000D01*
G37*
%TO.C,J5*%
X43620000Y-81380000D02*
X43620000Y-80000000D01*
X45000000Y-81380000D02*
X43620000Y-81380000D01*
X46270000Y-78620000D02*
X51460000Y-78620000D01*
X46270000Y-81380000D02*
X46270000Y-78620000D01*
X46270000Y-81380000D02*
X51460000Y-81380000D01*
X51460000Y-81380000D02*
X51460000Y-78620000D01*
%TO.C,J1*%
X161280000Y-77380000D02*
X171320000Y-77380000D01*
X161280000Y-79700000D02*
X161280000Y-77380000D01*
X161280000Y-97620000D02*
X161280000Y-80300000D01*
X161900000Y-77380000D02*
X161900000Y-97620000D01*
X163400000Y-77380000D02*
X163400000Y-97620000D01*
X168300000Y-77380000D02*
X168300000Y-97620000D01*
X171320000Y-77380000D02*
X171320000Y-97620000D01*
X171320000Y-97620000D02*
X161280000Y-97620000D01*
X161280000Y-80000000D02*
X160670000Y-80440000D01*
X160670000Y-79560000D01*
X161280000Y-80000000D01*
G36*
X161280000Y-80000000D02*
G01*
X160670000Y-80440000D01*
X160670000Y-79560000D01*
X161280000Y-80000000D01*
G37*
%TO.C,U1*%
X67960000Y-60800000D02*
X67960000Y-59200000D01*
X68280000Y-59130000D02*
X68280000Y-109130000D01*
X68620000Y-58583000D02*
X68620000Y-109677000D01*
X68890000Y-58520000D02*
X71380000Y-58520000D01*
X68890000Y-109740000D02*
X72727939Y-109740000D01*
X71380000Y-58520000D02*
X71380000Y-59433520D01*
X71380000Y-58520000D02*
X72727940Y-58520000D01*
X71380000Y-61826480D02*
X71380000Y-106433520D01*
X71380000Y-108826480D02*
X71380000Y-109740000D01*
X73652061Y-58520000D02*
X74655000Y-58520000D01*
X74655000Y-58520000D02*
X83125000Y-58520000D01*
X74780000Y-57220000D02*
X74780000Y-58040000D01*
X74780000Y-57220000D02*
X83000000Y-57220000D01*
X74780000Y-58040000D02*
X74990000Y-58040000D01*
X74990000Y-58040000D02*
X74990000Y-59436000D01*
X74990000Y-61824000D02*
X74990000Y-63040000D01*
X75290000Y-109740000D02*
X73652061Y-109740000D01*
X82490000Y-109740000D02*
X75290000Y-109740000D01*
X82790000Y-58040000D02*
X82790000Y-59436000D01*
X82790000Y-61824000D02*
X82790000Y-63040000D01*
X82790000Y-63040000D02*
X74990000Y-63040000D01*
X83000000Y-57220000D02*
X83000000Y-58040000D01*
X83000000Y-58040000D02*
X82790000Y-58040000D01*
X83125000Y-58520000D02*
X84127939Y-58520000D01*
X84127939Y-109740000D02*
X82490000Y-109740000D01*
X85052061Y-58520000D02*
X86400000Y-58520000D01*
X85052061Y-109740000D02*
X88890000Y-109740000D01*
X86400000Y-58520000D02*
X86400000Y-59433520D01*
X86400000Y-61826480D02*
X86400000Y-106433520D01*
X86400000Y-108826480D02*
X86400000Y-109740000D01*
X88890000Y-58520000D02*
X86400000Y-58520000D01*
X89160000Y-109677000D02*
X89160000Y-58583000D01*
X89500000Y-59130000D02*
X89500000Y-109130000D01*
X68280000Y-59130000D02*
G75*
G02*
X68890000Y-58520000I610000J0D01*
G01*
X68890000Y-109740000D02*
G75*
G02*
X68280000Y-109130000I-99J609901D01*
G01*
X88890000Y-58520000D02*
G75*
G02*
X89500000Y-59130000I0J-610000D01*
G01*
X89500000Y-109130000D02*
G75*
G02*
X88890000Y-109740000I-610000J0D01*
G01*
%TO.C,J7*%
X52620000Y-49380000D02*
X52620000Y-48000000D01*
X54000000Y-49380000D02*
X52620000Y-49380000D01*
X55270000Y-46620000D02*
X63000000Y-46620000D01*
X55270000Y-49380000D02*
X55270000Y-46620000D01*
X55270000Y-49380000D02*
X63000000Y-49380000D01*
X63000000Y-49380000D02*
X63000000Y-46620000D01*
%TO.C,U3*%
X114620000Y-119380000D02*
X114620000Y-118000000D01*
X116000000Y-119380000D02*
X114620000Y-119380000D01*
X117270000Y-116620000D02*
X125000000Y-116620000D01*
X117270000Y-119380000D02*
X117270000Y-116620000D01*
X117270000Y-119380000D02*
X125000000Y-119380000D01*
X125000000Y-119380000D02*
X125000000Y-116620000D01*
%TD*%
M02*
