%TF.GenerationSoftware,KiCad,Pcbnew,10.0.4*%
%TF.CreationDate,2026-06-23T10:56:01-07:00*%
%TF.ProjectId,Turret Control PCB,54757272-6574-4204-936f-6e74726f6c20,rev?*%
%TF.SameCoordinates,Original*%
%TF.FileFunction,Soldermask,Top*%
%TF.FilePolarity,Negative*%
%FSLAX46Y46*%
G04 Gerber Fmt 4.6, Leading zero omitted, Abs format (unit mm)*
G04 Created by KiCad (PCBNEW 10.0.4) date 2026-06-23 10:56:01*
%MOMM*%
%LPD*%
G01*
G04 APERTURE LIST*
G04 Aperture macros list*
%AMRoundRect*
0 Rectangle with rounded corners*
0 $1 Rounding radius*
0 $2 $3 $4 $5 $6 $7 $8 $9 X,Y pos of 4 corners*
0 Add a 4 corners polygon primitive as box body*
4,1,4,$2,$3,$4,$5,$6,$7,$8,$9,$2,$3,0*
0 Add four circle primitives for the rounded corners*
1,1,$1+$1,$2,$3*
1,1,$1+$1,$4,$5*
1,1,$1+$1,$6,$7*
1,1,$1+$1,$8,$9*
0 Add four rect primitives between the rounded corners*
20,1,$1+$1,$2,$3,$4,$5,0*
20,1,$1+$1,$4,$5,$6,$7,0*
20,1,$1+$1,$6,$7,$8,$9,0*
20,1,$1+$1,$8,$9,$2,$3,0*%
%AMFreePoly0*
4,1,37,0.603843,0.796157,0.639018,0.796157,0.711114,0.766294,0.766294,0.711114,0.796157,0.639018,0.796157,0.603843,0.800000,0.600000,0.800000,-0.600000,0.796157,-0.603843,0.796157,-0.639018,0.766294,-0.711114,0.711114,-0.766294,0.639018,-0.796157,0.603843,-0.796157,0.600000,-0.800000,0.000000,-0.800000,0.000000,-0.796148,-0.078414,-0.796148,-0.232228,-0.765552,-0.377117,-0.705537,
-0.507515,-0.618408,-0.618408,-0.507515,-0.705537,-0.377117,-0.765552,-0.232228,-0.796148,-0.078414,-0.796148,0.078414,-0.765552,0.232228,-0.705537,0.377117,-0.618408,0.507515,-0.507515,0.618408,-0.377117,0.705537,-0.232228,0.765552,-0.078414,0.796148,0.000000,0.796148,0.000000,0.800000,0.600000,0.800000,0.603843,0.796157,0.603843,0.796157,$1*%
%AMFreePoly1*
4,1,37,0.000000,0.796148,0.078414,0.796148,0.232228,0.765552,0.377117,0.705537,0.507515,0.618408,0.618408,0.507515,0.705537,0.377117,0.765552,0.232228,0.796148,0.078414,0.796148,-0.078414,0.765552,-0.232228,0.705537,-0.377117,0.618408,-0.507515,0.507515,-0.618408,0.377117,-0.705537,0.232228,-0.765552,0.078414,-0.796148,0.000000,-0.796148,0.000000,-0.800000,-0.600000,-0.800000,
-0.603843,-0.796157,-0.639018,-0.796157,-0.711114,-0.766294,-0.766294,-0.711114,-0.796157,-0.639018,-0.796157,-0.603843,-0.800000,-0.600000,-0.800000,0.600000,-0.796157,0.603843,-0.796157,0.639018,-0.766294,0.711114,-0.711114,0.766294,-0.639018,0.796157,-0.603843,0.796157,-0.600000,0.800000,0.000000,0.800000,0.000000,0.796148,0.000000,0.796148,$1*%
G04 Aperture macros list end*
%ADD10R,1.700000X1.700000*%
%ADD11C,1.700000*%
%ADD12RoundRect,0.250000X-0.550000X-0.550000X0.550000X-0.550000X0.550000X0.550000X-0.550000X0.550000X0*%
%ADD13C,1.600000*%
%ADD14C,2.150000*%
%ADD15RoundRect,0.250000X-1.050000X-1.050000X1.050000X-1.050000X1.050000X1.050000X-1.050000X1.050000X0*%
%ADD16C,2.600000*%
%ADD17R,1.600000X1.600000*%
%ADD18O,1.600000X1.600000*%
%ADD19RoundRect,0.250000X0.550000X0.550000X-0.550000X0.550000X-0.550000X-0.550000X0.550000X-0.550000X0*%
%ADD20RoundRect,0.250000X-1.050000X1.050000X-1.050000X-1.050000X1.050000X-1.050000X1.050000X1.050000X0*%
%ADD21RoundRect,0.200000X-0.600000X-0.600000X0.600000X-0.600000X0.600000X0.600000X-0.600000X0.600000X0*%
%ADD22FreePoly0,0.000000*%
%ADD23FreePoly1,0.000000*%
G04 APERTURE END LIST*
D10*
%TO.C,J6*%
X45000000Y-92000000D03*
D11*
X47540000Y-92000000D03*
X50080000Y-92000000D03*
%TD*%
D10*
%TO.C,J4*%
X45000000Y-68000000D03*
D11*
X47540000Y-68000000D03*
X50080000Y-68000000D03*
%TD*%
D12*
%TO.C,J8*%
X150000000Y-42000000D03*
D13*
X152000000Y-42000000D03*
X154000000Y-42000000D03*
X156000000Y-42000000D03*
D14*
X149270000Y-39280000D03*
X149270000Y-44720000D03*
X156270000Y-39280000D03*
X156270000Y-44720000D03*
%TD*%
D15*
%TO.C,J2*%
X150000000Y-60000000D03*
D16*
X155000000Y-60000000D03*
%TD*%
D17*
%TO.C,U2*%
X125000000Y-65000000D03*
D18*
X125000000Y-67540000D03*
X125000000Y-70080000D03*
X125000000Y-72620000D03*
X125000000Y-75160000D03*
X125000000Y-77700000D03*
X125000000Y-80240000D03*
X125000000Y-82780000D03*
X137700000Y-82780000D03*
X137700000Y-80240000D03*
X137700000Y-77700000D03*
X137700000Y-75160000D03*
X137700000Y-72620000D03*
X137700000Y-70080000D03*
X137700000Y-67540000D03*
X137700000Y-65000000D03*
%TD*%
D19*
%TO.C,C1*%
X170000000Y-50000000D03*
D13*
X167500000Y-50000000D03*
%TD*%
D15*
%TO.C,J3*%
X45000000Y-104000000D03*
D16*
X50000000Y-104000000D03*
%TD*%
D10*
%TO.C,J5*%
X45000000Y-80000000D03*
D11*
X47540000Y-80000000D03*
X50080000Y-80000000D03*
%TD*%
D20*
%TO.C,J1*%
X166000000Y-80000000D03*
D16*
X166000000Y-85000000D03*
X166000000Y-90000000D03*
X166000000Y-95000000D03*
%TD*%
D21*
%TO.C,U1*%
X70000000Y-60000000D03*
D13*
X70000000Y-62540000D03*
D22*
X70000000Y-65080000D03*
D13*
X70000000Y-67620000D03*
X70000000Y-70160000D03*
X70000000Y-72700000D03*
X70000000Y-75240000D03*
D22*
X70000000Y-77780000D03*
D13*
X70000000Y-80320000D03*
X70000000Y-82860000D03*
X70000000Y-85400000D03*
X70000000Y-87940000D03*
D22*
X70000000Y-90480000D03*
D13*
X70000000Y-93020000D03*
X70000000Y-95560000D03*
X70000000Y-98100000D03*
X70000000Y-100640000D03*
D22*
X70000000Y-103180000D03*
D13*
X70000000Y-105720000D03*
X70000000Y-108260000D03*
X87780000Y-108260000D03*
X87780000Y-105720000D03*
D23*
X87780000Y-103180000D03*
D13*
X87780000Y-100640000D03*
X87780000Y-98100000D03*
X87780000Y-95560000D03*
X87780000Y-93020000D03*
D23*
X87780000Y-90480000D03*
D13*
X87780000Y-87940000D03*
X87780000Y-85400000D03*
X87780000Y-82860000D03*
X87780000Y-80320000D03*
D23*
X87780000Y-77780000D03*
D13*
X87780000Y-75240000D03*
X87780000Y-72700000D03*
X87780000Y-70160000D03*
X87780000Y-67620000D03*
D23*
X87780000Y-65080000D03*
D13*
X87780000Y-62540000D03*
X87780000Y-60000000D03*
%TD*%
D10*
%TO.C,J7*%
X54000000Y-48000000D03*
D11*
X56540000Y-48000000D03*
X59080000Y-48000000D03*
X61620000Y-48000000D03*
%TD*%
D10*
%TO.C,U3*%
X116000000Y-118000000D03*
D11*
X118540000Y-118000000D03*
X121080000Y-118000000D03*
X123620000Y-118000000D03*
%TD*%
M02*
