M48
; DRILL file KiCad 10.0.4 date 2026-06-23T10:56:01
; FORMAT={-:-/ absolute / metric / decimal}
; #@! TF.CreationDate,2026-06-23T10:56:01-07:00
; #@! TF.GenerationSoftware,Kicad,Pcbnew,10.0.4
; #@! TF.FileFunction,MixedPlating,1,2
FMAT,2
METRIC
; #@! TA.AperFunction,Plated,PTH,ViaDrill
T1C0.350
; #@! TA.AperFunction,Plated,PTH,ComponentDrill
T2C0.800
; #@! TA.AperFunction,Plated,PTH,ComponentDrill
T3C0.920
; #@! TA.AperFunction,Plated,PTH,ComponentDrill
T4C1.000
; #@! TA.AperFunction,Plated,PTH,ComponentDrill
T5C1.300
; #@! TA.AperFunction,Plated,PTH,ComponentDrill
T6C1.500
; #@! TA.AperFunction,NonPlated,NPTH,ComponentDrill
T7C3.200
%
G90
G05
T1
X95.0Y-70.2
X142.0Y-100.0
T2
X125.0Y-65.0
X125.0Y-67.54
X125.0Y-70.08
X125.0Y-72.62
X125.0Y-75.16
X125.0Y-77.7
X125.0Y-80.24
X125.0Y-82.78
X137.7Y-65.0
X137.7Y-67.54
X137.7Y-70.08
X137.7Y-72.62
X137.7Y-75.16
X137.7Y-77.7
X137.7Y-80.24
X137.7Y-82.78
X167.5Y-50.0
X170.0Y-50.0
T3
X150.0Y-42.0
X152.0Y-42.0
X154.0Y-42.0
X156.0Y-42.0
T4
X45.0Y-68.0
X45.0Y-80.0
X45.0Y-92.0
X47.54Y-68.0
X47.54Y-80.0
X47.54Y-92.0
X50.08Y-68.0
X50.08Y-80.0
X50.08Y-92.0
X54.0Y-48.0
X56.54Y-48.0
X59.08Y-48.0
X61.62Y-48.0
X70.0Y-60.0
X70.0Y-62.54
X70.0Y-65.08
X70.0Y-67.62
X70.0Y-70.16
X70.0Y-72.7
X70.0Y-75.24
X70.0Y-77.78
X70.0Y-80.32
X70.0Y-82.86
X70.0Y-85.4
X70.0Y-87.94
X70.0Y-90.48
X70.0Y-93.02
X70.0Y-95.56
X70.0Y-98.1
X70.0Y-100.64
X70.0Y-103.18
X70.0Y-105.72
X70.0Y-108.26
X87.78Y-60.0
X87.78Y-62.54
X87.78Y-65.08
X87.78Y-67.62
X87.78Y-70.16
X87.78Y-72.7
X87.78Y-75.24
X87.78Y-77.78
X87.78Y-80.32
X87.78Y-82.86
X87.78Y-85.4
X87.78Y-87.94
X87.78Y-90.48
X87.78Y-93.02
X87.78Y-95.56
X87.78Y-98.1
X87.78Y-100.64
X87.78Y-103.18
X87.78Y-105.72
X87.78Y-108.26
X116.0Y-118.0
X118.54Y-118.0
X121.08Y-118.0
X123.62Y-118.0
T5
X45.0Y-104.0
X50.0Y-104.0
X150.0Y-60.0
X155.0Y-60.0
X166.0Y-80.0
X166.0Y-85.0
X166.0Y-90.0
X166.0Y-95.0
T6
X149.27Y-39.28
X149.27Y-44.72
X156.27Y-39.28
X156.27Y-44.72
T7
X40.0Y-40.0
X40.0Y-130.0
X175.0Y-40.0
X175.0Y-130.0
M30
