%TF.GenerationSoftware,KiCad,Pcbnew,10.0.4*%
%TF.CreationDate,2026-06-23T10:56:01-07:00*%
%TF.ProjectId,Turret Control PCB,54757272-6574-4204-936f-6e74726f6c20,rev?*%
%TF.SameCoordinates,Original*%
%TF.FileFunction,Copper,L1,Top*%
%TF.FilePolarity,Positive*%
%FSLAX46Y46*%
G04 Gerber Fmt 4.6, Leading zero omitted, Abs format (unit mm)*
G04 Created by KiCad (PCBNEW 10.0.4) date 2026-06-23 10:56:01*
%MOMM*%
%LPD*%
G01*
G04 APERTURE LIST*
G04 Aperture macros list*
%AMRoundRect*
0 Rectangle with rounded corners*
0 $1 Rounding radius*
0 $2 $3 $4 $5 $6 $7 $8 $9 X,Y pos of 4 corners*
0 Add a 4 corners polygon primitive as box body*
4,1,4,$2,$3,$4,$5,$6,$7,$8,$9,$2,$3,0*
0 Add four circle primitives for the rounded corners*
1,1,$1+$1,$2,$3*
1,1,$1+$1,$4,$5*
1,1,$1+$1,$6,$7*
1,1,$1+$1,$8,$9*
0 Add four rect primitives between the rounded corners*
20,1,$1+$1,$2,$3,$4,$5,0*
20,1,$1+$1,$4,$5,$6,$7,0*
20,1,$1+$1,$6,$7,$8,$9,0*
20,1,$1+$1,$8,$9,$2,$3,0*%
%AMFreePoly0*
4,1,37,0.603843,0.796157,0.639018,0.796157,0.711114,0.766294,0.766294,0.711114,0.796157,0.639018,0.796157,0.603843,0.800000,0.600000,0.800000,-0.600000,0.796157,-0.603843,0.796157,-0.639018,0.766294,-0.711114,0.711114,-0.766294,0.639018,-0.796157,0.603843,-0.796157,0.600000,-0.800000,0.000000,-0.800000,0.000000,-0.796148,-0.078414,-0.796148,-0.232228,-0.765552,-0.377117,-0.705537,
-0.507515,-0.618408,-0.618408,-0.507515,-0.705537,-0.377117,-0.765552,-0.232228,-0.796148,-0.078414,-0.796148,0.078414,-0.765552,0.232228,-0.705537,0.377117,-0.618408,0.507515,-0.507515,0.618408,-0.377117,0.705537,-0.232228,0.765552,-0.078414,0.796148,0.000000,0.796148,0.000000,0.800000,0.600000,0.800000,0.603843,0.796157,0.603843,0.796157,$1*%
%AMFreePoly1*
4,1,37,0.000000,0.796148,0.078414,0.796148,0.232228,0.765552,0.377117,0.705537,0.507515,0.618408,0.618408,0.507515,0.705537,0.377117,0.765552,0.232228,0.796148,0.078414,0.796148,-0.078414,0.765552,-0.232228,0.705537,-0.377117,0.618408,-0.507515,0.507515,-0.618408,0.377117,-0.705537,0.232228,-0.765552,0.078414,-0.796148,0.000000,-0.796148,0.000000,-0.800000,-0.600000,-0.800000,
-0.603843,-0.796157,-0.639018,-0.796157,-0.711114,-0.766294,-0.766294,-0.711114,-0.796157,-0.639018,-0.796157,-0.603843,-0.800000,-0.600000,-0.800000,0.600000,-0.796157,0.603843,-0.796157,0.639018,-0.766294,0.711114,-0.711114,0.766294,-0.639018,0.796157,-0.603843,0.796157,-0.600000,0.800000,0.000000,0.800000,0.000000,0.796148,0.000000,0.796148,$1*%
G04 Aperture macros list end*
%TA.AperFunction,ComponentPad*%
%ADD10R,1.700000X1.700000*%
%TD*%
%TA.AperFunction,ComponentPad*%
%ADD11C,1.700000*%
%TD*%
%TA.AperFunction,ComponentPad*%
%ADD12RoundRect,0.250000X-0.550000X-0.550000X0.550000X-0.550000X0.550000X0.550000X-0.550000X0.550000X0*%
%TD*%
%TA.AperFunction,ComponentPad*%
%ADD13C,1.600000*%
%TD*%
%TA.AperFunction,ComponentPad*%
%ADD14C,2.150000*%
%TD*%
%TA.AperFunction,ComponentPad*%
%ADD15RoundRect,0.250000X-1.050000X-1.050000X1.050000X-1.050000X1.050000X1.050000X-1.050000X1.050000X0*%
%TD*%
%TA.AperFunction,ComponentPad*%
%ADD16C,2.600000*%
%TD*%
%TA.AperFunction,ComponentPad*%
%ADD17R,1.600000X1.600000*%
%TD*%
%TA.AperFunction,ComponentPad*%
%ADD18O,1.600000X1.600000*%
%TD*%
%TA.AperFunction,ComponentPad*%
%ADD19RoundRect,0.250000X0.550000X0.550000X-0.550000X0.550000X-0.550000X-0.550000X0.550000X-0.550000X0*%
%TD*%
%TA.AperFunction,ComponentPad*%
%ADD20RoundRect,0.250000X-1.050000X1.050000X-1.050000X-1.050000X1.050000X-1.050000X1.050000X1.050000X0*%
%TD*%
%TA.AperFunction,ComponentPad*%
%ADD21RoundRect,0.200000X-0.600000X-0.600000X0.600000X-0.600000X0.600000X0.600000X-0.600000X0.600000X0*%
%TD*%
%TA.AperFunction,ComponentPad*%
%ADD22FreePoly0,0.000000*%
%TD*%
%TA.AperFunction,ComponentPad*%
%ADD23FreePoly1,0.000000*%
%TD*%
%TA.AperFunction,ViaPad*%
%ADD24C,0.700000*%
%TD*%
%TA.AperFunction,Conductor*%
%ADD25C,0.800000*%
%TD*%
%TA.AperFunction,Conductor*%
%ADD26C,0.350000*%
%TD*%
%TA.AperFunction,Conductor*%
%ADD27C,0.250000*%
%TD*%
%TA.AperFunction,Conductor*%
%ADD28C,0.650000*%
%TD*%
G04 APERTURE END LIST*
D10*
%TO.P,J6,1*%
%TO.N,GND*%
X45000000Y-92000000D03*
D11*
%TO.P,J6,2*%
%TO.N,VSERVO*%
X47540000Y-92000000D03*
%TO.P,J6,3*%
%TO.N,SERVO_AUX*%
X50080000Y-92000000D03*
%TD*%
D10*
%TO.P,J4,1*%
%TO.N,GND*%
X45000000Y-68000000D03*
D11*
%TO.P,J4,2*%
%TO.N,VSERVO*%
X47540000Y-68000000D03*
%TO.P,J4,3*%
%TO.N,SERVO_PAN*%
X50080000Y-68000000D03*
%TD*%
D12*
%TO.P,J8,1*%
%TO.N,CAM_5V*%
X150000000Y-42000000D03*
D13*
%TO.P,J8,2*%
%TO.N,CAM_D-*%
X152000000Y-42000000D03*
%TO.P,J8,3*%
%TO.N,CAM_D+*%
X154000000Y-42000000D03*
%TO.P,J8,4*%
%TO.N,CAM_GND*%
X156000000Y-42000000D03*
D14*
%TO.P,J8,SH*%
%TO.N,N/C*%
X149270000Y-39280000D03*
X149270000Y-44720000D03*
X156270000Y-39280000D03*
X156270000Y-44720000D03*
%TD*%
D15*
%TO.P,J2,1*%
%TO.N,VMOT*%
X150000000Y-60000000D03*
D16*
%TO.P,J2,2*%
%TO.N,GND*%
X155000000Y-60000000D03*
%TD*%
D17*
%TO.P,U2,1*%
%TO.N,EN*%
X125000000Y-65000000D03*
D18*
%TO.P,U2,2*%
%TO.N,N/C*%
X125000000Y-67540000D03*
%TO.P,U2,3*%
X125000000Y-70080000D03*
%TO.P,U2,4*%
X125000000Y-72620000D03*
%TO.P,U2,5*%
%TO.N,3V3*%
X125000000Y-75160000D03*
%TO.P,U2,6*%
X125000000Y-77700000D03*
%TO.P,U2,7*%
%TO.N,STEP*%
X125000000Y-80240000D03*
%TO.P,U2,8*%
%TO.N,DIR*%
X125000000Y-82780000D03*
%TO.P,U2,9*%
%TO.N,GND*%
X137700000Y-82780000D03*
%TO.P,U2,10*%
%TO.N,3V3*%
X137700000Y-80240000D03*
%TO.P,U2,11*%
%TO.N,MOT_B2*%
X137700000Y-77700000D03*
%TO.P,U2,12*%
%TO.N,MOT_B1*%
X137700000Y-75160000D03*
%TO.P,U2,13*%
%TO.N,MOT_A1*%
X137700000Y-72620000D03*
%TO.P,U2,14*%
%TO.N,MOT_A2*%
X137700000Y-70080000D03*
%TO.P,U2,15*%
%TO.N,GND*%
X137700000Y-67540000D03*
%TO.P,U2,16*%
%TO.N,VMOT*%
X137700000Y-65000000D03*
%TD*%
D19*
%TO.P,C1,1*%
%TO.N,VMOT*%
X170000000Y-50000000D03*
D13*
%TO.P,C1,2*%
%TO.N,GND*%
X167500000Y-50000000D03*
%TD*%
D15*
%TO.P,J3,1*%
%TO.N,VSERVO*%
X45000000Y-104000000D03*
D16*
%TO.P,J3,2*%
%TO.N,GND*%
X50000000Y-104000000D03*
%TD*%
D10*
%TO.P,J5,1*%
%TO.N,GND*%
X45000000Y-80000000D03*
D11*
%TO.P,J5,2*%
%TO.N,VSERVO*%
X47540000Y-80000000D03*
%TO.P,J5,3*%
%TO.N,SERVO_TILT*%
X50080000Y-80000000D03*
%TD*%
D20*
%TO.P,J1,1*%
%TO.N,MOT_A2*%
X166000000Y-80000000D03*
D16*
%TO.P,J1,2*%
%TO.N,MOT_A1*%
X166000000Y-85000000D03*
%TO.P,J1,3*%
%TO.N,MOT_B1*%
X166000000Y-90000000D03*
%TO.P,J1,4*%
%TO.N,MOT_B2*%
X166000000Y-95000000D03*
%TD*%
D21*
%TO.P,U1,1*%
%TO.N,UART_TX*%
X70000000Y-60000000D03*
D13*
%TO.P,U1,2*%
%TO.N,UART_RX*%
X70000000Y-62540000D03*
D22*
%TO.P,U1,3*%
%TO.N,GND*%
X70000000Y-65080000D03*
D13*
%TO.P,U1,4*%
%TO.N,N/C*%
X70000000Y-67620000D03*
%TO.P,U1,5*%
X70000000Y-70160000D03*
%TO.P,U1,6*%
X70000000Y-72700000D03*
%TO.P,U1,7*%
X70000000Y-75240000D03*
D22*
%TO.P,U1,8*%
X70000000Y-77780000D03*
D13*
%TO.P,U1,9*%
%TO.N,SERVO_PAN*%
X70000000Y-80320000D03*
%TO.P,U1,10*%
%TO.N,SERVO_TILT*%
X70000000Y-82860000D03*
%TO.P,U1,11*%
%TO.N,SERVO_AUX*%
X70000000Y-85400000D03*
%TO.P,U1,12*%
%TO.N,N/C*%
X70000000Y-87940000D03*
D22*
%TO.P,U1,13*%
X70000000Y-90480000D03*
D13*
%TO.P,U1,14*%
X70000000Y-93020000D03*
%TO.P,U1,15*%
X70000000Y-95560000D03*
%TO.P,U1,16*%
X70000000Y-98100000D03*
%TO.P,U1,17*%
X70000000Y-100640000D03*
D22*
%TO.P,U1,18*%
X70000000Y-103180000D03*
D13*
%TO.P,U1,19*%
X70000000Y-105720000D03*
%TO.P,U1,20*%
X70000000Y-108260000D03*
%TO.P,U1,21*%
X87780000Y-108260000D03*
%TO.P,U1,22*%
X87780000Y-105720000D03*
D23*
%TO.P,U1,23*%
X87780000Y-103180000D03*
D13*
%TO.P,U1,24*%
X87780000Y-100640000D03*
%TO.P,U1,25*%
X87780000Y-98100000D03*
%TO.P,U1,26*%
X87780000Y-95560000D03*
%TO.P,U1,27*%
X87780000Y-93020000D03*
D23*
%TO.P,U1,28*%
X87780000Y-90480000D03*
D13*
%TO.P,U1,29*%
X87780000Y-87940000D03*
%TO.P,U1,30*%
X87780000Y-85400000D03*
%TO.P,U1,31*%
%TO.N,DIR*%
X87780000Y-82860000D03*
%TO.P,U1,32*%
%TO.N,STEP*%
X87780000Y-80320000D03*
D23*
%TO.P,U1,33*%
%TO.N,N/C*%
X87780000Y-77780000D03*
D13*
%TO.P,U1,34*%
%TO.N,EN*%
X87780000Y-75240000D03*
%TO.P,U1,35*%
%TO.N,N/C*%
X87780000Y-72700000D03*
%TO.P,U1,36*%
%TO.N,3V3*%
X87780000Y-70160000D03*
%TO.P,U1,37*%
%TO.N,N/C*%
X87780000Y-67620000D03*
D23*
%TO.P,U1,38*%
%TO.N,GND*%
X87780000Y-65080000D03*
D13*
%TO.P,U1,39*%
%TO.N,N/C*%
X87780000Y-62540000D03*
%TO.P,U1,40*%
%TO.N,VBUS*%
X87780000Y-60000000D03*
%TD*%
D10*
%TO.P,J7,1*%
%TO.N,GND*%
X54000000Y-48000000D03*
D11*
%TO.P,J7,2*%
%TO.N,3V3*%
X56540000Y-48000000D03*
%TO.P,J7,3*%
%TO.N,UART_TX*%
X59080000Y-48000000D03*
%TO.P,J7,4*%
%TO.N,UART_RX*%
X61620000Y-48000000D03*
%TD*%
D10*
%TO.P,U3,1*%
%TO.N,VMOT*%
X116000000Y-118000000D03*
D11*
%TO.P,U3,2*%
%TO.N,GND*%
X118540000Y-118000000D03*
%TO.P,U3,3*%
%TO.N,VSERVO*%
X121080000Y-118000000D03*
%TO.P,U3,4*%
%TO.N,GND*%
X123620000Y-118000000D03*
%TD*%
D24*
%TO.N,GND*%
X142000000Y-100000000D03*
%TO.N,3V3*%
X95000000Y-70200000D03*
%TD*%
%TO.N,GND*%
D25*
X167500000Y-50000000D02*
X172000000Y-56000000D01*
X142000000Y-82800000D02*
X142000000Y-100000000D01*
X137700000Y-82780000D02*
X142000000Y-82800000D01*
X172000000Y-56000000D02*
X155000000Y-56000000D01*
X142000000Y-100000000D02*
X172000000Y-100000000D01*
X172000000Y-100000000D02*
X172000000Y-60000000D01*
X155000000Y-56000000D02*
X155000000Y-60000000D01*
X172000000Y-60000000D02*
X155000000Y-60000000D01*
%TO.N,3V3*%
D26*
X132000000Y-77700000D02*
X132000000Y-80200000D01*
X91000000Y-42000000D02*
X56500000Y-42000000D01*
X125000000Y-75160000D02*
X125000000Y-77700000D01*
X87780000Y-70160000D02*
X95000000Y-70200000D01*
X56500000Y-42000000D02*
X56540000Y-48000000D01*
X132000000Y-80200000D02*
X137700000Y-80240000D01*
X91000000Y-70200000D02*
X91000000Y-42000000D01*
X87780000Y-70160000D02*
X91000000Y-70200000D01*
X125000000Y-77700000D02*
X132000000Y-77700000D01*
%TO.N,VSERVO*%
D25*
X121100000Y-124000000D02*
X43000000Y-124000000D01*
X47500000Y-92000000D02*
X47540000Y-92000000D01*
X43000000Y-124000000D02*
X43000000Y-104000000D01*
X47500000Y-80000000D02*
X47540000Y-80000000D01*
X47500000Y-104000000D02*
X47500000Y-68000000D01*
X45000000Y-104000000D02*
X47500000Y-104000000D01*
X121080000Y-118000000D02*
X121100000Y-124000000D01*
X43000000Y-104000000D02*
X45000000Y-104000000D01*
X47500000Y-68000000D02*
X47540000Y-68000000D01*
%TO.N,STEP*%
D27*
X105000000Y-80200000D02*
X125000000Y-80240000D01*
X105000000Y-80300000D02*
X105000000Y-80200000D01*
X87780000Y-80320000D02*
X105000000Y-80300000D01*
%TO.N,DIR*%
X87780000Y-82860000D02*
X110000000Y-82900000D01*
X110000000Y-82900000D02*
X125000000Y-82780000D01*
%TO.N,EN*%
X100000000Y-65000000D02*
X125000000Y-65000000D01*
X87780000Y-75240000D02*
X100000000Y-75200000D01*
X100000000Y-75200000D02*
X100000000Y-65000000D01*
%TO.N,MOT_A1*%
D28*
X156000000Y-72600000D02*
X156000000Y-85000000D01*
X137700000Y-72620000D02*
X156000000Y-72600000D01*
X156000000Y-85000000D02*
X166000000Y-85000000D01*
%TO.N,MOT_A2*%
X137700000Y-70080000D02*
X159000000Y-70100000D01*
X159000000Y-80000000D02*
X166000000Y-80000000D01*
X159000000Y-70100000D02*
X159000000Y-80000000D01*
%TO.N,MOT_B1*%
X137700000Y-75160000D02*
X153000000Y-75200000D01*
X153000000Y-75200000D02*
X153000000Y-90000000D01*
X153000000Y-90000000D02*
X166000000Y-90000000D01*
%TO.N,MOT_B2*%
X150000000Y-77700000D02*
X150000000Y-95000000D01*
X150000000Y-95000000D02*
X166000000Y-95000000D01*
X137700000Y-77700000D02*
X150000000Y-77700000D01*
%TO.N,SERVO_PAN*%
D27*
X50100000Y-64000000D02*
X50080000Y-68000000D01*
X70000000Y-80320000D02*
X64000000Y-80300000D01*
X64000000Y-80300000D02*
X64000000Y-64000000D01*
X64000000Y-64000000D02*
X50100000Y-64000000D01*
%TO.N,SERVO_TILT*%
X62000000Y-80000000D02*
X50080000Y-80000000D01*
X70000000Y-82860000D02*
X62000000Y-82900000D01*
X62000000Y-82900000D02*
X62000000Y-80000000D01*
%TO.N,SERVO_AUX*%
X70000000Y-85400000D02*
X60000000Y-85400000D01*
X60000000Y-92000000D02*
X50080000Y-92000000D01*
X60000000Y-85400000D02*
X60000000Y-92000000D01*
%TO.N,UART_TX*%
X59100000Y-52000000D02*
X59080000Y-48000000D01*
X70000000Y-52000000D02*
X59100000Y-52000000D01*
X70000000Y-60000000D02*
X70000000Y-52000000D01*
%TO.N,UART_RX*%
X74000000Y-45000000D02*
X61600000Y-45000000D01*
X61600000Y-45000000D02*
X61620000Y-48000000D01*
X74000000Y-62500000D02*
X74000000Y-45000000D01*
X70000000Y-62540000D02*
X74000000Y-62500000D01*
%TD*%
M02*
